<?xml version="1.0" encoding="utf-8"?>
<!-- Generator: Adobe Illustrator 27.5.0, SVG Export Plug-In . SVG Version: 6.00 Build 0)  -->
<svg version="1.1" id="Layer_1" xmlns="http://www.w3.org/2000/svg" xmlns:xlink="http://www.w3.org/1999/xlink" x="0px" y="0px"
	 viewBox="0 0 4000 4000" style="enable-background:new 0 0 4000 4000;" xml:space="preserve">
<g>
	<g>
		<rect style="fill:transparent;" width="4000" height="4000"/>
	</g>
	<g>
		<g>
			<g>
				<path style="fill:#13956E;" d="M2038.297,3071.563c-22.346,83.821-59.304,181.213-130.052,171.442
					c-27.549-3.754-138.285-166.828-160.812-236.355c-26.825-82.917-35.057-154.388-29.946-214.914
					c20.039-238.616,247.754-306.515,363.557-230.429l180.761-209.53c36.64,63.058,68.848,154.66,82.419,251.645
					C2373.311,2810.42,2317.445,3041.753,2038.297,3071.563z"/>
			</g>
			<g>
				<path style="fill:#13956E;" d="M2038.297,3071.563c-22.346,83.821-59.304,181.213-130.052,171.442
					c-27.549-3.754-138.285-166.828-160.812-236.355c-26.825-82.917-35.057-154.388-29.946-214.914
					c41.481-7.509,95.221,1.493,160.812,49.759c193.155,142.22,296.427,88.842,356.816,48.809
					c70.748-46.909,98.342-185.691,109.108-286.883C2373.311,2810.42,2317.445,3041.753,2038.297,3071.563z"/>
			</g>
			<g>
				<path style="fill:#000072;" d="M2075.918,2569.109c-91.596-38.031-198.958-17.906-267.344,54.564
					c-46.684,48.19-69.239,116.944-72.744,183.69c-3.029,68.875,10.836,139.218,33.2,203.987
					c30.453,69.238,73.57,134.838,121.883,193.146c6.783,7.494,13.199,14.945,21.371,20.273c0.117,0.085,0.518,0.336-0.21-0.032
					c-0.239-0.093-0.496-0.154-0.754-0.178c-0.178-0.029-0.793-0.005-0.237,0.02c3.952,0.549,8.494,0.56,12.463,0.093
					c56.239-8.899,82.937-109.775,96.742-157.917c2.076-7.651,8.601-12.928,16.037-13.736c36.055-4.348,71.56-11.924,104.868-24.824
					c224.395-85.214,217.271-375.977,149.342-567.261c-12.206-34.716-26.95-68.552-44.96-100.005
					c-11.602-21.309,19.25-39.788,32.371-18.51c73.173,132.622,107.655,299.131,84.286,449.374
					c-28.724,176.363-145.971,279.889-321.951,298.305c-0.005,0.014,16.07-13.786,16.034-13.717
					c-19.143,67.148-50.555,179.94-134.604,185.875c-5.996,0.048-12.196,0.052-18.133-1.219c-8.644-1.863-15.318-7.246-21.775-12.62
					c-35.926-34.09-62.915-75.791-89.857-116.723c-23.136-37.212-46.17-74.977-61.333-116.67
					c-21.943-67.216-35.983-138.449-33.373-209.475c4.209-138.103,87.714-262.493,229.039-288.371
					c27.694-5.013,56.469-5.833,84.332-0.193c27.673,5.74,54.753,17.473,75.549,36.545
					C2094.023,2560.784,2085.396,2573.409,2075.918,2569.109L2075.918,2569.109z"/>
			</g>
			<g>
				<path style="fill:#FFFFFF;" d="M1977.362,3141.805c1.292,10.81,9.054,63.063-26.005,93.239
					c-61.283,52.746-225.637,24.85-302.175-126.238c-54.114-106.822-52.003-233.843,48.706-274.224
					c68.646-27.525,155.739,52.367,192.91,149.145c0,0,16.973,29.958,46.167,72.228
					C1971.423,3105.847,1977.362,3141.805,1977.362,3141.805z"/>
			</g>
			<g>
				<path style="fill:#D3D4E2;" d="M1951.355,3235.044c-51.342,44.195-175.016,31.755-258.746-62.244
					c79.795,56.951,173.93,61.294,210.842,19.135c57.132-65.32-56.318-284.576-59.168-290.095
					c18.908,23.93,35.103,52.111,46.502,81.876c0,0,16.963,29.991,46.186,72.241c34.469,49.895,40.395,85.857,40.395,85.857
					C1978.632,3152.625,1986.412,3204.872,1951.355,3235.044z"/>
			</g>
			<g>
				<path style="fill:#000072;" d="M1986.619,3140.698c31.86,129.571-97.571,160.672-196.348,122.97
					c-89.594-31.98-154.514-111.468-182.516-200.593c-26.06-78.012-22.462-182.823,53.782-232.16
					c21.795-14.217,48.438-24.273,74.564-21.003c60.49,7.133,110.201,56.486,139.256,106.244
					c11.205,20.155,19.919,41.683,24.145,64.227c0.962,5.146-2.427,10.098-7.571,11.062c-3.982,0.747-7.841-1.115-9.836-4.375
					c-33.312-53.701-106.38-163.721-179.773-132.569c-54.075,22.858-72.316,80.868-66.686,136.312
					c9.929,100.016,72.327,199.47,168.415,235.99c56.811,23.127,151.91,23.837,161.591-53.211c1.676-9.84,2.347-19.806,2.464-30.68
					c0.056-5.193,4.312-9.355,9.502-9.299C1981.965,3133.659,1985.6,3136.668,1986.619,3140.698L1986.619,3140.698z"/>
			</g>
			<g>
				<g>
					<path style="fill:#F27E80;" d="M1837.031,3077c21.631,33.359,25.7,76.792,1.852,98.856
						c-33.023,30.553-83.321-0.876-103.931-32.662c-20.61-31.785-28.784-90.529,12.582-108.214
						C1777.407,3022.208,1815.4,3043.642,1837.031,3077z"/>
				</g>
			</g>
			<g>
				<g>
					<path style="fill:#F27E80;" d="M1822.608,2967.44c10.786,16.634,12.839,37.518,0.923,49.293s-37.322,6.079-51.824-16.286
						c-14.503-22.366-9.338-47.885,6.274-53.96C1793.593,2940.413,1811.822,2950.806,1822.608,2967.44z"/>
				</g>
			</g>
			<g>
				<g>
					<path style="fill:#F27E80;" d="M1745.78,2964.311c9.226,18.556,8.878,40.489-4.895,51.303
						c-13.773,10.814-39.482,1.881-51.888-23.069c-12.406-24.95-4.012-50.84,12.924-55.295
						C1718.856,2932.795,1736.553,2945.754,1745.78,2964.311z"/>
				</g>
			</g>
			<g>
				<g>
					<path style="fill:#F27E80;" d="M1709.922,3033.08c6.232,12.533,5.997,27.348-3.306,34.652
						c-9.303,7.304-26.668,1.271-35.047-15.582c-8.379-16.852-2.709-34.34,8.73-37.349S1703.69,3020.546,1709.922,3033.08z"/>
				</g>
			</g>
			<g style="opacity:0.5;">
				<path style="fill:#FFFFFF;" d="M1820.55,2711.767c-3.725-28.218,28.146-88.716,76.9-114.02
					c75.365-39.115,139.696-21.153,147.148-7.555c8.515,15.538-39.781,21.125-124.294,69.634
					C1866.28,2690.833,1825.078,2746.061,1820.55,2711.767z"/>
			</g>
		</g>
		<g>
			<path style="fill:#13956E;" d="M1558.375,2603.113c0,0-38.782,83.624-120.401,74.953c-43.676-4.661-99.658-32.396-107.21-113.222
				c-1.398-14.823-1.165-31.417,1.072-49.969c19.764-164.264,184.82-254.273,382.226-184.96c0,0,0.233-1.025,0.699-3.03
				c3.636-17.107,20.65-104.04,7.691-198.058l264.248,199.783C1986.701,2328.61,2082.863,2760.712,1558.375,2603.113z"/>
		</g>
		<g>
			<path style="fill:#13956E;" d="M1558.375,2603.113c0,0-38.782,83.624-120.401,74.953c-43.676-4.661-99.658-32.396-107.21-113.222
				c20.323,14.031,61.622,32.955,120.354,13.331c86.374-28.76,98.726-83.903,98.726-83.903s194.795,123.198,257.862,27.175
				c64.652-98.4-42.931-168.552-92.946-194.562c3.636-17.107,20.65-104.04,7.691-198.058l264.248,199.783
				C1986.701,2328.61,2082.863,2760.712,1558.375,2603.113z"/>
		</g>
		<g>
			<path style="fill:#000072;" d="M1450.108,2697.353c-4.57,0-9.258-0.244-14.087-0.757c-22.153-2.354-63.75-11.875-93.501-49.229
				c-26.186-32.876-36.011-78.213-29.199-134.746c9.404-78.047,49.961-143.042,114.199-183.008
				c73.428-45.679,171.655-54.116,272.256-23.931c5.576-32.813,14.185-101.787,4.204-174.297
				c-1.401-10.205,5.727-19.609,15.928-21.016c10.259-1.401,19.614,5.732,21.016,15.928c14.751,107.178-7.754,203.882-8.721,207.944
				c-1.221,5.142-4.565,9.521-9.204,12.056c-4.639,2.534-10.132,2.974-15.112,1.23c-96.904-34.033-191.914-29.028-260.664,13.745
				c-54.448,33.877-88.853,89.209-96.88,155.811c-5.571,46.255,1.611,82.271,21.348,107.051
				c21.294,26.738,51.914,33.643,68.267,35.381c67.017,7.109,100.142-61.362,101.519-64.282c3.936-8.345,13.364-12.622,22.256-9.956
				c167.3,50.264,285.513,44.717,351.338-16.484c86.802-80.698,53.76-234.585,53.418-236.128
				c-2.236-10.054,4.097-20.015,14.145-22.251c10.073-2.241,20.01,4.092,22.251,14.146c1.597,7.163,37.856,176.455-64.424,271.543
				c-74.194,68.97-199.678,78.74-373.11,29.097C1551.944,2649.784,1513.887,2697.348,1450.108,2697.353z"/>
		</g>
		<g>
			<g>
				<path style="fill:#13956E;" d="M3526.885,2158.43c-0.359,2.741-0.764,5.528-1.168,8.224c-1.258,7.819-2.74,15.369-4.629,22.604
					c-42.377,163.127-242.982,143.354-246.802-37.119c-2.696-128.435-62.061-169.284-117.784-161.464
					c-8.629,1.213-17.167,3.595-25.391,6.965c-18.424,7.595-35.321,20.357-48.129,36.535c-10.785,13.661-18.649,29.839-22.109,47.5
					c-6.471,33.524-3.82,67.093,5.257,100.662c19.099,70.733,66.869,141.511,118.549,211.75
					c14.785,20.133,29.884,40.13,44.714,60.173c16.852,22.694,30.244,45.837,40.445,69.295
					c17.392,39.95,25.615,80.53,25.705,120.031c0.045,34.648-6.112,68.396-17.795,100.033
					c-55.903,151.982-238.174,255.655-462.777,176.563l23.818-196.966c44.354,29.794,89.112,40.625,128.748,39.097
					c4.629-0.135,9.213-0.494,13.707-0.989h0.045c1.573-0.18,3.145-0.36,4.629-0.629c59.184-7.999,103.897-43.186,113.829-79.766
					c31.502-115.313-129.153-312.683-180.293-423.591c-95.225-206.627-16.447-399.818,152.836-466.462
					c23.053-9.078,47.814-15.818,74.014-19.908c14.11-2.247,28.715-3.64,43.68-4.269c10.92-0.449,21.571-0.449,31.907,0.09
					C3447.389,1777.89,3544.861,2010.447,3526.885,2158.43z"/>
			</g>
			<g>
				<path style="fill:#13956E;" d="M3277.746,2743.62c-55.903,151.982-238.174,255.655-462.777,176.563l23.818-196.966
					c44.354,29.794,89.112,40.625,128.748,39.097C3022.848,2841.201,3195.236,2877.252,3277.746,2743.62z"/>
			</g>
			<g>
				<path style="fill:#13956E;" d="M2991.083,2135.107c34.775,128.586,145.026,222.687,193.583,258.976
					c-51.678-70.228-99.402-141.018-118.543-211.731c-9.08-33.582-11.724-67.157-5.213-100.653
					c3.432-17.682,11.285-33.839,22.094-47.508c18.476-23.479,45.551-39.643,73.531-43.514
					c55.702-7.816,115.053,33.007,117.75,161.461c3.81,180.469,204.436,200.253,246.808,37.122
					c1.869-7.229,3.387-14.804,4.617-22.613c-30.35,32.916-110.025,94.488-168.767,49.207
					c-82.658-63.716-12.571-208.311-119.985-285.614C3155.125,1871.347,2945.979,1968.373,2991.083,2135.107z"/>
			</g>
			<g>
				<path style="fill:#686868;" d="M3097.389,1937.679c2.056,1.495,23.269-8.387,23.097-5.843
					c-0.651,11.131-1.514,33.541,10.628,65.807c0.125-0.069,0.213-0.085,0.345-0.109c1.607-0.706,3.185-1.316,4.824-1.846
					c1.41-0.533,2.835-0.978,4.262-1.422c1.125-0.344,2.294-0.696,3.471-1.003c1.044-0.283,2.133-0.575,3.23-0.822
					c3.061-0.745,6.155-1.314,9.274-1.75c55.722-7.817,115.081,32.999,117.754,161.448c3.824,180.461,204.435,200.259,246.834,37.12
					c1.868-7.242,3.362-14.782,4.622-22.598c-30.371,32.903-110.031,94.464-168.79,49.198
					c-82.665-63.72-12.552-208.328-119.967-285.64c-34.167-24.564-90.441-21.992-141.192,1.452
					C3095.586,1934.583,3096.021,1936.696,3097.389,1937.679z"/>
			</g>
			<g>
				<path style="fill:#FFFFFF;" d="M3131.115,1997.642c8.241-3.387,16.758-5.775,25.406-6.953
					c55.722-7.817,115.081,32.999,117.754,161.448c3.824,180.461,204.435,200.259,246.834,37.12
					c1.868-7.242,3.362-14.782,4.622-22.598c0.368-2.718,0.773-5.488,1.133-8.25c18.003-147.965-79.465-380.533-304.973-391.599
					c-10.339-0.568-20.987-0.576-31.914-0.122c-14.959,0.647-29.552,2.048-43.671,4.277c-12.613,11.533-41.895,52.824-45.087,91.038
					c-0.395,4.728,20.761-8.226,19.855-3.111c-3.045,17.197-32.53,72.363-23.687,78.801c2.038,1.484,23.258-8.386,23.113-5.859
					C3119.858,1942.974,3118.958,1965.365,3131.115,1997.642z"/>
			</g>
			<g>
				<path style="fill:#D3D4E2;" d="M3097.389,1937.679c2.056,1.495,23.269-8.387,23.097-5.843
					c-0.651,11.131-1.514,33.541,10.628,65.807c0.125-0.069,0.213-0.085,0.345-0.109c1.615-0.662,3.193-1.272,4.824-1.846
					c1.41-0.533,2.835-0.978,4.262-1.422c1.125-0.344,2.294-0.696,3.471-1.003c1.089-0.292,2.177-0.583,3.23-0.822
					c3.061-0.745,6.155-1.314,9.274-1.75c55.722-7.817,115.081,32.999,117.754,161.448c3.824,180.461,204.435,200.259,246.834,37.12
					c1.868-7.242,3.362-14.782,4.622-22.598c-30.371,32.903-110.031,94.464-168.79,49.198
					c-82.665-63.72-12.552-208.328-119.967-285.64c-34.167-24.564-90.441-21.992-141.192,1.452
					C3095.586,1934.583,3096.021,1936.696,3097.389,1937.679z"/>
			</g>
			<g>
				<!-- outline -->
				<path style="fill:#000072;" d="M2965.758,2965.575c-50.776,0-103.823-9.082-156.958-27.798
					c-9.712-3.423-14.81-14.072-11.392-23.784c3.423-9.707,14.063-14.79,23.784-11.392
					c159.443,56.187,317.212,18.247,401.914-96.611c75.068-101.787,71.763-232.29-8.628-340.586
					c-5.586-7.524-11.206-15.054-16.836-22.593c-88.081-118.013-179.165-240.049-155.049-364.658
					c12.207-63.066,74.468-111.953,136.089-106.663c25.952,2.212,110.903,21.753,114.253,180.276
					c1.846,87.642,51.543,124.482,93.54,129.395c44.155,5.205,97.373-22.686,116.567-96.602
					c19.59-75.435,0.4-200.122-74.189-292.485c-41.592-51.509-116.533-111.838-238.11-106.741
					c-108.447,4.553-199.897,55.037-250.898,138.506c-55.635,91.047-56.899,209.768-3.462,325.72
					c14.18,30.771,37.764,69.556,62.734,110.625c67.144,110.425,143.242,235.586,118.657,325.645
					c-9.443,34.59-42.808,66.328-87.07,82.822c-64.434,24.014-138.164,13.11-202.305-29.917
					c-8.555-5.737-10.835-17.319-5.098-25.869c5.737-8.555,17.319-10.835,25.869-5.098c54.053,36.255,115.464,45.703,168.511,25.942
					c32.71-12.192,57.876-34.839,64.116-57.705c20.361-74.575-54.438-197.598-114.546-296.45
					c-25.542-42.002-49.663-81.68-64.736-114.39c-58.726-127.437-56.719-258.933,5.508-360.769
					c57.598-94.26,160.073-151.235,281.157-156.318c136.807-5.813,221.704,62.39,268.687,120.569
					c73.843,91.44,107.261,225.205,81.27,325.288c-24.834,95.63-96.846,131.309-156.997,124.268
					c-61.372-7.183-124.287-61.191-126.489-165.649c-1.816-85.986-31.772-139.785-80.137-143.906
					c-42.695-3.633-87.705,32.153-96.309,76.597c-20.986,108.423,65.083,223.74,148.325,335.264
					c5.645,7.563,11.284,15.122,16.89,22.671c89.165,120.112,92.578,271.211,8.701,384.946
					C3187.159,2917.563,3082.467,2965.575,2965.758,2965.575z"/>
			</g>
		</g>
		<g>
			<!-- top gray -->
			<path style="fill:#13956E;" d="M2762.339,2954.155c-119.142,93.133-282.381,140.631-430.936,126.694
				c-137.275-12.865-261.964-78.217-327.688-208.5c-109.82-217.868-115.926-441.517-212.974-627.083
				c-20.556-39.341-45.168-76.958-75.746-112.43l581.356-128.558l22.048-4.894c77.89,31.93,147.343,70.013,208.826,112.617
				c187.664,129.957,301.259,301.585,355.097,467.014C2932.057,2731.765,2856.218,2880.786,2762.339,2954.155z"/>
		</g>
		<g>
			<path style="fill:#13956E;" d="M2121.109,2584.553c0,0,375.603-267.612,386.571-252.563
				c-9.395,252.563,144.767,320.665,130.431,326.696c-14.336,6.031-430.143,202.065-419.175,176.628
				S2121.109,2584.553,2121.109,2584.553z"/>
		</g>
		<g>
			<path style="fill:#13956E;" d="M2527.224,2112c-99.146,105.858-275.109,176.243-475.684,176.243
				c-94.158,0-182.909-15.522-260.799-42.977c-20.556-39.341-45.168-76.958-75.746-112.43l581.356-128.558l22.048-4.894
				C2396.288,2031.313,2465.741,2069.396,2527.224,2112z"/>
		</g>
		<g>
			<path style="fill:#E8E8E8;" d="M2226.99,2269.552c-55.19,12.119-114.202,18.691-175.451,18.691
				c-94.158,0-182.909-15.522-260.799-42.977c-1.025-1.911-2.004-3.869-3.076-5.78c-1.165-2.238-2.377-4.475-3.636-6.712
				c-1.911-3.496-3.822-6.945-5.827-10.395c-1.259-2.191-2.517-4.381-3.822-6.526c-1.212-2.098-2.47-4.148-3.729-6.199
				c-1.865-3.123-3.822-6.246-5.78-9.369c-1.818-2.89-3.682-5.733-5.547-8.577c-2.144-3.31-4.335-6.573-6.619-9.835
				c-2.657-3.916-5.361-7.784-8.204-11.653c-1.538-2.144-3.123-4.289-4.708-6.433c-5.594-7.505-11.374-14.916-17.433-22.235
				c-2.424-2.937-4.894-5.826-7.365-8.717l581.356-128.558C2254.492,2076.574,2215.477,2173.063,2226.99,2269.552z"/>
		</g>
		<g>
			<path style="fill:#FFFFFF;" d="M2478.84,2963.431c-37.057,61.669-88.891,98.167-147.437,117.418
				c-137.275-12.865-261.964-78.217-327.688-208.5c-28.76-57.054-50.389-114.528-68.428-171.582
				c-65.398-206.961-83.251-408.841-220.292-567.931l581.356-128.558c-51.181,88.425-98.167,213.068-53.512,329.646
				c35.659,93.039,94.717,164.776,149.767,230.174C2495.807,2686.69,2584.791,2787.048,2478.84,2963.431z"/>
		</g>
		<g>
			<path style="fill:#E8E8E8;" d="M2478.84,2963.431c-37.057,61.669-88.891,98.167-147.437,117.418
				c-137.275-12.865-261.964-78.217-327.688-208.5c-28.76-57.054-50.389-114.528-68.428-171.582
				c127.486,33.469,338.316,52.114,457.319-136.669C2495.807,2686.69,2584.791,2787.048,2478.84,2963.431z"/>
		</g>
		<g>
			<path style="fill:#D3D4E2;" d="M2226.99,2269.552c-55.19,12.119-114.202,18.691-175.451,18.691
				c-94.158,0-182.909-15.522-260.799-42.977c-0.979-1.958-2.004-3.869-3.076-5.78c-1.165-2.238-2.377-4.475-3.636-6.712
				c-1.911-3.496-3.869-6.945-5.827-10.395c-1.259-2.191-2.517-4.381-3.822-6.526c-1.212-2.051-2.424-4.148-3.729-6.199
				c-1.865-3.123-3.822-6.246-5.78-9.369c-1.818-2.89-3.682-5.733-5.547-8.577c-2.144-3.31-4.335-6.573-6.619-9.835
				c-2.657-3.916-5.361-7.784-8.204-11.653c-1.538-2.144-3.123-4.289-4.708-6.433c-5.594-7.505-11.374-14.916-17.433-22.235
				c-2.424-2.937-4.894-5.826-7.365-8.717l581.356-128.558C2254.492,2076.574,2215.477,2173.063,2226.99,2269.552z"/>
		</g>
		<g>
			<path style="fill:#000072;" d="M2383.077,3101.865c-40.645,0-80.688-4.165-119.067-12.759
				c-126.748-28.369-222.51-100.425-276.934-208.374c-57.021-113.11-86.235-226.602-114.492-336.362
				c-37.769-146.709-73.442-285.278-171.724-399.365c-6.719-7.798-5.845-19.575,1.958-26.294c7.803-6.719,19.575-5.84,26.294,1.958
				c103.97,120.688,140.698,263.354,179.585,414.404c27.764,107.842,56.47,219.355,111.68,328.872
				c62.192,123.364,171.245,170.747,251.777,188.77c157.646,35.293,345.552-9.175,478.711-113.262
				c87.988-68.77,161.113-209.082,113.75-354.644c-47.856-147.065-183.374-416.44-553.291-568.188
				c-9.526-3.906-14.082-14.797-10.176-24.326c3.906-9.526,14.8-14.087,24.326-10.173
				c150.625,61.79,278.545,149.495,380.205,260.681c88.218,96.484,155.439,210.757,194.395,330.464
				c52.915,162.627-28.345,319.053-126.24,395.571C2664.556,3054.247,2520.435,3101.865,2383.077,3101.865z"/>
		</g>
		<g>
			<g style="opacity:0.3;">
				<g>
					<path style="fill:#6B184E;" d="M1378.191,1793.46c0.407,0.662,0.764,1.375,1.171,2.037l-1.375-2.24
						C1378.038,1793.307,1378.14,1793.358,1378.191,1793.46z"/>
				</g>
				<g>
					<path style="fill:#6B184E;" d="M2924.62,1793.257l-1.375,2.24c0.407-0.662,0.764-1.375,1.171-2.037
						C2924.467,1793.358,2924.569,1793.307,2924.62,1793.257z"/>
				</g>
			</g>
			<g>
				<path style="fill:#000072;" d="M1268.406,1597.107c-65.28-66.192-148.204-115.234-236.643-143.521
					c-16.521-6.01-33.86-9.564-50.75-14.589c-13.334-2.733-27.701-5.669-40.977-8.655c-11.312-2.696-8.606-19.468,3.094-18.345
					c11.547,1.278,24.604,3.033,36.228,4.56c27.548,3.983,56.431,11.575,83.14,19.71c22.343,7.831,47.026,17.129,68.086,27.695
					c58.826,29.358,113.353,68.006,152.679,121.877C1289.982,1595.585,1276.109,1606.288,1268.406,1597.107L1268.406,1597.107z"/>
			</g>
			<g>
				<path style="fill:#000072;" d="M1251.445,1719.741c-98.627-42.548-214.016-68.112-317.122-26.279
					c-10.89,4.304-18.263-11.167-7.91-16.885c78.177-41.703,173.708-38.4,255.852-10.359c27.5,9.477,53.674,21.296,78.503,37.375
					c4.324,2.8,5.559,8.577,2.761,12.9C1260.898,1720.572,1255.641,1721.856,1251.445,1719.741L1251.445,1719.741z"/>
			</g>
			<g>
				<path style="fill:#13956E;" d="M1448.128,1292.267l246.802-193.35l285.198-223.371
					c-151.933-163.752-454.712-345.564-550.204-290.504c-18.083,10.458-32.57,34.923-43.154,69.856
					C1347.021,785.924,1362.106,1063.4,1448.128,1292.267z"/>
			</g>
			<g>
				<path style="fill:#13956E;" d="M1448.128,1292.267l246.802-193.35c-60.197-159.784-211.569-525.373-308.159-444.019
					C1347.021,785.924,1362.106,1063.4,1448.128,1292.267z"/>
			</g>
			<g style="opacity:0.5;">
				<path style="fill:#FFFFFF;" d="M1382.494,670.397c8.96-19.725,19.859-33.812,32.433-41.082
					c91.948-53.071,375.766,113.361,532.426,271.917l32.776-25.686c-151.933-163.752-454.712-345.564-550.204-290.504
					C1409.292,596.941,1393.32,627.244,1382.494,670.397z"/>
			</g>
			<g>
				<path style="fill:#000072;" d="M1448.145,1310.917c-7.544,0-14.643-4.609-17.456-12.087
					c-51.128-135.982-81.519-300.017-83.389-450.042c-0.884-70.928,4.487-240.183,73.291-279.871
					c111.665-64.434,424.712,133.906,573.188,293.955c7.007,7.549,6.563,19.346-0.986,26.35c-7.554,7.004-19.351,6.558-26.348-0.989
					c-163.604-176.348-449.375-331.897-527.222-287.017c-28.525,16.455-56.479,99.243-54.639,247.107
					c1.821,145.869,31.343,305.288,81.006,437.38c3.623,9.639-1.25,20.391-10.889,24.016
					C1452.54,1310.531,1450.323,1310.917,1448.145,1310.917z"/>
			</g>
			<g>
				<path style="fill:#F27E80;" d="M1471.251,1060.48c51.834-67.158,95.013-112.794,132.599-146.791
					c32.966-29.732,61.6-50.462,88.03-68.711c-5.937-31.825-200.407-211.615-232.982-157c-9.743,16.33-16.847,41.337-21.292,71.175
					C1423.708,851.573,1435.029,990.268,1471.251,1060.48z"/>
			</g>
			<g>
				<path style="fill:#FF5C64;" d="M1437.605,759.154c13.382-16.047,33.681-34.965,51.667-30.087
					c30.623,8.321,93.165,112.443,114.578,184.622c32.966-29.732,61.6-50.462,88.03-68.711
					c-5.937-31.825-200.407-211.615-232.982-157C1449.155,704.309,1442.05,729.316,1437.605,759.154z"/>
			</g>
			<g>
				<path style="fill:#000072;" d="M1468.135,1095.033l-13.438-26.011c-49.902-96.621-56.533-315.649-11.821-390.601v-0.003
					c5.396-9.055,18.882-23.447,48.091-18.225c68.564,12.275,212.251,143.831,219.224,181.392l2.207,11.88l-9.941,6.868
					c-57.568,39.744-121.694,88.818-216.431,211.526L1468.135,1095.033z M1474.898,697.524
					c-31.963,53.584-34.185,226.873,1.147,326.721c80.498-100.281,139.243-148.069,191.66-185.132
					c-27.764-37.581-138.135-137.715-186.069-142.605c-2.163-0.217-5.903-0.381-6.738,1.018V697.524z"/>
			</g>
			<g>
				<path style="fill:#13956E;" d="M2173.746,901.748l335.045,356.562l144.798,154.082
					c132.171-220.757,192.448-509.067,163.307-638.006c-5.998-26.528-15.77-46.264-29.474-57.357
					C2698.067,644.797,2356.77,768.165,2173.746,901.748z"/>
			</g>
			<g>
				<path style="fill:#13956E;" d="M2508.792,1258.31l144.798,154.082c132.171-220.757,192.448-509.067,163.307-638.006
					c-28.624-39.517-76.618-69.293-129.633,50.004C2632.289,947.926,2553.586,1144.8,2508.792,1258.31z"/>
			</g>
			<g style="opacity:0.5;">
				<path style="fill:#FFFFFF;" d="M2173.746,901.748l21.124,22.46c188.386-124.197,521.467-223.282,585.964-184.136
					c52.433,31.824,34.168,221.093,1.085,371.337c52.886-185.009,57.481-352.393,5.503-394.38
					C2698.067,644.797,2356.77,768.165,2173.746,901.748z"/>
			</g>
			<g>
				<path style="fill:#000072;" d="M2653.551,1431.027c-3.257,0-6.558-0.854-9.561-2.651c-8.833-5.291-11.709-16.741-6.416-25.574
					c72.573-121.204,128.872-273.132,154.463-416.829c25.952-145.703,10.498-232.793-16.333-254.465
					c-35.22-28.464-130.283-21.56-254.277,18.447c-119.473,38.547-248.486,102.478-336.699,166.841
					c-8.311,6.069-19.98,4.253-26.055-4.072c-6.069-8.318-4.243-19.98,4.072-26.05c91.196-66.54,224.248-132.527,347.231-172.207
					c81.123-26.174,226.577-62.539,289.165-11.965c94.863,76.641,25.84,459.905-129.575,719.456
					C2666.075,1427.792,2659.893,1431.027,2653.551,1431.027z"/>
			</g>
			<g style="opacity:0.7;">
				<path style="fill:#FFFFFF;" d="M2335.218,815.882c7.549,3.816,3.083,15.356-5.042,13.006
					c-55.883-16.167-110.137-26.797-159.808-31.094c-57.124-4.91-131.888-7.247-217.488-0.968
					c1.926-21.083,5.184-41.789,9.779-62.065c73.475-0.618,136.904,6.685,183.659,14.927
					C2204.592,759.936,2270.52,783.18,2335.218,815.882z"/>
			</g>
			<g>
				<path style="fill:#13956E;" d="M1973.682,2214.368L1973.682,2214.368c48.271,1.341,96.618-0.046,144.7-4.511
					c402.885-37.417,582.063-192.852,641.748-311.796c1.744-3.55,3.438-7.088,5.12-10.676c0.951-2.06,1.825-4.167,2.723-6.2
					c2.345-5.306,4.649-10.627,6.645-16.074c1.118-3.05,2.237-6.1,3.357-9.15c0.106-0.238,0.16-0.464,0.215-0.69
					c0.149-0.515,0.347-1.04,0.558-1.516c0.816-2.482,1.644-4.914,2.409-7.385c1.027-2.958,1.94-5.943,2.803-8.916
					c0.859-2.759,1.617-5.495,2.375-8.23c0.934-3.363,1.866-6.726,2.688-10.117c1.461-5.939,2.837-12.019,4.111-18.075
					c0.404-1.96,0.806-3.921,1.134-5.971c0.48-2.085,0.849-4.197,1.204-6.36c0.489-2.514,0.904-5.117,1.33-7.67
					c15.05-93.431,4.039-196.232-17.629-293.86c-21.527-97.02-53.519-188.963-80.829-261.492c0,0-41.019-93.601-143.933-216.874
					c-87.804-105.139-171.503-164.158-194.23-179.205c-3.911-2.622-6.019-3.897-6.019-3.897
					c-70.663-37.846-143.876-64.754-207.886-76.01c-103.275-18.175-288.023-31.9-482.36,34.435
					c-152.148,51.877-250.458,152.196-315.447,260.962c-94.396,157.902-118.434,333.55-134.737,404.378
					c-4.405,18.89-42.429,67.448-66.068,138.63l0.012,0.051c-1.843,5.44-3.5,10.998-5.12,16.707
					c-0.758,2.736-1.516,5.471-2.211,8.246c-0.774,2.9-1.496,5.787-2.157,8.714c-0.039,0.062-0.078,0.125-0.055,0.226
					c-0.551,2.475-1.152,4.961-1.68,7.537c-0.266,1.395-0.572,2.853-0.876,4.31c-0.939,4.965-1.865,9.981-2.606,15.114
					c-0.512,3.106-0.912,6.24-1.299,9.424c-0.325,2.529-0.627,5.16-0.878,7.78c-0.11,1.146-0.258,2.354-0.357,3.55
					c-0.239,2.67-0.428,5.328-0.616,7.986c-0.252,3.313-0.391,6.653-0.478,9.982c-0.289,6.63-0.317,13.467-0.168,20.369
					c0.099,3.446,0.238,6.829,0.41,10.365c0,0,0,0,0.012,0.051c0.169,3.056,0.34,6.112,0.634,9.246
					c0.097,0.885,0.143,1.781,0.251,2.717c0.272,3.032,0.616,6.155,0.961,9.277c0.602,4.931,1.265,9.901,2.104,14.938
					c25.259,153.208,211.912,314.99,526.999,409.977C1762.158,2195.294,1867.596,2211.42,1973.682,2214.368z"/>
			</g>
			<g>
				<path style="fill:#FFFFFF;" d="M1245.927,1944.349c89.396,85.881,228.966,164.043,412.173,219.584
					c102.382,31.038,208.643,47.462,315.585,50.434h0c48.268,1.341,96.614-0.046,144.694-4.511
					c402.886-37.417,582.065-192.852,641.751-311.796c1.744-3.55,3.438-7.088,5.12-10.676c0.951-2.06,1.825-4.167,2.723-6.2
					c2.345-5.306,4.649-10.627,6.645-16.074c1.118-3.05,2.237-6.1,3.357-9.15c0.106-0.238,0.16-0.464,0.215-0.69
					c1.015-3.009,2.053-5.916,2.967-8.901c1.027-2.958,1.94-5.943,2.803-8.916c0.859-2.759,1.617-5.495,2.375-8.23
					c0.934-3.363,1.866-6.726,2.688-10.117c1.461-5.939,2.837-12.019,4.111-18.075c0.404-1.96,0.806-3.921,1.134-5.971
					c0.48-2.085,0.849-4.197,1.204-6.36c0.489-2.514,0.904-5.117,1.33-7.67c-21.66,12.775-46.032,26.282-72.849,39.604
					c-115.053,57.481-273.894,112.499-445.672,96.002c-260.376-24.923-358.67-192.108-403.76-242.19
					c-27.445-30.45-150.216-54.97-191.914-4.286c-88.609,107.692-463.803,177.442-534.932-82.013
					c-1.843,5.44-3.5,10.998-5.12,16.707c-0.758,2.736-1.516,5.471-2.211,8.246c-0.774,2.9-1.496,5.787-2.157,8.714
					c-0.039,0.062-0.078,0.125-0.055,0.226c-0.551,2.475-1.152,4.961-1.68,7.537c-0.266,1.395-0.572,2.853-0.876,4.31
					c-0.939,4.965-1.815,9.969-2.606,15.114c-0.512,3.106-0.912,6.24-1.299,9.424c-0.325,2.529-0.627,5.16-0.878,7.78
					c-0.11,1.146-0.258,2.354-0.357,3.55c-0.239,2.67-0.428,5.328-0.616,7.986c-0.252,3.313-0.391,6.653-0.478,9.982
					c-0.289,6.63-0.317,13.467-0.168,20.369c0.099,3.446,0.238,6.829,0.41,10.365c0,0,0,0,0.012,0.051
					c0.169,3.056,0.34,6.112,0.634,9.246c0.097,0.885,0.143,1.781,0.251,2.717c0.272,3.032,0.616,6.155,0.961,9.277
					c0.602,4.931,1.265,9.901,2.104,14.938C1144.01,1818.232,1182.236,1883.234,1245.927,1944.349z"/>
			</g>
			<g>
				<path style="fill:#D3D4E2;" d="M2788.939,1819.303c-0.758,3.352-1.68,6.633-2.602,9.914c-0.758,2.725-1.516,5.451-2.393,8.222
					c-0.84,3.003-1.737,6.001-2.799,8.927c-0.897,2.998-1.953,5.868-2.968,8.912c-0.02,0.226-0.097,0.447-0.174,0.668
					c-1.134,3.091-2.261,6.125-3.39,9.159c-1.974,5.467-4.277,10.79-6.637,16.108c-0.923,2.026-1.795,4.114-2.724,6.197
					c-1.688,3.554-3.376,7.108-5.121,10.657c-59.67,118.918-238.87,274.346-641.773,311.763
					c-48.067,4.513-96.421,5.865-144.648,4.548c-106.968-3.009-213.245-19.409-315.582-50.45
					c-183.257-55.537-322.801-133.71-412.226-219.574c-63.655-61.141-101.882-126.095-112.353-189.693
					c-0.858-5.037-1.496-9.997-2.081-14.896c-0.347-3.11-0.689-6.276-0.991-9.268c-0.083-0.977-0.177-1.84-0.265-2.76
					c-0.291-3.105-0.469-6.2-0.595-9.232c-0.052-0.062-0.052-0.062-0.052-0.062c-0.105-2.005-0.153-4.005-0.263-5.953
					c19.482,30.6,142.88,274.656,521.858,342.547C2426.526,2193.937,2697.252,1932.889,2788.939,1819.303z"/>
			</g>
			<g>
				<path style="fill:#000072;" d="M2349.749,833.921c-71.982-33.606-146.569-60.268-224.937-70.439
					c-197.957-25.718-430.435-5.206-597.357,112.417c-141.01,100.703-219.234,264.387-260.48,428.867
					c-10.519,40.338-19.651,86.324-28.128,127.534c-2.791,14.297-5.89,29.647-13.05,42.009
					c-15.129,27.576-30.582,52.886-43.012,81.224c-20.072,44.337-32.001,91.795-33.047,140.295
					c-2.479,95.403,43.851,170.674,111.175,235.205c142.123,132.335,332.789,201.883,518.885,247.437
					c35.392,6.981,71.921,14.628,107.198,21.133c5.073,0.948,8.418,5.828,7.473,10.901c-0.859,4.607-4.968,7.788-9.517,7.625
					c-74.198-3.274-147.761-13.403-219.206-33.345c-219.023-61.002-564.168-222.749-557.22-489.496
					c1.183-87.701,34.273-161.971,77.758-235.811c-0.001,0,2.472-4.544,2.472-4.544l2-4.128c4.264-9.256,4.784-17.179,7.061-26.98
					c0,0,8.703-43.005,8.703-43.005c34.852-174.236,98.544-352.176,228.43-478.735c151.635-150.216,377.786-192.976,584.186-184.538
					c59.387,3.397,119.566,10.515,176.79,27.179c57.619,17.015,111.892,42.313,162.627,72.764
					C2368.256,824.086,2360.782,838.56,2349.749,833.921L2349.749,833.921z"/>
			</g>
			<g>
				<path style="fill:#000072;" d="M2707.107,1222.393c92.974,193.675,176.496,510.583,59.211,707.673
					c-82.891,133.077-232.552,206.822-378.276,249.847c-87.423,24.201-177.782,42.06-268.792,39.22
					c-10.596-0.441-12.763-15.629-2.05-18.486c58.378-14.503,116.881-22.742,174.438-36.089
					c48.87-10.385,101.044-25.392,147.883-43.054c113.429-43.399,225.433-108.141,290.83-213.113
					c87.416-150.669,50.847-347.361,7.641-507.715c-15.527-57.09-33.073-113.767-48.337-171.721
					c-1.323-5.005,1.658-10.132,6.663-11.455C2700.693,1216.343,2705.168,1218.491,2707.107,1222.393L2707.107,1222.393z"/>
			</g>
			<g>
				<g>
					<path style="fill:#000072;" d="M1425.273,1166.091c-7.509-14.028,73.149-156.238,178.677-115.837
						c38.657,14.8,29.323,49.215,5.593,58.474c-22.588,8.813-56.247,5.426-85.084,14.918
						C1468.238,1142.15,1432.782,1180.119,1425.273,1166.091z"/>
				</g>
				<g>
					<path style="fill:#000072;" d="M2328.04,1259.008c10.681-13.94-51.813-183.222-173.96-158.036
						c-44.745,9.226-40.716,48.376-16.52,62.693c23.031,13.628,60.297,15.941,90.015,31.422
						C2285.511,1225.27,2317.359,1272.948,2328.04,1259.008z"/>
				</g>
			</g>
			<g>
				<path style="fill:#F27E80;" d="M2475.44,925.112c51.857,49.111,112.386,111.328,192.056,253.931
					c5.235-6.701,10.322-14.275,15.145-22.536c34.03-57.564,58.781-148.959,66.202-226.387c4.652-48.188,2.655-90.952-7.998-116.835
					C2716.2,753.27,2486.708,894.771,2475.44,925.112z"/>
			</g>
			<g>
				<path style="fill:#FF5C64;" d="M2475.44,925.112c51.857,49.111,112.386,111.328,192.056,253.931
					c5.235-6.701,10.322-14.275,15.145-22.536c-2.995-56.14-42.963-119.674-56.791-167.932
					c-28.696-100.119,50.188-155.466,77.461-143.386c16.163,7.166,37.096,61.26,45.532,84.932
					c4.652-48.188,2.655-90.952-7.998-116.835C2716.2,753.27,2486.708,894.771,2475.44,925.112z"/>
			</g>
			<g>
				<path style="fill:#000072;" d="M2667.486,1197.69c-0.469,0-0.942-0.017-1.416-0.054c-6.235-0.476-11.812-4.041-14.863-9.5
					c-77.622-138.97-135.713-199.441-188.564-249.47c-5.425-5.137-7.261-13.018-4.663-20.024
					c9.907-26.711,87.939-72.849,103.481-81.826c36.152-20.884,103.604-56.035,149.146-56.821
					c31.587-0.52,43.369,16.189,47.485,26.213l0,0c33.872,82.468-8.687,297.956-75.894,384.289
					C2678.653,1195.056,2673.209,1197.69,2667.486,1197.69z M2500.655,923.42c48.13,46.558,101.084,105.005,168.091,220.178
					c52.949-91.66,79.102-264.177,54.854-323.22c-0.898-2.19-5.742-2.83-8.545-3.015
					C2663.365,813.93,2535.562,891.381,2500.655,923.42z"/>
			</g>
			<g>
				<g>
					
						<ellipse transform="matrix(0.0901 -0.9959 0.9959 0.0901 311.8203 3602.759)" style="fill:#000072;" cx="2127.632" cy="1630.726" rx="147.11" ry="127.883"/>
				</g>
				<g>
					
						<ellipse transform="matrix(0.0901 -0.9959 0.9959 0.0901 247.5172 3595.2607)" style="fill:#FFFFFF;" cx="2091.379" cy="1662.169" rx="62.258" ry="43.001"/>
				</g>
				<g style="opacity:0.35;">
					
						<ellipse transform="matrix(0.9686 -0.2488 0.2488 0.9686 -329.8802 594.6293)" style="fill:#FFFFFF;" cx="2187.42" cy="1602.324" rx="29.385" ry="53.983"/>
				</g>
			</g>
			<g>
				<g>
					
						<ellipse transform="matrix(0.0362 -0.9993 0.9993 0.0362 -110.3883 3004.2456)" style="fill:#000072;" cx="1502.285" cy="1559.351" rx="147.044" ry="116.634"/>
				</g>
				<g>
					
						<ellipse transform="matrix(0.0189 -0.9998 0.9998 0.0189 -89.9644 3095.6055)" style="fill:#FFFFFF;" cx="1532.367" cy="1593.644" rx="62.221" ry="39.224"/>
				</g>
				<g style="opacity:0.35;">
					
						<ellipse transform="matrix(0.3006 -0.9538 0.9538 0.3006 -441.0058 2450.9482)" style="fill:#FFFFFF;" cx="1450.562" cy="1526.153" rx="53.718" ry="26.92"/>
				</g>
			</g>
			<g>
				<path style="fill:#000072;" d="M2550.347,1768.01c102.381-64.893,246.56-74.293,362.136-45.448
					c8.025,1.92,16.001,4.002,23.965,6.06c4.98,1.284,7.974,6.365,6.689,11.345c-1.206,4.668-5.747,7.59-10.413,6.88
					c-13.669-2.075-28.383-4.596-42.041-6.929c-24.971-2.832-51.99-5.354-77.227-6.115c-22.937-0.11-48.482,0.429-71.174,2.656
					c-62.574,6.38-124.887,21.319-182.173,47.436C2549.719,1789.582,2540.397,1774.822,2550.347,1768.01L2550.347,1768.01z"/>
			</g>
			<g>
				<path style="fill:#000072;" d="M2528.23,1887.859c114.758-21.315,247.522,7.343,326.536,97.501
					c7.584,8.916-4.897,20.932-13.492,12.87c-40.537-37.939-90.985-63.158-144.529-76.635
					c-53.824-13.54-110.817-17.428-166.204-15.284C2519.222,1906.705,2517.062,1890.309,2528.23,1887.859L2528.23,1887.859z"/>
			</g>
			<g>
				<g>
					<path style="fill:#000072;" d="M1866.477,1783.852c0,0-1.276,51.295-13.706,101.056c-12.712,50.716-37.053,99.782-83.53,91.265
						c-34.119-6.205-53.948-40.954-65.422-80.295c-17.153-58.629-15.818-127.475-15.818-127.475L1866.477,1783.852z"/>
				</g>
				<g>
					<path style="fill:#F27E80;" d="M1852.771,1884.907c-12.712,50.716-37.053,99.782-83.53,91.265
						c-34.119-6.205-53.948-40.954-65.422-80.295c7.502-3.071,15.563-5.051,24.041-5.772c17.779-1.513,34.702,2.74,48.932,11.207
						c12.593-10.75,28.556-17.802,46.283-19.311C1833.351,1881.126,1843.378,1882.187,1852.771,1884.907z"/>
				</g>
				<g>
					<path style="fill:#000072;" d="M1779.385,1993.434c-4.302,0.002-8.677-0.403-13.11-1.214
						c-95.83-17.542-95.005-203.057-94.6-224.153c0.176-8.899,7.446-15.994,16.309-15.994c0.102,0,0.21,0,0.317,0.002
						c9.004,0.171,16.167,7.612,16.001,16.619c-0.928,49.622,9.453,180.74,67.852,191.431c11.152,2.041,20.381-0.3,29.072-7.366
						c37.422-30.4,48.027-132.549,48.96-169.343c0.225-8.865,7.481-15.903,16.299-15.903c0.142,0,0.278,0,0.415,0.005
						c9.009,0.225,16.128,7.703,15.903,16.707c-0.371,15.068-5.234,148.523-60.986,193.843
						C1809.322,1988.229,1794.844,1993.434,1779.385,1993.434z"/>
				</g>
			</g>
			<g>
				<g>
					<path style="fill:#FFFFFF;" d="M1642.863,1737.548c0,0-2.258,56.756,26.068,71.75c43.17,22.852,81.958-3.161,102.066-26.785
						c0,0,33.079,64.908,97.049,42.917c37.415-12.862,54.912-59.287,54.912-59.287l-158.12-64.737L1642.863,1737.548z"/>
				</g>
			</g>
			<g>
				<g>
					<path style="fill:#D3D4E2;" d="M1668.946,1809.271c39.223,27.366,81.94-3.116,102.063-26.743c0,0,39.187,72.198,100.282,48.532
						c21.502-8.363,28.088-27.969,29.514-44.732c-84.588,31.954-127.874-94.235-127.874-94.235
						c-22.342,26.273-75.613,84.875-119.552,77.591C1652.095,1783.587,1654.651,1799.327,1668.946,1809.271z"/>
				</g>
			</g>
			<g>
				<path style="fill:#000072;" d="M1776.016,1709.253c-1.409,22.905,1.451,47.426,11.033,68.379
					c8.814,23.063-26.101,34.005-32,9.992c-4.357-20.62-3.811-41.646-0.188-62.146c1.216-6.687,2.644-12.961,4.7-19.807
					c1.34-4.463,6.045-6.995,10.505-5.654C1774.129,1701.228,1776.535,1705.221,1776.016,1709.253L1776.016,1709.253z"/>
			</g>
			<g>
				<path style="fill:#000072;" d="M1869.252,1705.878c-4.728,17.302-71.201,43.753-106.493,39.445
					c-37.88-4.624-75.134-39.889-78.019-57.383c-3.377-20.482,30.972-40.741,105.263-29.693
					C1850.769,1667.282,1874.435,1686.912,1869.252,1705.878z"/>
			</g>
			<g style="opacity:0.7;">
				<path style="fill:#FFFFFF;" d="M1786.614,1674.148c0.874,5.301-13.19,10.785-24.081,10.103
					c-6.177-0.387-28.348-2.037-29.307-7.844c-0.959-5.808,5.596-10.7,26.254-11.218
					C1778.264,1664.718,1785.74,1668.846,1786.614,1674.148z"/>
			</g>
			<g>
				<g>
					<path style="fill:#000072;" d="M1652.905,1737.947c3.539,19.338,6.794,42.657,21,54.998
						c38.304,21.692,76.115-6.856,97.998-38.744c0,0,14.017,20.706,14.017,20.706c38.299,59.893,97.715,47.615,127.634-12.308
						c2.332-5.3,8.693-7.646,13.858-4.955c4.446,2.292,6.455,7.439,4.951,12.043c-6.081,17.856-14.606,33.206-27.309,47.178
						c-46.28,49.684-120.161,32.002-148.977-26.746c-0.002,0.003,27.686,3.246,27.673,3.253
						c-11.465,14.529-26.05,26.782-43.994,34.729c-35.895,17.307-92.724,4.79-103.762-37.347c-5.471-18.12-5.92-35.249-3.172-53.605
						c0.906-5.51,6.106-9.243,11.616-8.34C1649.148,1729.575,1652.458,1733.451,1652.905,1737.947L1652.905,1737.947z"/>
				</g>
			</g>
		</g>
		<g>
			<g>
				<path style="fill:#FFFFFF;" d="M1850.835,2784.639H932.227c-31.617,0-57.248-25.631-57.248-57.248v-42.078h863.871
					L1850.835,2784.639z"/>
			</g>
			<g>
				<path style="fill:#FFFFFF;" d="M1850.824,2784.624h-918.6c-31.604,0-57.241-25.637-57.241-57.241v-42.091h0.513
					c3.682,28.014,27.688,49.689,56.728,49.689h862.665L1850.824,2784.624z"/>
			</g>
			<g>
				<path style="fill:#000072;" d="M1850.836,2803.285H932.227c-41.851,0-75.898-34.048-75.898-75.894v-42.08
					c0-10.298,8.35-18.647,18.648-18.647h863.872c4.561,0,8.96,1.675,12.373,4.697l111.987,99.326
					c5.791,5.142,7.808,13.325,5.059,20.566S1858.58,2803.285,1850.836,2803.285z M893.624,2703.959v23.433
					c0,21.284,17.314,38.599,38.604,38.599h869.487l-69.941-62.031H893.624z"/>
			</g>
			<g>
				<path style="fill:#FFFFFF;" d="M1738.86,2685.292l-157.458-6.246l-665.818-26.476h-0.373c-39.714,0-76.119-22.141-94.344-57.474
					l-282.008-547.795c1.725-27.315,13.891-51.693,32.489-69.22c18.552-17.526,43.583-28.294,70.991-28.387l724.504-3.216
					c64.885-0.28,123.71,38.083,149.581,97.607l159.835,367.403l81.386,187.104C1770.65,2628.564,1763.099,2663.43,1738.86,2685.292
					z"/>
			</g>
			<g>
				<path style="fill:#FFFFFF;" d="M1738.86,2685.292l-157.458-6.246c18.086-85.907,52.16-239.917,52.16-239.917
					s37.383,27.595,42.697-27.641l81.386,187.104C1770.65,2628.564,1763.099,2663.43,1738.86,2685.292z"/>
			</g>
			<g>
				<path style="fill:#000072;" d="M1738.848,2703.959c-0.244,0-0.493-0.005-0.742-0.015l-822.881-32.749c-0.044,0-0.088,0-0.132,0
					c-46.885,0-89.307-25.835-110.82-67.529l-281.982-547.813c-1.538-2.993-2.241-6.343-2.031-9.697
					c4.018-64.272,57.612-114.841,122.007-115.125l724.473-3.213c0.264,0,0.542-0.002,0.806-0.002
					c72.114,0,137.202,42.637,165.986,108.809l241.211,554.546c16.24,37.334,6.831,80.732-23.408,107.988
					C1747.901,2702.255,1743.453,2703.959,1738.848,2703.959z M915.577,2633.901c0.244,0,0.488,0.005,0.737,0.02l815.059,32.437
					c14.277-16.509,18.047-39.907,9.17-60.313l-241.211-554.546c-22.852-52.537-74.536-86.392-131.787-86.392
					c-0.215,0-0.425,0.003-0.64,0.003l-724.473,3.213c-43.193,0.19-79.409,32.873-84.512,75.276l279.502,542.983
					c15.068,29.214,44.81,47.324,77.671,47.324C915.26,2633.906,915.421,2633.901,915.577,2633.901z"/>
			</g>
			<g>
				<path style="fill:#FFFFFF;" d="M1738.86,2681.19l-863.877,3.822h-0.513c-39.668,0-76.026-22.141-94.204-57.427l-39.155-91.548
					l-196.753-459.883c-18.971-44.422,13.471-93.832,61.762-94.018l716.533-3.17c67.076-0.326,127.859,39.341,154.615,100.824
					l156.293,359.339L1738.86,2681.19z"/>
			</g>
			<g>
				<path style="fill:#FFFFFF;" d="M1738.86,2681.19l-863.877,3.822h-0.513c-39.668,0-76.026-22.141-94.204-57.427l-39.155-91.548
					c60.317,37.663,183.888,83.251,423.758,74.487c304.662-11.14,435.085-133.08,468.693-171.396L1738.86,2681.19z"/>
			</g>
			<g>
				<path style="fill:#000072;" d="M1322.637,1971.963c67.952-9.936,145.762,35.842,161.033,105.051
					c1.613,7.425-8.567,11.792-12.825,5.578c-26.732-37.311-59.603-69.786-103.343-85.36c-14.247-5.379-29.284-8.902-44.926-11.304
					C1314.667,1984.725,1314.73,1973.079,1322.637,1971.963L1322.637,1971.963z"/>
			</g>
			<g>
				<path style="fill:#000072;" d="M1588.496,2312.168c57.89,119.754,117.009,239.122,167.675,362.148
					c4.951,11.848-4.388,25.726-17.241,25.525c0,0-863.869,3.828-863.869,3.828c-22.83,0.364-45.85-5.676-65.576-17.458
					c-20.086-12.014-36.913-29.813-47.42-50.842c-44.122-100.081-91.309-212.055-134.871-313.081
					c-21.829-52.173-66.329-157.288-88.183-209.463c-3.56-9.404-14.576-32.357-16.653-42.465
					c-11.011-41.812,14.405-88.625,55.523-101.745c10.869-3.779,22.603-4.843,33.974-4.426c56.91,1.154,113.673,2.853,170.483,7.842
					c11.352,1.206,11.138,17.471,0.083,18.645c-56.767,5.487-113.509,7.693-170.407,9.35c-33.209-2.438-61.234,28.319-52.573,61.067
					c1.378,6.429,12.544,29.795,15.168,36.506c22.722,51.99,67.908,156.471,90.572,208.443
					c43.329,101.31,91.002,212.686,133.259,313.771c11.278,23.65,43.682,47.315,76.455,46.566
					c-0.001,0.001,863.871-3.827,863.871-3.827l-17.014,26.082c-7.107-15.01-13.958-30.132-20.554-45.364
					c-33.141-76.12-63.218-153.531-93.87-230.686c-12.231-30.882-24.15-61.9-35.93-92.976
					C1567.318,2308.527,1583.232,2301.809,1588.496,2312.168L1588.496,2312.168z"/>
			</g>
			<g>
				<path style="fill:#FFFFFF;" d="M2238.178,2784.639h-442.08c-31.617,0-57.248-25.631-57.248-57.248v-42.078h574.185
					c6.757,0,12.235,5.478,12.235,12.235l0,0C2325.27,2745.646,2286.277,2784.639,2238.178,2784.639z"/>
			</g>
			<g>
				<path style="fill:#FFFFFF;" d="M2325.25,2697.551c0,24.052-9.742,45.821-25.497,61.576
					c-15.755,15.755-37.523,25.497-61.576,25.497h-442.077c-31.604,0-57.241-25.637-57.241-57.241v-42.091h0.513
					c3.683,28.014,27.688,49.689,56.728,49.689h442.077c24.052,0,45.82-9.742,61.576-25.497
					c6.852-6.852,12.539-14.869,16.827-23.679C2321.615,2687.343,2325.25,2692.004,2325.25,2697.551z"/>
			</g>
			<g>
				<path style="fill:#000072;" d="M2238.179,2803.285h-442.08c-41.851,0-75.898-34.048-75.898-75.894v-42.08
					c0-10.298,8.35-18.647,18.647-18.647h574.185c17.026,0,30.884,13.857,30.884,30.884
					C2343.917,2755.849,2296.48,2803.285,2238.179,2803.285z M1757.496,2703.959v23.433c0,21.284,17.314,38.599,38.603,38.599
					h442.08c35.581,0,64.907-27.285,68.149-62.031H1757.496z"/>
			</g>
		</g>
		<g>
			<path style="fill:#13956E;" d="M2179.026,2639.378c-22.607-8.437-46.846-19.438-72.716-33.235
				c-9.462,14.543-48.104,82.552-147.39,71.924c-43.443-4.661-99.006-32.07-107.117-111.824
				c-1.491-15.149-1.352-32.209,0.979-51.367c5.314-44.189,21.162-82.971,45.308-114.761
				c65.584-86.374,192.604-120.867,336.918-70.199c0,0,17.526-34.307,22.281-72.203l249.425,70.619l0.932,0.28
				C2507.646,2328.61,2517.948,2765.932,2179.026,2639.378z"/>
		</g>
		<g>
			<path style="fill:#13956E;" d="M2179.026,2639.378c-22.607-8.437-46.846-19.438-72.716-33.235
				c-9.462,14.543-48.104,82.552-147.39,71.924c-43.443-4.661-99.006-32.07-107.117-111.824
				c16.175,21.722,47.312,49.503,100.031,47.872c114.435-3.543,131.029-102.735,182.07-98.633
				c50.995,4.102,123.524,98.167,249.472,35.566c77.517-38.502,110.379-132.94,123.337-222.716l0.932,0.28
				C2507.646,2328.61,2517.948,2765.932,2179.026,2639.378z"/>
		</g>
		<g>
			<path style="fill:#E8E8E8;" d="M2179.026,2639.378c-22.607-8.437-46.846-19.438-72.716-33.235
				c-9.462,14.543-48.104,82.552-147.39,71.924c-1.352-0.14-2.75-0.326-4.102-0.512c-0.14,0-0.233,0-0.326-0.047
				c-1.259-0.186-2.564-0.373-3.822-0.606c-1.398-0.233-2.843-0.466-4.242-0.792c-1.119-0.187-2.191-0.42-3.31-0.699
				c-1.911-0.419-3.822-0.932-5.733-1.445c-1.165-0.326-2.377-0.699-3.543-1.025c-3.869-1.212-7.784-2.61-11.607-4.242
				c-0.793-0.28-1.538-0.652-2.331-0.979c-4.801-2.144-9.556-4.615-14.217-7.505c-1.259-0.792-2.517-1.585-3.776-2.47
				c-1.491-0.979-2.89-2.004-4.335-3.076c-1.445-1.026-2.843-2.144-4.195-3.31c-1.398-1.165-2.75-2.331-4.102-3.589
				c-0.699-0.606-1.352-1.258-2.004-1.864c-2.004-1.911-3.916-3.962-5.78-6.06c-0.653-0.746-1.259-1.445-1.865-2.191
				c-3.076-3.636-5.92-7.598-8.623-11.84c-0.746-1.212-1.492-2.471-2.238-3.729c-1.958-3.356-3.776-6.945-5.454-10.721
				c-0.746-1.631-1.445-3.309-2.098-5.034c-0.14-0.373-0.28-0.746-0.466-1.119c-0.653-1.678-1.259-3.403-1.865-5.174
				c-0.373-1.212-0.746-2.377-1.119-3.636c-0.373-1.072-0.699-2.191-0.979-3.31c-0.14-0.513-0.28-1.025-0.419-1.538
				c-0.373-1.258-0.699-2.517-0.979-3.822c-0.14-0.559-0.233-1.119-0.373-1.631c-0.373-1.538-0.699-3.076-0.979-4.661
				c-0.42-2.097-0.792-4.288-1.119-6.526c-0.14-0.932-0.28-1.911-0.42-2.937c-0.233-1.865-0.466-3.776-0.699-5.687
				c16.222,21.721,47.359,49.456,100.031,47.825c114.435-3.543,131.029-102.735,182.07-98.633c8.064,0.653,16.641,3.543,25.87,7.691
				C2162.105,2561.022,2163.41,2600.783,2179.026,2639.378z"/>
		</g>
		<g>
			<path style="fill:#FFFFFF;" d="M2179.026,2639.378c-22.607-8.437-46.846-19.438-72.716-33.235
				c-9.462,14.543-48.104,82.552-147.39,71.924c-51.694-5.547-120.588-43.35-106.138-163.192
				c5.314-44.189,21.162-82.971,45.308-114.761c48.151-40.413,118.536-74.208,197.405-20.742
				C2188.768,2442.672,2140.57,2544.521,2179.026,2639.378z"/>
		</g>
		<g>
			<path style="fill:#D3D4E2;" d="M2179.026,2639.378c-22.607-8.437-46.846-19.438-72.716-33.235
				c-9.462,14.543-48.104,82.552-147.39,71.924c-1.352-0.14-2.75-0.326-4.102-0.512c-0.14,0-0.233,0-0.326-0.047
				c-1.259-0.186-2.564-0.373-3.822-0.606c-1.398-0.233-2.843-0.466-4.242-0.792c-1.119-0.187-2.191-0.42-3.31-0.699
				c-1.911-0.419-3.822-0.932-5.733-1.445c-1.165-0.326-2.377-0.699-3.543-1.025c-3.869-1.212-7.784-2.61-11.607-4.242
				c-0.793-0.28-1.538-0.652-2.331-0.979c-4.801-2.144-9.556-4.615-14.217-7.505c-1.259-0.792-2.517-1.585-3.776-2.47
				c-1.491-0.979-2.89-2.004-4.335-3.076c-1.398-1.072-2.843-2.144-4.195-3.31c-1.398-1.165-2.75-2.331-4.102-3.589
				c-0.699-0.606-1.352-1.258-2.004-1.864c-2.004-1.911-3.916-3.962-5.78-6.06c-0.653-0.746-1.259-1.445-1.865-2.191
				c-3.076-3.636-5.92-7.598-8.623-11.84c-0.746-1.212-1.492-2.471-2.238-3.729c-1.958-3.356-3.776-6.945-5.454-10.721
				c-0.746-1.631-1.445-3.309-2.098-5.034c-0.14-0.373-0.28-0.746-0.466-1.119c-0.653-1.678-1.259-3.403-1.865-5.174
				c-0.373-1.212-0.746-2.377-1.119-3.636c-0.373-1.072-0.699-2.191-0.979-3.31c-0.14-0.513-0.28-1.025-0.419-1.538
				c-0.373-1.258-0.699-2.517-0.979-3.822c-0.14-0.559-0.233-1.119-0.373-1.631c-0.373-1.538-0.699-3.076-0.979-4.661
				c-0.42-2.097-0.792-4.288-1.119-6.526c-0.14-0.932-0.28-1.911-0.42-2.937c-0.233-1.865-0.466-3.776-0.699-5.687
				c16.222,21.721,47.359,49.456,100.031,47.825c114.435-3.543,131.029-102.735,182.07-98.633c8.064,0.653,16.641,3.543,25.87,7.691
				C2162.105,2561.022,2163.41,2600.783,2179.026,2639.378z"/>
		</g>
		<g>
			<path style="fill:#000072;" d="M2516.943,2328.391c8.814,82.632-4.787,167.422-43.517,241.582
				c-83.45,154.798-245.007,127.352-375.87,52.63c0,0.001,24.397-6.281,24.397-6.281c-38.919,66.784-113.301,94.471-187.388,76.171
				c-105.494-27.754-117.872-141.821-88.917-231.379c46.645-144.449,201.459-196.284,339.897-164.495
				c18.906,4.093,37.426,9.522,55.637,15.723l-22.781,9.106c9.647-14.343,18.04-31.26,24.156-47.656
				c4.589-8.579,3.277-27.001,17.099-24.161c4.221,1.17,6.961,5.054,6.865,9.241c-0.576,27.357-5.766,53.612-14.914,79.546
				c-4.26,8.447-14.122,12.215-22.781,9.106c-16.812-5.71-33.833-10.706-51.096-14.446c-51.011-10.907-105.528-11.509-155.266,3.714
				c-65.958,19.382-120.791,69.985-141.367,135.891c-21.72,67.285-19.459,163.173,62.896,183.729
				c59.108,14.176,116.113-7.027,146.707-60.437c5.255-8.243,15.989-10.866,24.398-6.281c23.245,11.614,46.794,22.346,70.833,31.052
				c24.063,8.564,48.569,15.093,73.062,18.694c183.897,26.59,221.911-169.547,239.311-310.614
				C2499.153,2317.823,2515.511,2317.263,2516.943,2328.391L2516.943,2328.391z"/>
		</g>
		<g>
			<path style="fill:#000072;" d="M2140.625,2522.864c-2.521,31.854-5.931,61.254-17.795,91.963
				c-3.767,9.75-14.814,14.556-24.512,10.644c-11.037-4.279-15.254-18.314-8.496-27.996c7.124-10.432,13.222-23.347,18.532-36.541
				c5.3-13.321,10.043-27.407,13.916-41.187C2125.326,2509.053,2141.301,2511.844,2140.625,2522.864L2140.625,2522.864z"/>
		</g>
		<g>
			<path style="fill:#000072;" d="M2319.788,2386.934c-29.646-18.48-60.768-27.251-93.323-40.424
				c-24.753-11.246-6.486-46.786,17.081-33.147c28.646,17.986,61.817,35.128,87.206,58.492c3.892,3.4,4.29,9.313,0.887,13.207
				C2328.616,2388.518,2323.596,2389.204,2319.788,2386.934L2319.788,2386.934z"/>
		</g>
		<g>
			<path style="fill:#13956E;" d="M2594.067,3184.469c-23.027,86.374-61.11,186.731-134.012,176.663
				c-28.387-3.869-142.496-171.908-165.709-243.552c-27.641-85.442-36.125-159.09-30.858-221.458
				c20.65-245.883,255.299-315.849,374.628-237.446l186.265-215.911c37.756,64.979,70.945,159.37,84.929,259.308
				C2939.282,2915.373,2881.715,3153.751,2594.067,3184.469z"/>
		</g>
		<g>
			<path style="fill:#13956E;" d="M2594.067,3184.469c-23.027,86.374-61.11,186.731-134.012,176.663
				c-28.387-3.869-142.496-171.908-165.709-243.552c-27.641-85.442-36.125-159.09-30.858-221.458
				c42.744-7.738,98.12,1.538,165.709,51.274c199.037,146.551,305.454,91.548,367.682,50.295
				c72.903-48.338,101.337-191.346,112.431-295.619C2939.282,2915.373,2881.715,3153.751,2594.067,3184.469z"/>
		</g>
		<g>
			<path style="fill:#000072;" d="M2632.991,2666.475c-170.872-68.445-334.666,47.43-349.52,226.541
				c-7.841,77.271,7.704,156.76,32.601,229.617c25.622,60.024,62.558,116.081,101.182,168.838
				c13.882,17.814,29.852,39.363,46.573,51.377c-0.229-0.091-0.471-0.149-0.717-0.171c-0.168-0.024-0.771,0.005-0.203,0.032
				l1.89,0.159c46.144,4.006,71.77-52.012,87.105-88.388c9.646-23.98,17.288-49.234,24.157-74.82
				c2.077-7.65,8.604-12.927,16.038-13.735c37.192-4.485,73.831-12.3,108.208-25.618c231.536-87.896,224.335-387.877,154.22-585.249
				c-12.585-35.798-27.793-70.688-46.369-103.142c-11.612-21.285,19.246-39.798,32.368-18.51
				c75.33,136.538,110.846,308.002,86.784,462.68c-29.556,181.483-150.167,287.967-331.256,306.918
				c-0.007,0.014,16.077-13.786,16.034-13.717c-19.662,68.925-51.92,185.007-138.178,191.114
				c-6.126,0.053-12.481,0.051-18.543-1.244c-8.8-1.896-15.604-7.405-22.183-12.878c-36.97-35.088-64.754-78.019-92.486-120.153
				c-23.821-38.306-47.531-77.192-63.144-120.101c-22.575-69.201-37.04-142.526-34.337-215.645
				c4.351-142.042,90.197-269.952,235.533-296.608c28.478-5.164,58.063-6.004,86.713-0.245
				c28.459,5.864,56.309,17.866,77.773,37.371C2651.157,2658.145,2642.486,2670.837,2632.991,2666.475L2632.991,2666.475z"/>
		</g>
		<g>
			<path style="fill:#FFFFFF;" d="M2531.276,3256.85c1.332,11.139,9.33,64.984-26.797,96.078
				c-63.149,54.353-232.508,25.606-311.377-130.082c-55.762-110.075-53.587-240.963,50.189-282.574
				c70.737-28.363,160.481,53.961,198.785,153.686c0,0,17.489,30.871,47.573,74.427
				C2525.156,3219.796,2531.276,3256.85,2531.276,3256.85z"/>
		</g>
		<g>
			<path style="fill:#D3D4E2;" d="M2504.477,3352.928c-52.906,45.541-180.345,32.722-266.626-64.139
				c82.225,58.686,179.227,63.16,217.263,19.717c58.872-67.309-58.033-293.241-60.97-298.928
				c19.484,24.658,36.172,53.698,47.918,84.37c0,0,17.48,30.904,47.592,74.441c35.519,51.414,41.625,88.471,41.625,88.471
				C2532.584,3267.999,2540.602,3321.837,2504.477,3352.928z"/>
		</g>
		<g>
			<path style="fill:#000072;" d="M2540.532,3255.742c32.37,133.162-100.357,164.819-201.836,126.12
				c-92.124-32.908-158.884-114.672-187.673-206.335c-26.763-80.142-23.163-187.819,55.152-238.52
				c22.345-14.581,49.642-24.909,76.44-21.559c62.152,7.323,113.18,58.073,143.113,109.163
				c11.569,20.714,20.583,42.838,25.051,66.004c0.989,5.134-2.371,10.1-7.505,11.089c-4.004,0.773-7.911-1.101-9.9-4.404
				c-33.35-52.19-69.613-110.247-127.462-135.995c-20.329-8.287-40.409-9.719-58.294-1.068
				c-55.99,23.651-74.931,83.686-69.111,141.074c10.245,103.304,74.716,205.996,173.969,243.688
				c59.07,23.837,157.096,24.729,167.118-55.367c1.698-10.173,2.352-20.473,2.425-31.677c0.034-5.19,4.268-9.368,9.458-9.333
				C2535.86,3248.649,2539.525,3251.68,2540.532,3255.742L2540.532,3255.742z"/>
		</g>
		<g>
			<path style="fill:#000072;" d="M2608.333,3106.318c2.86,26.927,4.452,53.371,4.238,80.549
				c-0.975,24.799-37.013,24.511-37.561-0.333c2.205-13.991,6.456-27.654,8.654-41.933c2.344-12.722,4.4-25.711,6.048-38.474
				C2591.169,3095.223,2607.147,3095.477,2608.333,3106.318L2608.333,3106.318z"/>
		</g>
		<g>
			<path style="fill:#000072;" d="M1802.385,2391.487c-30.399-16.976-63.042-33.363-95.742-44.446
				c-25.102-9.681-9.437-45.93,14.842-34.211c33.269,18.203,62.428,39.797,91.589,63.381
				C1821.829,2383.523,1812.192,2397.212,1802.385,2391.487L1802.385,2391.487z"/>
		</g>
		<g>
			<g>
				<path style="fill:#F27E80;" d="M2386.672,3190.072c22.29,34.375,26.483,79.13,1.908,101.866
					c-34.029,31.483-85.858-0.903-107.096-33.657c-21.238-32.753-29.661-93.286,12.966-111.509
					C2325.232,3133.611,2364.382,3155.697,2386.672,3190.072z"/>
			</g>
		</g>
		<g>
			<g>
				<path style="fill:#F27E80;" d="M2371.809,3077.176c11.115,17.141,13.23,38.661,0.951,50.794s-38.458,6.264-53.402-16.782
					c-14.944-23.047-9.623-49.344,6.465-55.603C2341.911,3049.325,2360.695,3060.035,2371.809,3077.176z"/>
			</g>
		</g>
		<g>
			<g>
				<path style="fill:#F27E80;" d="M2292.641,3073.95c9.508,19.121,9.149,41.722-5.044,52.866
					c-14.193,11.144-40.685,1.938-53.468-23.771c-12.783-25.71-4.134-52.389,13.318-56.979
					C2264.898,3041.475,2283.134,3054.829,2292.641,3073.95z"/>
			</g>
		</g>
		<g>
			<g>
				<path style="fill:#F27E80;" d="M2255.692,3144.814c6.422,12.915,6.179,28.181-3.407,35.708
					c-9.586,7.527-27.48,1.309-36.115-16.056c-8.635-17.365-2.792-35.385,8.995-38.486
					C2236.952,3122.879,2249.27,3131.898,2255.692,3144.814z"/>
			</g>
		</g>
		<g>
			<circle style="fill:#000072;" cx="1828.431" cy="2734.975" r="15.95"/>
		</g>
		<g>
			<rect x="1898.35" y="2719.025" style="fill:#000072;" width="84.177" height="31.9"/>
		</g>
		<g>
			<path style="fill:#000072;" d="M2211.417,2743.407h-24.643c-4.153,0-7.519-3.366-7.519-7.519l0,0
				c0-4.153,3.366-7.519,7.519-7.519h24.643c4.153,0,7.519,3.366,7.519,7.519l0,0
				C2218.936,2740.041,2215.57,2743.407,2211.417,2743.407z"/>
		</g>
		<g>
			<path style="fill:#000072;" d="M2019.707,2610.198c3.425,9.886,15.573,38.526,28.2,34.622
				c24.363-10.16,40.204,24.748,16.489,36.384c-5.337,2.78-11.972,1.497-17.548,0.891c-10.21-1.103-19.519-6.294-25.444-12.407
				c-10.885-11.214-14.806-24.051-17.813-37.878c-0.9-9.106-7.51-26.931,6.523-28.589
				C2014.671,2602.96,2018.547,2606.014,2019.707,2610.198L2019.707,2610.198z"/>
		</g>
		<g>
			<path style="fill:#000072;" d="M1926.182,2610.51c3.502,17.468,10.087,45.091,30.133,48.621
				c29.311,5.552,16.083,47.718-11.293,35.539c-33.087-14.004-39.89-52.453-37.485-84.114
				C1908.573,2599.228,1925.089,2599.296,1926.182,2610.51L1926.182,2610.51z"/>
		</g>
		<g style="opacity:0.5;">
			<path style="fill:#FFFFFF;" d="M2369.689,2813.716c-3.839-29.077,29.003-91.417,79.242-117.492
				c77.66-40.307,143.95-21.798,151.629-7.785c8.774,16.011-40.992,21.769-128.079,71.754
				C2416.811,2792.145,2374.354,2849.054,2369.689,2813.716z"/>
		</g>
		<g>
			<g>
				<path style="fill:#FFFFFF;" d="M1143.917,2312.708c13.978,12.701,25.479,27.79,32.59,43.962
					c19.957,45.383-10.448,63.18-57.544,63.263c-47.113,0.083-93.112-17.58-113.068-62.963c-7.112-16.172-8.889-31.279-6.095-44.009
					c-3.969-3.166-7.917-6.708-11.768-10.608c-21.281-21.56-30.951-45.363-21.621-53.177c9.348-7.813,34.151,3.328,55.432,24.888
					c1.926,1.95,3.766,3.937,5.496,5.905c7.855-3.419,17.167-5.3,27.738-5.318s21.521,1.826,32.369,5.213
					c-0.002-1.972,0.089-3.961,0.298-5.915c2.284-21.602,17.258-32.812,33.458-25.044c16.182,7.768,27.445,31.569,25.145,53.17
					C1145.927,2305.984,1145.098,2309.534,1143.917,2312.708z"/>
			</g>
		</g>
		<g style="opacity:0.5;">
			<path style="fill:#FFFFFF;" d="M642.574,2023.982c100.617-20.143,528.33-29.136,625.171-6.004
				C1364.586,2041.109,558.313,2040.85,642.574,2023.982z"/>
		</g>
		<g>
			<g>
				<path style="fill:#FFFFFF;" d="M944.897,1136.131c24.101-39.433,35.985-86.769,30.9-136.29
					c-12.341-120.198-119.786-207.634-239.984-195.293C615.615,816.89,528.18,924.334,540.521,1044.533
					c12.341,120.198,119.786,207.634,239.984,195.292c33.433-3.433,64.318-14.242,91.24-30.619l101.246,22.706L944.897,1136.131z"/>
			</g>
			<g style="opacity:0.5;">
				<g>
					<path style="fill:#FFFFFF;" d="M740.112,846.407c112.282-11.529,213.409,64.02,236.306,171.999
						c0.027-7.713-0.305-15.495-1.111-23.34c-12.341-120.198-119.785-207.634-239.984-195.292
						c-120.198,12.341-207.634,119.786-195.293,239.984c0.809,7.879,2.05,15.608,3.653,23.188
						C544.107,952.519,627.793,857.939,740.112,846.407z"/>
				</g>
			</g>
			<g>
				<path style="fill:#000072;" d="M757.716,1260.241c-54.512,0-106.938-18.557-149.795-53.433
					c-49.316-40.132-80.049-97.063-86.543-160.31c-6.494-63.247,12.031-125.237,52.163-174.551
					c40.132-49.314,97.061-80.049,160.308-86.543c63.257-6.487,125.239,12.031,174.551,52.161
					c49.312,40.132,80.049,97.063,86.538,160.31c5.073,49.36-5.024,97.859-29.233,140.82l25.752,87.803
					c1.919,6.538,0.234,13.604-4.429,18.577c-4.658,4.976-11.592,7.122-18.247,5.615l-93.853-21.047
					c-28.511,16.094-59.57,25.95-92.461,29.326C774.19,1259.819,765.924,1260.241,757.716,1260.241z M758.536,822.624
					c-6.89,0-13.809,0.354-20.752,1.067c-53.022,5.444-100.752,31.208-134.394,72.549c-33.638,41.34-49.17,93.308-43.726,146.328
					c5.444,53.02,31.211,100.747,72.549,134.387c41.343,33.642,93.345,49.175,146.323,43.728
					c29.79-3.059,57.783-12.451,83.208-27.917c4.258-2.59,9.355-3.425,14.209-2.336l69.38,15.559l-18.901-64.441
					c-1.528-5.208-0.781-10.82,2.046-15.452c22.935-37.517,32.676-80.496,28.179-124.287c-5.444-53.023-31.211-100.75-72.549-134.39
					C848.179,838.183,804.224,822.624,758.536,822.624z"/>
			</g>
			<g style="opacity:0.3;">
				<path style="fill:#000072;" d="M946.125,1134.03c-59.926,50.687-142.481,72.883-224.462,52.479
					c-90.918-22.628-157.906-91.861-182-175.886c-0.576,11.141-0.317,22.466,0.858,33.909
					c12.341,120.198,119.786,207.634,239.984,195.292c33.433-3.433,64.318-14.242,91.24-30.619l101.247,22.706l-28.094-95.781
					C945.32,1135.439,945.71,1134.727,946.125,1134.03z"/>
			</g>
			<g>
				<path style="fill:#FF0068;" d="M828.118,960.751L828.118,960.751c-18.934-18.934-49.632-15.541-68.565,3.393l-2.947,2.947
					l-2.947-2.947c-18.934-18.934-49.632-22.326-68.565-3.393l0,0c-18.934,18.934-18.934,49.631,0,68.565l2.947,2.947l59.528,59.527
					c4.991,4.991,13.084,4.991,18.076,0l59.527-59.527l2.947-2.947C847.052,1010.383,847.052,979.685,828.118,960.751z"/>
			</g>
		</g>
		<g style="opacity:0.2;">
			<ellipse style="fill:#000072;" cx="2040.019" cy="3521.787" rx="1025.057" ry="48.891"/>
		</g>
	</g>
</g>
</svg>
