<?xml version="1.0" encoding="utf-8"?>
<!-- Generator: Adobe Illustrator 27.5.0, SVG Export Plug-In . SVG Version: 6.00 Build 0)  -->
<svg version="1.1" id="Layer_1" xmlns="http://www.w3.org/2000/svg" xmlns:xlink="http://www.w3.org/1999/xlink" x="0px" y="0px"
	 viewBox="0 0 4000 4000" style="enable-background:new 0 0 4000 4000;" xml:space="preserve">
<g>
	<rect style="fill:transparent;" width="4000" height="4000"/>
	<g>
		<g style="opacity:.1;">
			<ellipse style="fill:#000072;" cx="2020.274" cy="3351.954" rx="1134.618" ry="153.046"/>
		</g>
		<g>
			<g>
				<g>
					<path style="fill:#cfc9bf;" d="M1218.407,3281.685c-263.171,17.707-387.648-148.365-349.541-478.345
						c14.748-103.37,5.475-179.627-23.579-231.82c-33.471-60.273-93.302-88.489-172.916-89.505
						c-48.749-0.618-93.567-29.894-111.406-75.286c-3.753-9.582-6.314-19.694-7.418-30.159c-0.883-8.213-0.883-16.647,0.177-25.169
						c0.176-1.634,0.397-3.312,0.706-4.99c3.93-23.447,15.808-47.468,38.195-69.988c25.036-25.169,57.403-41.463,91.977-49.676
						c148.939-35.458,303.265,44.112,385.175,177.199c41.551,67.471,64.468,148.762,58.551,235.795
						c-0.486,7.021-1.722,13.953-3.224,20.797c-8.081,36.915-12.01,69.281-12.099,97.453c0,5.784,0.133,11.348,0.441,16.735
						c3.489,64.424,29.099,104.915,71.401,127.17l29.761,337.045L1218.407,3281.685z"/>
				</g>
				<g>
					<path style="fill:#FFFFFF;" d="M1069.777,2403.947c-56.299-2.561-114.939,22.829-155.916,63.188
						c-30.026,29.541-52.105,65.528-68.575,104.385c-33.471-60.273-93.302-88.489-172.916-89.505
						c-48.749-0.618-93.567-29.894-111.406-75.286c-15.411-39.211-10.862-87.474,31.66-130.305
						c25.036-25.169,57.403-41.463,91.977-49.676C833.541,2191.29,987.867,2270.86,1069.777,2403.947z"/>
				</g>
				<g>
					<path style="fill:#000072;" d="M1181.086,3300.634c-103.545,0-184.853-30.308-242.085-90.332
						c-79.844-83.75-109.346-221.357-87.676-409.004c16.328-114.487,3.208-197.251-38.945-246.47
						c-30.674-35.815-77.852-54.375-140.215-55.161c-56.284-0.708-107.578-35.464-127.637-86.479
						c-20.298-51.621-7.329-106.006,35.576-149.199c25.986-26.167,60.708-44.995,100.4-54.443
						c108.384-25.791,223.887,4.604,316.909,83.354c101.938,86.304,157.461,216.411,148.521,348.032
						c-0.479,7.065-1.606,14.497-3.56,23.394c-25.83,117.783-9.243,190.381,50.718,221.938c5.313,2.798,8.838,8.096,9.365,14.077
						l33.54,379.79c0.42,4.727-1.084,9.429-4.17,13.037c-3.091,3.608-7.5,5.82-12.236,6.138
						C1206.438,3300.195,1193.596,3300.634,1181.086,3300.634z M757.048,2235.917c-22.939,0-45.83,2.632-68.364,7.993
						c-33.286,7.925-62.168,23.472-83.516,44.971c-44.604,44.907-36.543,89.058-27.768,111.377
						c14.863,37.803,53.125,63.555,95.215,64.087c72.969,0.918,129.019,23.633,166.597,67.505
						c49.053,57.275,64.912,149.448,47.143,273.97c-20.347,176.265,5.947,304.312,78.213,380.103
						c53.467,56.079,132.354,82.671,234.634,79.063l-31.113-352.31c-68.105-41.523-88.369-127.549-60.215-255.918
						c1.563-7.144,2.461-12.93,2.817-18.213c8.184-120.474-42.695-239.604-136.103-318.682
						C909.758,2264.975,833.195,2235.917,757.048,2235.917z"/>
				</g>
				<g style="opacity:0.3;">
					<g>
						<path style="fill:#000072;" d="M1124.752,2732.249c-1.678-1.634-3.356-3.224-5.078-4.813l6.712-6.138
							C1125.9,2724.963,1125.37,2728.628,1124.752,2732.249z"/>
					</g>
				</g>
				<g style="opacity:0.2;">
					<g>
						<path style="fill:#000072;" d="M1214.61,3238.941c-257.21,9.847-378.243-153.752-340.18-472.516
							c15.057-101.957,5.608-177.155-24.021-228.597c-34.133-59.435-95.157-87.297-176.36-88.268
							c-49.676-0.618-95.378-29.496-113.57-74.227c-3.135-7.639-5.431-15.676-6.756-23.933c-0.353-1.943-0.618-3.886-0.839-5.829
							c0.53,0.309,1.016,0.574,1.545,0.839c30.777,17.133,64.954,28.392,100.279,32.146c53.032,5.74,108.139-4.062,159.139,11.172
							c59.523,17.75,104.121,67.824,128.539,123.284c24.463,55.416,31.528,116.308,37.533,176.271
							c4.063,40.006,14.218,88.445,53.694,101.206c27.2,8.831,58.021-5.254,75.551-27.244c1.369-1.722,2.649-3.444,3.842-5.255
							c0,5.784,0.133,11.348,0.441,16.735c3.489,64.424,29.099,104.915,71.401,127.17L1214.61,3238.941z"/>
					</g>
				</g>
			</g>
			<g>
				<g>
					<g>
						<path style="fill:#FFFFFF;" d="M1485.126,3297.363l-41.61-364.841c201.372,191.52,457.838,280.055,777.829,249.844
							l-11.195,140.007L1485.126,3297.363z"/>
					</g>
					<g style="opacity:0.2;">
						<path style="fill:#000072;" d="M1485.126,3297.363l-41.61-364.841c201.372,191.52,457.838,280.055,777.829,249.844
							l-11.195,140.007L1485.126,3297.363z"/>
					</g>
				</g>
				<g>
					<g>
						<path style="fill:#cfc9bf;" d="M1590.644,3268.703c-14.351,76.346-59.478,124.167-121.385,123.373h-239.415
							c-24.154,0-47.689-9.715-63.497-27.995c-11.348-13.114-17.53-28.525-19.605-44.686c-1.325-10.067-1.016-20.4,0.618-30.6
							c2.428-15.322,7.86-30.379,15.411-43.979c6.094-10.995,13.6-21.018,22.078-29.364c-1.59-3.047-3.135-6.049-4.681-9.096
							c-12.364-24.33-22.917-48.749-31.616-72.858c-46.938-129.554-41.065-250.807,21.151-312.273
							c32.587-32.19,80.673-47.954,144.7-39.961l34.354,13.688c73.741,29.452,129.731,91.403,151.632,167.75
							c8.566,30.071,17.751,59.611,27.642,88.533c8.257,24.198,17,47.954,26.317,71.18c8.036,20.135,16.514,39.829,25.434,59.125
							C1592.411,3208.739,1596.208,3239.25,1590.644,3268.703z"/>
					</g>
					<g style="opacity:0.6;">
						<path style="fill:#FFFFFF;" d="M1500.758,3382.631h-239.415c-24.154,0-47.689-9.714-63.497-27.995
							c-11.348-13.114-17.53-28.525-19.605-44.686c-1.325-10.068-1.016-20.4,0.618-30.6c2.429-15.322,7.86-30.38,15.411-43.98
							c6.094-10.995,13.6-21.018,22.078-29.364c-1.59-3.047-3.135-6.049-4.681-9.096c-12.364-24.33-22.917-48.749-31.616-72.858
							c-46.938-129.555-41.065-250.808,21.151-312.273c12.292-12.142,26.795-21.939,43.521-29.013
							c-30.571,5.954-55.577,19.252-75.02,38.458c-62.216,61.466-68.089,182.719-21.151,312.273
							c8.699,24.109,19.252,48.528,31.616,72.858c1.545,3.047,3.091,6.049,4.681,9.096c-8.478,8.346-15.985,18.369-22.078,29.364
							c-7.551,13.6-12.982,28.657-15.411,43.979c-1.634,10.2-1.943,20.533-0.618,30.6c2.075,16.161,8.257,31.572,19.605,44.686
							c15.808,18.281,39.343,27.995,63.497,27.995h239.415c17.421,0.224,33.512-3.403,47.963-10.431
							C1511.878,3382.362,1506.39,3382.703,1500.758,3382.631z"/>
					</g>
					<g>
						<path style="fill:#FFFFFF;" d="M1590.644,3268.703c-14.351,76.346-59.478,124.167-121.385,123.373h-239.415
							c-24.154,0-47.689-9.715-63.497-27.995c-11.348-13.114-17.53-28.525-19.605-44.686c4.239-25.081,9.582-49.985,16.029-74.58
							c1.501-5.829,3.091-11.657,4.725-17.486l-1.281,1.457c1.899-8.787,7.153-16.47,13.953-22.431
							c3.4-3.003,7.153-5.564,11.083-7.683c11.922-6.358,25.39-8.919,38.725-10.906c49.941-7.374,100.941-7.286,150.838,0.309
							c24.418,3.709,49.102,9.229,73.608,5.873c29.099-3.974,55.416-20.444,75.816-41.595c8.92-9.229,16.868-19.296,24.109-29.938
							c8.036,20.135,16.514,39.829,25.434,59.125C1592.411,3208.739,1596.208,3239.25,1590.644,3268.703z"/>
					</g>
					<g>
						<path style="fill:#000072;" d="M1229.865,3409.745c-30.103,0-58.125-12.432-76.88-34.106
							c-41.104-47.524-26.831-118.535,10.537-163.062c-74.229-147.305-84.541-295.703-25.757-380.63
							c26.328-38.032,78.755-80.747,178.813-68.223c1.494,0.186,2.954,0.562,4.355,1.118l34.351,13.706
							c78.262,31.24,138.848,98.257,162.065,179.268c0,0,0,0,0,0.005c23.794,83.027,49.458,153.779,78.457,216.299
							c14.248,30.708,18.462,64.551,12.197,97.871c-16.001,85.137-68.501,137.754-137.231,137.754c-0.576,0-1.152-0.005-1.729-0.01
							L1229.865,3409.745z M1283.02,2796.889c-51.201,0-91.025,18.789-116.206,55.166c-52.046,75.186-38.511,217.92,33.682,355.171
							c3.623,6.885,2.314,15.322-3.218,20.791c-32.627,32.222-47.471,89.941-17.573,124.512
							c12.036,13.911,30.317,21.895,50.161,21.895l239.404-0.01c0.42,0.005,0.84,0.005,1.26,0.005
							c51.636,0,89.917-40.625,102.759-108.955c4.897-26.045,1.606-52.485-9.521-76.479
							c-29.78-64.194-56.069-136.626-80.371-221.436c-20.234-70.581-73.018-128.97-141.206-156.187l-32.207-12.852
							C1300.686,2797.426,1291.682,2796.889,1283.02,2796.889z"/>
					</g>
					<g>
						<path style="fill:#000072;" d="M1174.539,3201.121c73.994-53.675,173.251-36.302,254.712-12.449
							c4.136,1.276,6.455,5.661,5.181,9.795c-1.113,3.618-4.613,5.847-8.237,5.492c-41.431-3.695-82.539-7.393-122.419-5.181
							c-38.355,2.1-76.781,10.015-108.586,31.002C1176.135,3242.236,1156.696,3215.293,1174.539,3201.121L1174.539,3201.121z"/>
					</g>
					<g>
						<path style="fill:#000072;" d="M1343.474,3393.853c-14.625-45.242-13.162-101.389,23.556-136.378
							c7.257-7.139,18.531,2.648,12.52,10.817c-25.997,33.151-20.434,76.998-2.99,113.183
							C1386.069,3404.624,1351.548,3417.626,1343.474,3393.853L1343.474,3393.853z"/>
					</g>
					<g>
						<path style="fill:#000072;" d="M1200.991,3393.292c-10.176-35.013-13.78-76.047,2.493-110.419
							c5.317-11.484,12.57-21.887,21.035-30.767c3.159-3.315,8.408-3.441,11.724-0.281c3.059,2.912,3.403,7.614,0.957,10.919
							c-26.26,35.018-20.392,80.654-2.953,118.627C1243.351,3404.607,1208.77,3417.083,1200.991,3393.292L1200.991,3393.292z"/>
					</g>
					<g style="opacity:0.2;">
						<g>
							<path style="fill:#000072;" d="M1590.644,3268.703c-14.351,76.346-59.478,124.167-121.385,123.373h-239.415
								c-24.154,0-47.689-9.715-63.497-27.995c-11.348-13.114-17.53-28.525-19.605-44.686c-1.325-10.067-1.016-20.4,0.618-30.6
								c20.842,24.595,47.954,43.891,78.289,54.842c50.073,18.06,107.962,13.026,154.149-13.379
								c26.406-15.057,49.985-38.593,56.167-68.354c6.182-29.761-10.553-65.086-40.226-71.798
								c8.522-69.546,16.956-140.726,1.457-209.08c-15.499-68.31-60.008-134.367-126.684-155.872
								c-32.587-10.509-66.764-9.67-100.809-3.93c32.587-32.19,80.673-47.954,144.7-39.961l34.354,13.688
								c73.741,29.452,129.731,91.403,151.632,167.75c8.566,30.071,17.751,59.611,27.642,88.533
								c8.257,24.198,17,47.954,26.317,71.18c8.036,20.135,16.514,39.829,25.434,59.125
								C1592.411,3208.739,1596.208,3239.25,1590.644,3268.703z"/>
						</g>
					</g>
				</g>
			</g>
			<g>
				<g>
					<path style="fill:#166d00;" d="M2696.847,2670.165c-4.813,13.512-7.551,27.642-8.301,41.948l-1.413,25.831
						c-4.504,84.427-62.304,156.622-143.729,179.451l-93.832,26.273c-38.019,10.642-73.034,30.644-100.456,59.125
						c-176.007,182.851-543.21,202.986-841.795-31.704c-24.463-19.252-41.286-46.408-47.689-76.788
						c-0.265-1.016-0.486-2.031-0.662-3.047c-1.148-6.049-2.208-12.055-3.179-18.015c-2.428-14.395-4.46-28.657-6.138-42.743
						c-1.81-15.057-3.179-29.938-4.151-44.598c-1.325-19.164-1.943-38.019-1.987-56.608c-0.132-74.271,9.67-143.993,26.715-209.698
						c21.416-82.616,54.312-158.962,93.39-230.231c11.569-20.974,27.2-38.99,45.79-52.988c5.122-3.93,10.509-7.506,16.073-10.818
						c20.179-11.878,42.92-19.517,66.941-21.99c239.68-24.948,461.389-26.803,644.593,20.753
						c19.694,5.122,38.946,10.818,57.712,17.089c17.839,9.449,35.325,19.385,52.325,29.85
						C2621.163,2378.115,2745.463,2534.208,2696.847,2670.165z"/>
				</g>
				<g style="opacity:0.6;">
					<g>
						<path style="fill:#FFFFFF;" d="M2311.165,3024.188c-22.827,23.715-48.894,44.666-77.586,62.706
							c43.944-22.095,83.013-50.31,115.538-84.1c9.442-9.807,19.837-18.532,30.892-26.292
							C2354.31,2987.875,2330.775,3003.821,2311.165,3024.188z"/>
					</g>
					<g>
						<path style="fill:#FFFFFF;" d="M2447.055,2271.257c-17-10.465-34.486-20.4-52.325-29.85
							c-18.766-6.27-38.019-11.966-57.712-17.089c-183.204-47.556-404.913-45.702-644.593-20.753
							c-24.021,2.473-46.762,10.112-66.941,21.99c-5.355,3.187-10.532,6.637-15.481,10.394c14.068-5.632,28.997-9.397,44.47-10.99
							c239.68-24.948,461.389-26.803,644.593,20.754c19.693,5.122,38.946,10.818,57.712,17.088
							c17.839,9.449,35.325,19.385,52.325,29.85c174.108,106.858,298.408,262.95,249.792,398.908
							c-4.813,13.512-7.551,27.642-8.302,41.948l-1.413,25.831c-3.245,60.828-34.16,115.3-81.64,149.541
							c68.511-29.198,115.547-95.122,119.591-170.936l1.413-25.831c0.75-14.307,3.488-28.437,8.301-41.948
							C2745.463,2534.208,2621.163,2378.115,2447.055,2271.257z"/>
					</g>
				</g>
				<g style="opacity:0.4;">
					<g>
						<path style="fill:#000072;" d="M2220.313,2855.886c-9.626,56.431-19.252,112.819-28.878,169.251
							c-4.548,26.538-10.112,55.107-29.894,73.344c-11.657,10.774-26.936,16.603-42.081,21.239
							c-81.954,25.257-170.531,23.005-254.296,4.857c-83.809-18.192-163.422-51.795-240.784-88.71
							c-47.998-22.917-96.526-48.086-131.806-87.871c-13.865-15.631-25.302-34.044-32.941-53.694
							c-8.036-20.532-11.878-42.434-9.979-63.806c0.927-10.156,3.135-20.179,6.8-29.894l0.132-0.706
							c-3.797-4.548-7.639-9.14-11.083-13.998c-1.325-19.164-1.943-38.019-1.987-56.608c1.678-1.413,3.577-2.605,5.696-3.532
							c7.904-3.444,16.912-2.296,25.434-1.104c242.727,34.089,485.41,68.177,728.092,102.222c4.681,0.662,9.67,1.457,13.291,4.504
							C2222.653,2837.031,2221.77,2847.32,2220.313,2855.886z"/>
					</g>
				</g>
				<g>
					<path style="fill:#000072;" d="M1980.368,3161.215c-2.119,0-4.238-0.01-6.367-0.034
						c-165.439-1.582-335.049-64.17-477.593-176.221c-28.613-22.5-48.066-54.614-54.775-90.435
						c-39.414-210.381-4.575-411.108,106.504-613.652c29.15-53.145,82.402-88.608,142.451-94.863
						c309.243-32.207,534.766-19.927,709.761,38.662c0.913,0.303,1.802,0.684,2.651,1.133
						c197.368,104.37,369.912,284.087,310.474,450.317c-4.165,11.65-6.626,24.072-7.315,36.919l-1.382,25.859
						c-4.912,92.051-67.857,170.61-156.621,195.479l-93.799,26.284c-35.991,10.088-67.983,28.892-92.52,54.38
						C2272.238,3108.119,2133.488,3161.215,1980.368,3161.215z M1993.225,2203.91c-89.785,0-188.916,5.771-298.975,17.236
						c-48.521,5.054-91.563,33.73-115.137,76.714c-108.481,197.798-141.133,385.327-102.764,590.161
						c5.137,27.397,20.015,51.963,41.895,69.165c136.436,107.261,298.418,167.163,456.099,168.672
						c145.747,1.313,277.915-47.915,362.046-135.313c28.892-30.02,66.392-52.114,108.438-63.896l93.799-26.284
						c74.175-20.781,126.773-86.426,130.879-163.35l1.382-25.864c0.874-16.265,4.009-32.051,9.326-46.924
						c51.914-145.19-114.976-312.295-292.446-406.519C2279.558,2221.698,2150.803,2203.91,1993.225,2203.91z"/>
				</g>
				<g>
					<path style="fill:#166d00;" d="M1648.313,2830.099c-22.917,27.465-57.006,43.141-92.728,43.141h-122.313
						c-32.941,0-64.998-10.907-91.094-31.042l-14.042-10.819c-39.476-30.423-66.234-74.712-74.094-123.946
						c-32.632-204.532,15.101-316.071,142.89-441.96c25.081-24.728,53.252-49.985,84.515-76.655
						c50.603,12.938,94.274,28.481,127.965,47.556c69.767,39.432,96.967,94.097,55.284,172.474
						c-16.47,18.766-24.109,54.224-26.008,100.455c-0.177,4.725-1.854,9.097-4.504,12.629c-0.751,1.016-1.546,1.943-2.429,2.782
						c-4.062,3.93-9.538,6.314-15.631,6.314C1698.077,2624.419,1726.602,2736.178,1648.313,2830.099z"/>
				</g>
				<g style="opacity:0.6;">
					<path style="fill:#FFFFFF;" d="M1593.159,2866.558h-122.313c-32.941,0-64.998-10.907-91.094-31.042l-14.042-10.818
						c-39.476-30.424-66.234-74.712-74.094-123.947c-32.631-204.532,15.101-316.071,142.89-441.96
						c21.022-20.726,44.245-41.836,69.61-63.826c-7.407-2.105-14.927-4.168-22.669-6.147c-31.263,26.67-59.434,51.928-84.515,76.655
						c-127.788,125.889-175.521,237.428-142.89,441.96c7.86,49.234,34.619,93.523,74.094,123.946l14.042,10.819
						c26.096,20.135,58.154,31.042,91.094,31.042h122.313c13.728,0,27.207-2.336,39.911-6.746
						C1594.716,2866.509,1593.94,2866.558,1593.159,2866.558z"/>
				</g>
				<g style="opacity:0.3;">
					<g>
						<path style="fill:#000072;" d="M1648.322,2729.782c-22.917,27.465-57.006,43.141-92.728,43.141h-122.313
							c-32.941,0-64.998-10.906-91.094-31.042l-14.042-10.818c-39.476-30.424-66.234-74.712-74.094-123.947
							c-3.451-21.627-5.947-42.158-7.6-61.833c-4.711,47.602-2.22,100.651,7.591,162.149c7.86,49.234,34.619,93.523,74.094,123.946
							l14.042,10.819c26.096,20.135,58.154,31.042,91.094,31.042h122.313c35.723,0,69.811-15.676,92.728-43.141
							c44.967-53.945,54.643-113.773,39.25-172.627C1680.453,2682.299,1667.657,2706.586,1648.322,2729.782z"/>
					</g>
				</g>
				<g>
					<path style="fill:#000072;" d="M1492.905,2202.258c-83.331,72.953-168.819,149.702-207.535,255.195
						c-2.572,8.046-8.5,25.27-10.034,33.266c-1.181,5.702-3.943,16.955-5.17,22.635c-1.311,7.473-3.77,26.79-4.92,34.629
						c-0.64,13.407-2.427,33.697-1.809,46.959c-0.021,30.866,2.93,64.185,7.471,94.717c4.557,55.256,34.624,103.894,80.079,135.173
						c20.877,16.808,46.832,27.233,73.61,29.021c6.068,0.485,16.738,0.331,23.162,0.378l97.766,0.237l6.111,0.015
						c43.994,1.395,77.41-22.287,98.947-59.299c13.735-21.502,22.618-46.695,24.783-72.116
						c5.346-57.049-20.106-111.952-53.957-157.209c-5.61-7.983-12.382-15.452-18.528-23.085
						c-3.023,6.248,25.198-55.662,13.306-29.451c2.537-0.033,4.67-2.078,5.813-4.308c3.676-19.465,7.477-39.008,12.961-58.134
						c5.064-16.321,11.56-33.154,24.3-46.791c2.727-2.919,7.302-3.074,10.222-0.348c2.712,2.534,3.037,6.666,0.881,9.58
						c-13.153,17.672-15.931,43.192-16.766,65.441c-0.385,11.127,1.426,22.573,1.505,33.734
						c-0.542,19.895-18.751,36.335-38.475,36.21c-12.011,26.283,15.513-35.808,12.859-29.272l0.256,0.305
						c12.243,14.388,24.637,29.678,34.834,45.648c30.833,46.346,52.506,103.919,47.07,160.906
						c-3.16,40.033-19.993,78.727-44.861,109.992c-26.16,36.059-70.855,56.888-115.151,55.711c0,0-6.111,0.015-6.111,0.015
						l-97.766,0.236c-17.411,0.246-35.872-0.067-52.947-4.365c-35.979-7.851-64.803-28.913-92.139-52.979
						c-39.645-35.631-64.654-87.042-69.528-139.885c-2.09-14.672-4.783-35.1-5.576-49.719c-2.183-19.312-2.063-43.445-2.376-62.931
						c0.358-8.207,1.765-29.618,2.197-38.055c1.348-8.627,3.833-29.572,5.418-37.952c1.53-6.175,4.201-18.833,5.716-25.021
						c1.424-8.969,8.737-28.007,11.34-36.825c2.224-7.306,7.016-16.58,9.846-23.718c16.75-38.977,41.473-74.771,67.967-107.069
						c43.137-51.494,92.353-95.896,142.309-138.352c7.434-6.317,18.582-5.413,24.897,2.021
						C1501.19,2184.818,1500.293,2195.94,1492.905,2202.258L1492.905,2202.258z"/>
				</g>
				<g>
					<path style="fill:#000072;" d="M1604.922,2544.685c-40.533-35.391-101.656-23.06-150.505-12.26
						c-18.269,4.332-36.502,9.417-54.71,14.749c-7.881,2.249-11.969-9.225-4.316-12.421c17.717-7.117,35.583-14.036,53.835-20.286
						c37.653-12.557,76.096-23.552,117.053-19.883c20.98,1.962,43.049,9.199,61.201,22.906
						C1646.463,2532.905,1623.635,2560.52,1604.922,2544.685L1604.922,2544.685z"/>
				</g>
				<g>
					<path style="fill:#000072;" d="M2332.566,2996.617c30.527-87.986,56.552-178.902,71.523-270.77
						c11.674-68.991,15.37-138.75,14.909-208.575c0.001,0-0.453-35.028-0.453-35.028c-0.286-11.694-0.818-23.395-0.696-35.242
						c-0.18-5.346,4.15-9.851,9.524-9.772c4.36,0.045,7.998,3.054,9.028,7.087c6.061,23.337,10.37,47.13,13.164,71.102
						c12.214,120.005-6.167,241.696-37.863,357.369c-12.369,44.839-29.032,92.752-46.044,136.184
						C2356.829,3030.229,2325.302,3018.752,2332.566,2996.617L2332.566,2996.617z"/>
				</g>
				<g>
					<path style="fill:#FFFFFF;" d="M1469.271,2923.12l1.227,9.21c7.884,59.198,35.725,114.254,79.918,154.423
						c165.374,150.315,377.719,192.388,623.952,112.423c83.513-27.122,145.462-97.88,162.277-184.062v0
						C2115.088,3238.973,1616.123,3139.065,1469.271,2923.12z"/>
				</g>
				<g style="opacity:0.3;">
					<g>
						<path style="fill:#000072;" d="M2174.367,3141.586c-246.233,79.966-458.578,37.892-623.952-112.423
							c-22.842-20.761-41.273-45.521-54.88-72.754c-9.662-10.757-18.485-21.849-26.265-33.289l1.227,9.21
							c7.884,59.198,35.725,114.254,79.918,154.423c165.374,150.315,377.719,192.389,623.952,112.423
							c83.513-27.122,145.462-97.88,162.277-184.062c-11.881,12.004-24.604,23.022-37.983,33.196
							C2269.091,3091.568,2225.835,3124.871,2174.367,3141.586z"/>
					</g>
					<g>
						<polygon style="fill:#000072;" points="2336.644,3015.113 2336.644,3015.114 2336.645,3015.113 						"/>
					</g>
				</g>
				<g>
					<path style="fill:#000072;" d="M1940.359,3256.332c-151.225,0-287.49-52.588-401.821-156.509
						c-46.626-42.378-77.007-101.03-85.552-165.161l-1.226-9.214c-1.079-8.115,3.56-15.908,11.211-18.828
						c7.632-2.925,16.299-0.21,20.903,6.567c72.949,107.271,245.952,190.723,430.488,207.656
						c170.63,15.674,319.922-27.412,409.727-118.159c5.478-5.527,13.931-6.821,20.811-3.188c6.88,3.643,10.571,11.357,9.077,18.999
						c-18.101,92.803-84.834,168.472-174.156,197.476C2096.814,3242.934,2016.667,3256.332,1940.359,3256.332z M1504.318,2990.815
						c13.101,31.626,32.817,60,57.979,82.866c164.419,149.453,368.516,186.011,606.616,108.696
						c57.578-18.701,104.292-59.888,130.781-112.944c-97.7,69.36-235.445,100.62-388.56,86.592
						C1747.644,3141.02,1596.711,3078.461,1504.318,2990.815z"/>
				</g>
				<g>
					<path style="fill:#FFFFFF;" d="M2231.793,2847.585l-15.587,57.58l-22.564,83.5c-13.688,50.515-59.037,86.105-111.362,87.12
						c-159.669,3.179-298.496-10.642-428.404-80.232c-11.348-6.094-17.972-18.369-16.912-31.219l3.091-38.372
						c1.678-20.4,9.891-39.741,23.447-55.107l121.032-137.017c3.709-4.195,8.169-7.507,13.114-9.803
						c6.623-3.091,14.042-4.327,21.504-3.4c110.832,13.865,230.363,12.319,355.855,0.177c16.559-1.634,31.969,8.655,36.871,24.551
						l19.208,62.216C2235.105,2820.605,2235.37,2834.47,2231.793,2847.585z"/>
				</g>
				<g>
					<path style="fill:#000072;" d="M2038.806,3089.506c-128.35,0-262.72-13.467-391.162-82.29
						c-15.991-8.56-25.371-25.811-23.901-43.95c0,0,0,0,0-0.005l3.115-38.374c1.88-23.12,11.372-45.42,26.724-62.793
						l121.021-137.012c11.646-13.184,28.94-19.756,46.196-17.583c103.989,13.008,219.443,13.042,352.935,0.117
						c22.729-2.241,44.077,12.031,50.811,33.838l19.219,62.236c4.766,15.415,5.054,31.797,0.84,47.373l-38.189,141.074
						c-15.132,55.898-66.059,95.747-123.852,96.899C2068.073,3089.33,2053.474,3089.506,2038.806,3089.506z M1650.149,2965.409
						c-0.615,7.627,3.311,14.868,10.005,18.452c137.759,73.813,284.185,81.416,421.88,78.691
						c46.099-0.923,86.729-32.725,98.804-77.339l38.188-141.074c2.906-10.728,2.705-22.012-0.576-32.632l-19.219-62.241
						c-3.042-9.849-12.71-16.221-22.944-15.283c-135.459,13.125-252.818,13.057-358.784-0.195
						c-8.618-1.108-17.207,2.231-23.047,8.833l-121.021,137.012c-11.587,13.115-18.75,29.951-20.171,47.402L1650.149,2965.409z"/>
				</g>
				<g>
					<path style="fill:#FFFFFF;" d="M1904.242,2411.806v171.106l52.988,9.935c7.578-60.514,9.425-114.092,7.727-163.378
						L1904.242,2411.806z"/>
				</g>
				<g>
					<path style="fill:#000072;" d="M1957.229,2606.093c-0.811,0-1.631-0.073-2.442-0.225l-52.988-9.932
						c-6.265-1.177-10.806-6.646-10.806-13.022v-171.108c0-4.17,1.963-8.091,5.293-10.596c3.335-2.5,7.661-3.281,11.655-2.124
						l60.718,17.661c5.493,1.597,9.341,6.543,9.536,12.266c1.87,54.38-0.689,108.511-7.822,165.479
						c-0.454,3.623-2.383,6.899-5.337,9.053C1962.756,2605.214,1960.017,2606.093,1957.229,2606.093z M1917.487,2571.918
						l28.262,5.298c5.308-47.148,7.363-92.422,6.25-137.72l-34.512-10.039V2571.918z"/>
				</g>
				<g>
					<ellipse style="fill:#FFFFFF;" cx="1930.736" cy="2632.588" rx="55.563" ry="49.308"/>
				</g>
				<g>
					<path style="fill:#000072;" d="M1930.734,2695.141c-37.939,0-68.809-28.062-68.809-62.554s30.869-62.554,68.809-62.554
						c37.944,0,68.813,28.062,68.813,62.554S1968.679,2695.141,1930.734,2695.141z M1930.734,2596.528
						c-23.33,0-42.314,16.177-42.314,36.06s18.984,36.06,42.314,36.06c23.335,0,42.319-16.177,42.319-36.06
						S1954.069,2596.528,1930.734,2596.528z"/>
				</g>
				<g>
					<path style="fill:#FFFFFF;" d="M2138.139,2405.056l18.07,170.149l53.74,4.284c1.145-60.976-2.677-114.449-9.57-163.281
						L2138.139,2405.056z"/>
				</g>
				<g>
					<path style="fill:#000072;" d="M2209.948,2592.734c-0.352,0-0.698-0.015-1.055-0.044l-53.736-4.282
						c-6.357-0.503-11.45-5.464-12.124-11.807l-18.066-170.146c-0.439-4.141,1.098-8.252,4.145-11.094
						c3.057-2.837,7.246-4.077,11.367-3.34l62.236,11.152c5.63,1.006,9.976,5.518,10.777,11.187
						c7.607,53.867,10.781,107.964,9.697,165.376c-0.068,3.652-1.641,7.114-4.346,9.565
						C2216.399,2591.518,2213.225,2592.734,2209.948,2592.734z M2168.22,2562.87l28.662,2.285
						c0.303-47.451-2.437-92.686-8.33-137.607l-35.376-6.338L2168.22,2562.87z"/>
				</g>
				<g>
					
						<ellipse transform="matrix(0.9944 -0.1056 0.1056 0.9944 -264.6617 245.7239)" style="fill:#FFFFFF;" cx="2187.801" cy="2621.805" rx="55.563" ry="49.308"/>
				</g>
				<g>
					<path style="fill:#000072;" d="M2186.379,2684.438c-34.37,0-63.623-23.521-67.007-55.361
						c-3.643-34.302,24.092-65.469,61.821-69.478c18.027-1.899,35.63,2.563,49.692,12.603c14.546,10.386,23.545,25.42,25.342,42.334
						c3.643,34.302-24.092,65.469-61.816,69.478C2191.711,2684.296,2189.031,2684.438,2186.379,2684.438z M2189.309,2585.663
						c-1.758,0-3.53,0.093-5.313,0.283c-23.208,2.466-40.376,20.557-38.276,40.327s22.666,33.877,45.893,31.392
						c23.198-2.466,40.366-20.557,38.267-40.327c-0.986-9.282-6.094-17.651-14.389-23.574
						C2208.069,2588.466,2198.928,2585.663,2189.309,2585.663z"/>
				</g>
				<g style="opacity:0.5;">
					<g>
						<path style="fill:#000072;" d="M1714.739,2208.512c211.458-0.158,422.916-0.316,634.375-0.473
							c-52.811,46.044-109,90.871-175.931,115.62c-98.452,36.404-211.924,24.923-308.456-15.809
							c-29.477-12.438-58.561-28.153-78.111-52.416c-14.461-17.947-24.56-41.129-46.334-50.392"/>
					</g>
				</g>
				<g style="opacity:0.3;">
					<g>
						<path style="fill:#000072;" d="M2429.304,2281.408c-40.447,41.375-72.151,94.273-108.006,140.594
							c-57.182,73.785-131.277,135.78-217.646,171.149c-86.414,35.369-185.456,42.832-273.813,12.717
							c-42.655-14.572-82.13-37.356-124.521-52.634c-28.922-10.376-58.639-17.133-88.886-21.151
							c-53.827-7.286-109.154-6.182-163.952-2.341c-14.218,0.972-28.392,2.164-42.523,3.4c14.218-37.4,28.613-75.331,32.808-115.159
							c4.195-39.785-2.87-82.351-27.73-113.747c-9.538-12.01-21.99-21.857-35.855-28.613c25.081-24.727,53.252-49.985,84.515-76.655
							c50.603,12.938,94.273,28.481,127.965,47.556c5.122-3.93,10.509-7.506,16.073-10.818
							c113.349,69.281,218.883,155.96,348.879,175.08c141.3,20.798,291.74-52.414,362.656-176.316
							c19.693,5.122,38.946,10.818,57.712,17.088C2394.818,2261.008,2412.304,2270.943,2429.304,2281.408z"/>
					</g>
				</g>
				<g style="opacity:0.2;">
					<g>
						<path style="fill:#000072;" d="M2216.206,2905.164l-22.564,83.5c-13.688,50.515-59.037,86.105-111.362,87.12
							c-159.669,3.179-298.496-10.642-428.404-80.232c-11.348-6.094-17.972-18.369-16.912-31.219l3.091-38.372
							c1.678-20.4,9.891-39.741,23.447-55.107l121.032-137.017c3.709-4.195,8.169-7.507,13.114-9.803
							c62.039,6.712,120.856,41.154,156.357,92.64c21.946,31.836,36.296,70.473,67.471,93.39
							c26.052,19.164,60.229,24.065,92.507,21.946C2149.442,2929.759,2183.795,2919.868,2216.206,2905.164z"/>
					</g>
				</g>
				<g style="opacity:0.4;">
					<g>
						<path style="fill:#000072;" d="M2433.256,2446.914c52.388,58.269,90.977,128.862,111.742,204.417
							c-24.822-7.981-49.644-15.961-74.466-23.942c-9.645-3.101-19.701-6.45-26.766-13.712
							c-12.913-13.272-11.552-34.338-10.246-52.81c2.438-34.48,1.663-69.186-2.312-103.523"/>
					</g>
				</g>
			</g>
			<g>
				<g>
					<path style="fill:#FFFFFF;" d="M1907.863,2887.325c-16.559,12.761-36.076,13.203-49.985-4.151
						c-56.917,76.876-132.689,82.042-167.97,44.244c-6.535-6.977-8.169-17.265-4.593-26.14l9.096-22.52
						c-29.011,0.486-51.486-10.112-70.517-26.494c49.455-48.925,70.959-98.38,70.65-148.144
						c-0.265-42.744-16.603-85.752-45.128-128.937c-7.109-10.774-14.969-21.548-23.579-32.366c-1.987-2.517-4.062-5.078-6.138-7.595
						c65.925-60.936,283.262,79.702,318.764,251.911C1945.97,2833.278,1929.411,2870.767,1907.863,2887.325z"/>
				</g>
				<g>
					<path style="fill:#000072;" d="M1745.871,2968.002c-27.31,0-51.577-9.99-68.877-28.501
						c-11.094-11.875-14.253-29.478-8.042-44.844l0.171-0.43c-20.43-3.994-39.155-13.447-56.753-28.564
						c-3.74-3.213-5.967-7.847-6.143-12.778c-0.176-4.927,1.724-9.702,5.229-13.174c88.74-87.827,87.026-181.016-5.396-293.271
						c-5.952-7.227-5.224-17.847,1.655-24.199c22.69-20.962,59.277-24.775,103.013-10.723
						c97.31,31.265,218.662,144.165,245.034,272.051c0.049,0.244,0.093,0.488,0.137,0.732
						c10.088,62.153-18.662,110.894-50.835,125.19c-15.313,6.807-31.187,6.113-44.629-1.304
						c-31.299,35.957-69.907,57.441-108.027,59.624C1750.212,2967.939,1748.034,2968.002,1745.871,2968.002z M1694.431,2861.098
						c5.815,0,11.26,2.861,14.561,7.661c3.354,4.883,4.033,11.128,1.816,16.621l-9.102,22.515c-1.064,2.632-0.625,5.645,1.099,7.485
						c11.377,12.178,28.301,18.242,47.583,17.168c32.5-1.86,66.504-23.687,93.296-59.883c3.257-4.404,8.379-7.046,13.858-7.153
						c5.391-0.029,10.688,2.339,14.121,6.616c5.532,6.914,11.411,8.486,19.053,5.083c16.689-7.417,37.827-40.137,30.371-86.885
						c-23.208-111.631-133.022-216.86-221.162-245.176c-21.719-6.973-40.098-8.555-53.608-4.79
						c41.157,54.048,62.637,104.448,65.547,153.594c3.228,54.614-17.368,106.973-61.274,155.884
						c13.467,7.91,27.661,11.533,43.545,11.26C1694.231,2861.098,1694.333,2861.098,1694.431,2861.098z"/>
				</g>
				<g>
					<path style="fill:#000072;" d="M1840.603,2879.491c10.417-33.928,13.494-70.756-1.467-103.8
						c-4.114-9.313,8.994-16.513,14.644-8.081c23.155,34.405,27.037,79.104,21.372,119.248
						C1870.911,2911.881,1834.276,2904.122,1840.603,2879.491L1840.603,2879.491z"/>
				</g>
				<g>
					<path style="fill:#000072;" d="M1634.846,2838.419c38.969,25.925,53.115,30.68,95.756,8.281
						c6.709-3.336,14.408,4.149,11.448,10.904c-15.741,39.656-65.107,47.88-99.953,28.645c-11.037-5.535-20.671-12.45-29.184-20.138
						C1596.872,2851.072,1616.688,2826.278,1634.846,2838.419L1634.846,2838.419z"/>
				</g>
				<g style="opacity:0.3;">
					<g>
						<path style="fill:#000072;" d="M1649.417,2575.185c-7.109-10.774-14.969-21.548-23.579-32.366L1649.417,2575.185z"/>
					</g>
				</g>
				<g style="opacity:0.2;">
					<g>
						<path style="fill:#000072;" d="M1907.863,2887.325c-16.559,12.761-36.076,13.203-49.985-4.151
							c-56.917,76.876-132.689,82.042-167.97,44.244c-6.535-6.977-8.169-17.265-4.593-26.14l9.096-22.52
							c-29.011,0.486-51.486-10.112-70.517-26.494c49.455-48.925,70.959-98.38,70.65-148.144
							c10.642,12.938,23.447,23.8,38.416,31.306c40.138,20.135,90.918,14.174,127.7,39.873c24.772,17.354,38.946,46.761,44.2,76.567
							C1906.936,2863.569,1907.775,2875.447,1907.863,2887.325z"/>
					</g>
				</g>
			</g>
			<g>
				<g>
					<g>
						<path style="fill:#cfc9bf;" d="M2707.621,1864.71v0.044c-8.964,29.673-21.107,59.567-37.268,88.754
							c-146.334,264.717-519.234,280.481-652.409,286.089c-101.824,4.283-518.659,21.945-718.378-256.769
							c-3.091-4.283-6.138-8.654-9.096-13.114c-56.078-83.72-77.583-169.163-86.149-227.891c-3.532-24.33-4.857-44.068-5.475-57.271
							c-9.759-204.09,75.949-400.497,226.522-538.662c313.333-287.59,788.763-306.842,1108.94,64.91
							c57.977,67.294,105.71,142.713,139.887,224.004c16.47,39.078,29.761,79.481,39.564,121.032
							C2724.268,1600.303,2748.333,1730.387,2707.621,1864.71z"/>
					</g>
					<g style="opacity:0.3;">
						<path style="fill:#000072;" d="M2716.433,1567.764c5.352,81.03-2.146,191.357-58.644,293.55
							c-146.342,264.7-519.229,280.455-652.414,286.082c-103.421,4.369-531.584,22.459-727.456-269.874
							c-44.227-66.007-66.939-133.04-78.763-187.248c2.76,48.89,15.114,165.695,91.333,279.449
							c195.872,292.333,624.035,274.243,727.456,269.874c133.185-5.627,506.072-21.382,652.414-286.082
							C2753.939,1802.335,2730.321,1633.276,2716.433,1567.764z"/>
					</g>
					<g>
						<path style="fill:#FFFFFF;" d="M2048.853,2048.081c-17.413-1.179-34.864-1.179-52.278,0
							c-307.468,20.81-282.818-376.071,25.432-406.669c0.221,0,0.486-0.044,0.707-0.044c0.221,0,0.486,0.044,0.706,0.044
							C2331.626,1672.052,2356.276,2068.889,2048.853,2048.081z"/>
					</g>
					<g>
						<path style="fill:#000072;" d="M1947.448,2258.779c-398.218,0-584.78-149.604-671.631-279.224
							c-56.743-84.69-89.458-186.399-94.604-294.138c-9.873-206.653,74.761-408.049,232.202-552.549l0,0
							c166.997-153.269,375.234-230.852,586.104-218.479c208.628,12.239,398.189,110.757,548.189,284.907
							c90.093,104.597,153.457,226.487,183.247,352.493c12.769,53.996,47.246,243.164-45.137,410.271
							c-64.858,117.314-179.785,200.952-341.597,248.589c-130.234,38.34-257.266,43.711-325.513,46.597
							C1994.231,2258.281,1970.485,2258.779,1947.448,2258.779z M1425.359,1145.881l11.943,13.013
							c-149.697,137.39-230.176,328.687-220.806,524.839c4.839,101.316,35.503,196.812,88.667,276.16
							c82.002,122.383,259.624,263.555,642.197,263.564c22.573,0,45.815-0.488,69.839-1.504
							c135.713-5.737,496.167-20.972,637.7-276.982c86.26-156.028,53.711-334.172,41.679-385.054
							c-28.491-120.518-89.229-237.246-175.639-337.568c-143.613-166.731-324.634-261.028-523.491-272.695
							c-201.245-11.789-400.254,62.498-560.146,209.241L1425.359,1145.881z"/>
					</g>
					<g>
						<g>
							<ellipse style="fill:#000072;" cx="1705.788" cy="1653.747" rx="87.025" ry="101.007"/>
						</g>
						<g>
							<ellipse style="fill:#FFFFFF;" cx="1730.534" cy="1671.41" rx="21.835" ry="33.117"/>
						</g>
					</g>
					<g>
						<g>
							<ellipse style="fill:#000072;" cx="2317.807" cy="1625.046" rx="87.025" ry="101.007"/>
						</g>
						<g>
							<ellipse style="fill:#FFFFFF;" cx="2303.916" cy="1649.356" rx="21.818" ry="33.092"/>
						</g>
					</g>
					<g>
						<path style="fill:#000072;" d="M1928.059,1706.321c42.709-33.221,125.471-33.24,173.676-5.999
							c9.171,5.183,13.841,16.109,11.132,26.288c-8.08,30.371-37.407,51.606-74.646,66.364c-8.335,3.303-17.531,4.149-26.283,2.2
							c-41.565-9.256-74.684-32.053-89.848-56.382C1915.359,1727.992,1918.014,1714.135,1928.059,1706.321z"/>
					</g>
					<g>
						<ellipse style="fill:#FFFFFF;" cx="2017.577" cy="1708.618" rx="42.868" ry="11.407"/>
					</g>
					<g>
						<path style="fill:#000072;" d="M2021.984,1871.628c-7.021,0-12.876-5.518-13.223-12.607l-4.419-91.255
							c-0.351-7.307,5.283-13.518,12.593-13.872c7.285-0.349,13.516,5.288,13.872,12.593l4.419,91.255
							c0.352,7.307-5.283,13.518-12.593,13.872C2022.419,1871.623,2022.199,1871.628,2021.984,1871.628z"/>
					</g>
					<g>
						<path style="fill:#000072;" d="M1945.73,1890.828c26.732-31.637,72.588-49.828,114.241-38.591
							c7.512,1.784,15.207,5.049,22.183,8.348c7.77,4.188,16.684,5.553,25.742,3.893c15.915-3.163,28.761-15.345,37.861-29.475
							c2.146-3.786,8.389-1.668,7.842,2.602c-3.056,38.641-46.998,65.069-84.641,51.052c-5.4-1.586-10.915-3.285-16.45-4.206
							c-33.088-7.807-69.253,3.514-100.703,15.079C1946.659,1901.575,1942.012,1894.937,1945.73,1890.828L1945.73,1890.828z"/>
					</g>
					<g>
						<path style="fill:#FFFFFF;" d="M2022.714,1636.952c-0.221,0-0.486,0.044-0.707,0.044v-0.132
							C2022.228,1636.908,2022.493,1636.908,2022.714,1636.952z"/>
					</g>
					<g>
						<path style="fill:#FFFFFF;" d="M2023.42,1636.864v0.132c-0.221,0-0.486-0.044-0.706-0.044
							C2022.934,1636.908,2023.199,1636.908,2023.42,1636.864z"/>
					</g>
					<g style="opacity:0.3;">
						<g>
							<path style="fill:#000072;" d="M2707.621,1864.71c-100.235-67.338-211.023-119.134-327.021-152.825
								c-213.451-61.995-443.594-63.099-658.856-7.639c-96.746,24.948-191.638,61.598-273.283,119.222
								c-59.788,42.213-112.29,96.305-148.895,159.36c-3.091-4.283-6.138-8.654-9.096-13.114
								c-56.078-83.72-77.583-169.163-86.149-227.891c10.244-19.694,21.99-38.637,34.795-56.564
								c49.896-69.988,115.38-127.126,180.202-183.557c78.024-67.957,158.786-137.503,256.724-170.885
								c81.203-27.642,168.898-28.481,254.605-24.86c251.956,10.686,501.394,57.757,743.547,128.848
								c16.47,39.078,29.761,79.481,39.564,121.032C2724.268,1600.303,2748.333,1730.387,2707.621,1864.71z"/>
						</g>
					</g>
				</g>
				<g>
					<g>
						<path style="fill:#166d00;" d="M2806.884,1748.005c-9.582-7.771-19.826-15.896-30.821-24.198
							c-65.572-50.029-156.445-109.242-272.4-158.344c-104.783-44.333-369.897-152.295-691.796-79.481
							c-88.842,20.135-261.67,59.258-406.635,197.865c-15.94,15.234-31.572,31.66-46.673,49.411
							c-21.062,24.728-39.122,49.588-54.577,73.741c-33.691,52.59-55.195,102.001-69.06,140.373
							c-12.275-30.07-26.229-67.824-39.387-112.245c-0.618-2.031-1.192-4.151-1.81-6.226c-7.639-26.449-14.969-55.195-21.372-86.06
							c-16.735-80.232-22.829-151.986-22.829-221.311c0-4.769,0.044-9.582,0.088-14.351c0.133-10.553,0.397-21.018,0.795-31.528
							c0.176-5.078,0.397-10.156,0.618-15.234c0.221-4.151,0.442-8.346,0.663-12.496c0.132-2.34,0.265-4.681,0.397-7.021
							c0.221-3.621,0.442-7.286,0.707-10.951c0.177-2.694,0.353-5.387,0.574-8.081c0.53-7.462,1.104-14.925,1.722-22.387
							c0.397-5.078,0.839-10.2,1.325-15.278c0.441-5.122,0.927-10.244,1.413-15.366c1.413-14.66,2.958-29.408,4.548-44.289v-0.044
							c1.766-16.382,3.665-32.896,5.564-49.72c11.702-102.796,20.709-178.436,38.107-240.607
							c4.283-15.146,9.008-29.497,14.439-43.229c1.236-3.179,2.517-6.27,3.842-9.361c1.104-2.649,2.252-5.299,3.444-7.904
							c1.236-2.738,2.473-5.475,3.797-8.169c0.044-0.132,0.133-0.265,0.221-0.397c0.927-2.031,1.943-4.018,2.958-6.005
							c2.605-5.167,5.387-10.289,8.301-15.322c0.927-1.678,1.943-3.356,2.958-5.034c1.104-1.855,2.208-3.753,3.4-5.608
							c0.088-0.133,0.177-0.309,0.309-0.486c1.634-2.561,3.268-5.166,4.99-7.727c6.623-10.023,13.865-19.826,21.857-29.584
							c0.177-0.707,19.385-22.387,45.393-46.497c2.296-2.119,4.636-4.239,6.977-6.403c0.132-0.088,0.265-0.221,0.353-0.309
							c0.927-0.839,1.899-1.722,2.87-2.605c24.065-21.328,52.104-42.743,76.037-51.972
							c511.153-196.672,947.682,100.544,947.682,100.544c82.969,56.476,150.661,121.562,205.812,190.181
							c26.008,32.234,49.19,65.263,69.899,98.513c13.6,21.725,26.096,43.582,37.621,65.395c3.753,7.109,7.462,14.262,10.995,21.372
							c59.523,118.604,91.05,234.558,107.786,323.886c13.114,69.988,17.133,123.638,18.457,149.469
							C2806.664,1741.515,2806.796,1745.224,2806.884,1748.005z"/>
					</g>
					<g style="opacity:0.6;">
						<g>
							<path style="fill:#FFFFFF;" d="M1293.032,881.791c2.296-2.119,4.636-4.239,6.977-6.403c0.132-0.088,0.265-0.221,0.353-0.309
								c0.927-0.839,1.899-1.722,2.87-2.605c24.065-21.328,52.104-42.743,76.037-51.972
								c511.153-196.672,947.682,100.544,947.682,100.544c82.969,56.476,150.661,121.562,205.812,190.181
								c26.008,32.234,49.19,65.263,69.899,98.513c13.6,21.725,26.096,43.582,37.621,65.396c3.753,7.109,7.462,14.262,10.995,21.371
								c59.523,118.604,91.05,234.558,107.786,323.886c7.486,39.954,12.001,74.552,14.75,101.721
								c0.739,0.561,1.517,1.135,2.249,1.694c10.995,8.301,21.239,16.426,30.821,24.198c-0.088-2.782-0.221-6.491-0.441-11.083
								c-1.325-25.831-5.343-79.481-18.457-149.469c-16.735-89.328-48.263-205.282-107.786-323.886
								c-3.532-7.109-7.241-14.262-10.995-21.372c-11.525-21.813-24.021-43.671-37.621-65.395
								c-20.709-33.25-43.891-66.279-69.899-98.513c-55.151-68.619-122.843-133.705-205.812-190.181
								c0,0-436.529-297.216-947.682-100.544c-23.933,9.229-51.972,30.644-76.037,51.972c-0.972,0.883-1.943,1.766-2.87,2.605
								c-0.088,0.088-0.221,0.221-0.353,0.309c-2.34,2.164-4.681,4.283-6.977,6.403c-26.008,24.109-45.216,45.79-45.393,46.497
								c-2.896,3.536-5.661,7.082-8.365,10.638C1275.223,898.805,1283.675,890.465,1293.032,881.791z"/>
						</g>
						<g>
							<path style="fill:#FFFFFF;" d="M1329.637,1766.197c-21.062,24.728-39.122,49.588-54.577,73.741
								c-19.875,31.023-35.481,60.917-47.807,88.114c2.607,6.723,5.179,13.22,7.669,19.319
								c13.865-38.372,35.369-87.783,69.06-140.373c13.475-21.06,28.934-42.656,46.634-64.234
								C1343.531,1750.319,1336.523,1758.103,1329.637,1766.197z"/>
						</g>
					</g>
					<g>
						<path style="fill:#000072;" d="M1234.909,1965.041c-7.163,0-13.633-4.331-16.348-10.981
							c-27.407-67.061-48.774-136.914-63.501-207.62c-37.896-181.899-21.758-323.618-4.673-473.655
							c21.367-187.688,33.164-291.262,112.007-388.015c2.173-2.942,6.235-7.473,14.346-16.038
							c7.305-7.712,18.989-19.668,33.179-32.837c35.977-33.384,66.899-55.19,91.914-64.815
							c268.623-103.345,516.284-70.066,676.748-23.958c173.755,49.932,282.676,123.306,287.227,126.404
							c180.581,122.949,311.787,299.219,389.975,523.911c58.33,167.624,67.358,310.227,68.736,349.939
							c0.239,6.919-3.584,13.34-9.781,16.423c-6.201,3.093-13.623,2.266-18.999-2.095
							c-91.357-74.111-191.944-134.661-298.96-179.963c-88.574-37.495-358.1-151.585-680.996-78.518
							c-95.752,21.672-294.98,66.763-443.794,241.502c-51.782,60.806-92.319,131.013-120.474,208.672
							c-2.49,6.865-8.95,11.492-16.25,11.638C1235.144,1965.038,1235.026,1965.041,1234.909,1965.041z M1291.023,905.483
							c-0.249,0.354-0.513,0.703-0.786,1.04c-69.775,85.293-82.539,175.146-104.751,370.256
							c-16.753,147.139-32.578,286.116,4.155,462.458c11.265,54.065,26.523,107.615,45.503,159.736
							c28.149-64.961,65.02-124.392,109.951-177.153c156.436-183.689,363.418-230.535,462.886-253.049
							c333.96-75.591,611.406,41.848,702.568,80.442c98.066,41.514,190.869,95.464,276.372,160.627
							c-11.88-147.668-77.744-559.792-440.996-807.114c-1.069-0.728-109.663-73.735-278.32-122.002
							c-154.99-44.353-394.106-76.309-653.086,23.325C1367.517,822.133,1298.537,896.33,1291.023,905.483z M1293.62,899.921
							c0,0.002,0,0.002,0,0.002V899.921z M1293.645,899.841c-0.005,0.007-0.005,0.015-0.005,0.02
							C1293.64,899.855,1293.64,899.848,1293.645,899.841z M1293.659,899.78c-0.005,0.012-0.005,0.024-0.01,0.034
							C1293.654,899.804,1293.654,899.792,1293.659,899.78z M1293.674,899.716c0,0.015-0.005,0.029-0.01,0.046
							C1293.669,899.745,1293.674,899.731,1293.674,899.716z M1293.693,899.65c-0.005,0.017-0.01,0.034-0.015,0.051
							C1293.684,899.684,1293.689,899.667,1293.693,899.65z"/>
					</g>
					<g>
						<path style="fill:#166d00;" d="M1770.67,974.52c-20.665,42.213-44.598,80.894-71.224,116.175
							c-5.564,7.374-11.216,14.616-17,21.681c-124.167,151.986-298.187,234.426-459.313,249.969
							c29.496-101.073,39.476-210.714,55.549-325.431c0.795-5.387,1.545-10.818,2.34-16.25c3.886-26.847,13.247-52.811,28.79-75.11
							c5.961-8.522,12.32-15.984,19.12-22.432c71.224-68.045,186.781-27.509,308.431,28.083
							c15.499,7.109,31.704,12.496,48.307,16.073c12.496,2.694,25.213,4.371,37.974,4.99L1770.67,974.52z"/>
					</g>
					<g style="opacity:0.6;">
						<path style="fill:#FFFFFF;" d="M1296.557,977.697c5.961-8.522,12.319-15.984,19.12-22.431
							c71.224-68.045,186.781-27.509,308.431,28.083c15.499,7.109,31.704,12.496,48.307,16.073
							c12.496,2.694,25.214,4.371,37.974,4.99l8.884,0.425c21.51,1.03,41.757-10.653,51.236-29.989l0.16-0.327l-47.027-2.252
							c-12.761-0.618-25.478-2.296-37.974-4.99c-16.603-3.577-32.808-8.964-48.307-16.073
							c-121.65-55.593-237.207-96.128-308.431-28.083c-6.8,6.447-13.159,13.909-19.12,22.432
							c-10.147,14.557-17.612,30.69-22.687,47.596C1289.983,987.846,1293.092,982.668,1296.557,977.697z"/>
					</g>
					<g>
						<path style="fill:#166d00;" d="M2670.486,1174.681c-0.839,59.611-6.535,123.196-15.19,189.165
							c0,0.265-0.044,0.574-0.133,0.839c-0.044,0.353-0.088,0.706-0.132,1.06c-0.53,4.151-1.06,8.301-1.634,12.452
							c-0.088,0-0.221-0.044-0.309-0.044c-227.096-38.548-422.929-166.866-508.901-339.782c-4.416-8.831-8.522-17.795-12.32-26.847
							c-7.551-17.795-13.865-36.032-18.987-54.665l36.694-3.444c22.034-2.075,43.273-8.787,62.658-19.473
							c15.322-8.434,30.689-16.514,45.967-24.109c87.165-43.273,173.755-72.195,259.551-82.572
							c14.572-1.766,29.231,1.237,41.684,8.434c4.195,2.428,8.169,5.343,11.79,8.743c0.397,0.353,0.795,0.707,1.192,1.104
							c41.463,40.58,67.515,93.876,82.263,156.49C2666.909,1053.825,2671.413,1112.023,2670.486,1174.681z"/>
					</g>
					<g style="opacity:0.6;">
						<path style="fill:#FFFFFF;" d="M2149.581,986.531c22.034-2.075,43.273-8.787,62.658-19.473
							c15.322-8.434,30.689-16.514,45.967-24.109c87.165-43.273,173.755-72.195,259.551-82.572
							c14.571-1.766,29.231,1.237,41.683,8.434c4.195,2.428,8.169,5.343,11.79,8.743c0.398,0.353,0.795,0.707,1.192,1.104
							c41.463,40.58,67.515,93.876,82.263,156.49c10.194,43.168,14.96,90.833,15.748,141.771c0.012-0.741,0.043-1.498,0.053-2.237
							c0.927-62.658-3.577-120.856-15.808-172.651c-14.748-62.614-40.8-115.91-82.263-156.49c-0.398-0.397-0.795-0.751-1.192-1.104
							c-3.621-3.4-7.595-6.314-11.79-8.743c-12.452-7.198-27.112-10.2-41.684-8.434c-85.796,10.377-172.386,39.299-259.551,82.572
							c-15.278,7.595-30.645,15.675-45.967,24.109c-19.385,10.686-40.624,17.398-62.658,19.473l-36.694,3.444
							c0.539,1.96,1.092,3.914,1.66,5.864C2118.998,978.029,2133.708,988.021,2149.581,986.531L2149.581,986.531z"/>
					</g>
					<g>
						<path style="fill:#000072;" d="M1217.876,1360.826c22.101-112.522,30.883-228.051,46.116-341.656
							c6.348-52.413,35.104-104.76,82.283-131.14c84.351-44.221,185.064-1.076,264.58,32.46
							c17.111,7.25,34.301,16.248,51.645,22.916c34.514,14.036,72.025,15.237,108.631,21.428c5.317,0.916,8.887,5.97,7.969,11.287
							c-0.774,4.506-4.529,7.754-8.892,8.083c-19.885,1.323-38.175,2.229-58.472,1.811c-28.125-1.102-56.121-8.078-81.902-19.51
							c-3.678-1.779-28.329-12.323-32.705-14.292c-89.826-37.402-227.963-91.872-283.889,22.174
							c-7.62,15.428-12.74,32.159-15.491,49.681c-5.95,37.772-11.243,75.765-16.755,113.877
							c-5.782,38.175-11.803,76.386-20.161,114.16c-8.147,37.885-18.477,75.529-32.444,111.787c-1.091,2.831-4.27,4.242-7.102,3.152
							C1218.746,1366.067,1217.348,1363.404,1217.876,1360.826L1217.876,1360.826z"/>
					</g>
					<g>
						<path style="fill:#000072;" d="M2644.106,1376.935c13.411-154.048,35.801-365.194-63.074-494.338
							c-6.915-8.879-14.481-17.214-22.527-25.036c-10.181-9.434-24.61-13.768-38.347-12.126
							c-53.978,6.64-106.854,19.891-158.43,37.895c-40.308,14.14-79.893,30.942-118.54,49.928
							c-30.054,16.007-61.873,31.329-96.951,29.396c-10.947-0.099-21.918-0.448-32.941-1.366c-2.488-0.208-4.336-2.391-4.128-4.878
							c0.161-1.936,1.531-3.486,3.298-3.979c30.334-8.011,62.149-11.445,89.406-27.894
							c90.461-53.285,188.595-96.178,293.143-112.672c2.712-0.278,18.387-2.599,20.891-2.842c12.042-1.365,24.338-0.213,35.901,3.47
							c13.118,4.133,25.249,11.61,34.81,21.521c106.149,108.986,105.247,273.781,93.683,415.185
							c-4.369,43.73-10.15,87.165-17.646,130.259C2660.32,1390.886,2643.345,1389.09,2644.106,1376.935L2644.106,1376.935z"/>
					</g>
					<g style="opacity:0.3;">
						<g>
							<path style="fill:#000072;" d="M1294.842,970.37l-14.307,37.577C1282.964,994.788,1287.644,982.071,1294.842,970.37z"/>
						</g>
					</g>
					<g style="opacity:0.3;">
						<g>
							<path style="fill:#000072;" d="M1355.601,906.078c8.524,0,8.538-13.247,0-13.247
								C1347.077,892.831,1347.063,906.078,1355.601,906.078L1355.601,906.078z"/>
						</g>
					</g>
					<g style="opacity:0.3;">
						<g>
							<path style="fill:#000072;" d="M1342.442,919.193c-0.574,0.133-1.104,0.265-1.678,0.398
								c3.709-5.034,7.86-9.714,12.496-13.954L1342.442,919.193z"/>
						</g>
					</g>
					<g>
						
							<path style="fill:none;stroke:#000072;stroke-width:35.325;stroke-linecap:round;stroke-linejoin:round;stroke-miterlimit:10;" d="
							M2053.27,1500.716"/>
					</g>
					<g>
						<g style="opacity:0.3;">
							<g>
								<path style="fill:#000072;" d="M2806.884,1748.005c-9.582-7.771-19.826-15.896-30.821-24.198
									c-65.572-50.029-156.445-109.242-272.4-158.344c-104.783-44.333-369.897-152.295-691.796-79.481
									c-88.842,20.135-261.67,59.258-406.635,197.865c-15.94,15.234-31.572,31.66-46.673,49.411
									c-21.062,24.728-39.122,49.588-54.577,73.741c-33.691,52.59-55.195,102.001-69.06,140.373
									c-12.275-30.07-26.229-67.824-39.387-112.245c-0.618-2.031-1.192-4.151-1.81-6.226
									c-7.639-26.449-14.969-55.195-21.372-86.06c-16.735-80.232-22.829-151.986-22.829-221.311c0-4.769,0.044-9.582,0.088-14.351
									c0.133-10.553,0.397-21.018,0.795-31.528c0.176-5.078,0.397-10.156,0.618-15.234c0.221-4.151,0.442-8.346,0.663-12.496
									c0.132-2.34,0.265-4.681,0.397-7.021c0.221-3.621,0.442-7.286,0.707-10.951c0.177-2.694,0.353-5.387,0.574-8.081
									c0.53-7.462,1.104-14.925,1.722-22.387c0.397-5.078,0.839-10.2,1.325-15.278c0.441-5.122,0.927-10.244,1.413-15.366
									c1.413-14.66,2.958-29.408,4.548-44.289v-0.044c1.766-16.382,3.665-32.896,5.564-49.72
									c11.702-102.796,20.709-178.436,38.107-240.607c4.283-15.146,9.008-29.497,14.439-43.229
									c1.236-3.179,2.517-6.27,3.842-9.361c1.104-2.649,2.252-5.299,3.444-7.904c1.236-2.738,2.473-5.475,3.797-8.169
									c0.044-0.132,0.133-0.265,0.221-0.397c0.927-2.031,1.943-4.018,2.958-6.005c2.605-5.167,5.387-10.289,8.301-15.322
									c0.927-1.678,1.943-3.356,2.958-5.034c1.104-1.855,2.208-3.753,3.4-5.608c0.088-0.133,0.177-0.309,0.309-0.486
									c1.634-2.561,3.268-5.166,4.99-7.727c-9.714,37.356-9.67,77.715,1.501,114.409c7.33-1.457,13.953-7.242,17.663-13.997
									c4.901-9.008,6.049-19.473,8.257-29.497c10.509-47.777,49.146-88.091,96.172-101.25
									c-42.037,33.338-58.198,96.57-40.226,148.188c20.223,58.331,76.699,99.705,137.282,111.716
									c19.856,3.954,40.035,5.086,60.15,3.873c47.155-2.843,92.75,21.567,113.85,63.833c0.803,1.61,1.649,3.195,2.537,4.754
									c0,0,0.143,0.252,0.289,0.504c0.569,0.986,26.676,41.798,75.439,58.357c40.456,13.738,78.461,4.653,89.416,2.208
									c127.072-28.367,327.233,7.689,431.627,26.494c51.441,9.266,136.364,25.077,237.34,68.442
									c142.203,61.07,241.608,144.734,301.985,204.488c9.572,47.363,16.077,97.237,18.457,149.469
									C2806.612,1740.629,2806.759,1744.323,2806.884,1748.005z"/>
							</g>
						</g>
						<g style="opacity:0.3;">
							<g>
								<path style="fill:#000072;" d="M1395.987,883.206c-6.324,3.229-12.207,7.08-17.672,11.411
									c2.102-0.588,4.199-1.197,6.333-1.674L1395.987,883.206z"/>
							</g>
						</g>
					</g>
					<g>
						<path style="fill:#166d00;" d="M2822.781,1780.328c-0.044-0.441-0.044-0.839-0.088-1.28
							c-0.221-3.444-0.486-6.888-0.795-10.288c-0.133-1.854-0.354-3.753-0.574-5.608c-0.397-3.532-0.883-7.065-1.413-10.597
							c0-0.088,0-0.221-0.044-0.309v-0.044c-32.808-213.805-306.047-356.076-716.17-373.076
							c-58.154-2.429-116.396-0.044-174.197,6.579c-422.045,48.439-698.419,203.428-733.215,408.622c0,0.044,0,0.044,0,0.088
							c-1.236,7.286-2.164,14.616-2.826,22.034c-0.133,1.854-0.265,3.709-0.397,5.564c-0.133,1.899-0.221,3.753-0.309,5.608
							c-0.927,22.917,1.016,46.32,6.005,70.253c5.299,25.257,13.953,51.045,26.141,77.318c6.756,14.571,14.616,29.32,23.624,44.156
							c39.608,65.572,93.523,118.692,154.944,157.947c5.784,3.709,11.569,7.374,17.397,11.039
							c5.254,3.312,10.509,6.623,15.764,9.935c18.458,11.48,36.871,22.785,55.24,33.824c5.167,3.091,10.377,6.226,15.543,9.273
							c5.74,3.4,11.525,6.8,17.265,10.156c5.74,3.356,11.481,6.712,17.221,10.023c5.74,3.312,11.48,6.624,17.221,9.891
							c11.436,6.491,22.829,12.85,34.177,19.164c0.088,0,0.132,0.044,0.177,0.088c10.863,5.961,21.681,11.834,32.499,17.618
							c6.314,3.4,12.585,6.712,18.899,10.023c5.696,3.003,11.392,5.961,17.089,8.875c4.857,2.561,9.759,5.034,14.66,7.507
							c0.795,0.442,1.589,0.839,2.384,1.236c99.572,50.426,197.908,91.933,294.787,122.578c0.751,0.221,1.545,0.486,2.296,0.707
							c3.797,1.192,7.551,2.384,11.348,3.532c4.548,1.413,9.096,2.826,13.644,4.151c39.122,11.613,80.409,9.538,118.162-6.049
							c10.553-4.371,21.107-8.875,31.66-13.556c2.694-1.192,5.387-2.385,8.081-3.621c11.745-5.255,23.491-10.686,35.237-16.382
							c3.224-1.546,6.403-3.091,9.582-4.637c10.862-5.299,21.725-10.774,32.543-16.382c4.548-2.296,9.052-4.681,13.6-7.109
							c9.361-4.946,18.767-10.024,28.128-15.19c3.576-1.943,7.109-3.93,10.642-5.917c0.044,0,0.044-0.044,0.089-0.044
							c120.149-67.338,241.137-152.692,362.743-250.94c2.517-2.031,5.034-4.107,7.551-6.27c0.221-0.221,0.486-0.397,0.706-0.618
							c2.473-2.075,4.946-4.195,7.374-6.359c0.618-0.53,1.192-1.06,1.81-1.59c2.826-2.517,5.608-5.034,8.346-7.639
							c0.309-0.265,0.618-0.53,0.883-0.839c2.031-1.854,4.018-3.797,6.005-5.74c1.545-1.413,3.047-2.87,4.548-4.46
							c1.987-1.987,3.974-3.974,5.917-6.005c0.618-0.618,1.236-1.281,1.854-1.943c2.561-2.65,5.078-5.343,7.551-8.081
							c0.353-0.354,0.662-0.707,0.971-1.06c2.164-2.385,4.283-4.769,6.403-7.198c1.457-1.59,2.826-3.223,4.151-4.857
							c1.237-1.413,2.429-2.826,3.577-4.283c1.457-1.678,2.826-3.356,4.151-5.078c1.899-2.34,3.753-4.68,5.564-7.065
							c0.353-0.353,0.618-0.75,0.883-1.148c2.473-3.179,4.901-6.447,7.286-9.714c2.164-2.958,4.328-6.005,6.447-9.052
							c1.634-2.296,3.179-4.592,4.68-6.888c0.883-1.281,1.766-2.561,2.561-3.886c1.678-2.473,3.267-4.946,4.769-7.462
							c0.883-1.281,1.678-2.517,2.429-3.842c1.678-2.693,3.312-5.431,4.901-8.169c7.639-12.938,14.704-26.361,21.195-40.226
							c2.428-5.211,4.769-10.421,6.933-15.587c7.242-16.956,13.203-33.603,17.971-49.985c1.457-4.99,2.782-9.935,3.974-14.836
							c0.442-1.634,0.795-3.267,1.192-4.857c1.281-5.298,2.385-10.553,3.312-15.808c0.221-1.192,0.441-2.385,0.662-3.621
							c0.618-3.488,1.192-6.977,1.678-10.421c0.883-5.784,1.59-11.525,2.12-17.221c0.265-3.047,0.486-6.094,0.706-9.096
							c0-0.398,0-0.795,0.088-1.237c0.309-5.166,0.486-10.332,0.486-15.411v-2.561
							C2823.178,1791.411,2823.09,1785.847,2822.781,1780.328z M2636.971,1934.742c-4.063,10.554-8.964,21.239-14.66,32.102
							c-25.125,47.777-61.333,87.739-103.856,118.56c-139.975,101.383-278.847,183.292-415.908,234.381
							c-29.452,10.995-61.642,12.585-92.066,4.636c-150.97-39.387-306.445-109.861-464.745-199.939
							c-47.733-27.112-89.593-63.982-120.237-109.507c-10.951-16.249-19.738-32.322-26.45-48.13
							c-21.857-51.398-21.681-100.235-2.076-145.009c17.618-40.271,50.956-77.318,98.115-110.082
							c99.175-68.928,259.462-118.957,463.155-140.726c45.084-4.813,90.476-6.624,135.78-5.166
							c258.314,8.522,446.685,74.359,522.501,177.95c8.301,11.348,15.234,23.094,20.753,35.325
							C2658.343,1825.367,2659.226,1877.692,2636.971,1934.742z"/>
					</g>
					<g>
						<path style="fill:#000072;" d="M2049.309,2347.089c-14.477,0-29.004-1.855-43.306-5.586
							c-142.358-37.139-295.771-103.096-469.009-201.646c-51.641-29.38-95.264-69.16-126.157-115.044
							c-49.487-73.499-59.214-147.644-28.115-214.417c60.928-130.82,270.01-224.463,573.647-256.919l0,0
							c46.553-4.973,93.057-6.738,138.237-5.256c278.55,9.17,478.706,83.857,549.146,204.91
							c38.091,65.454,36.079,142.188-5.815,221.907c-25.308,48.174-63.037,91.274-109.102,124.648
							c-153.203,110.996-290.625,188.403-420.117,236.655C2089.514,2343.495,2069.46,2347.089,2049.309,2347.089z
							 M1960.119,1588.605L1960.119,1588.605c-286.743,30.647-490.62,119.136-545.376,236.704
							c-25.947,55.725-17.407,116.208,25.396,179.775c27.866,41.384,67.397,77.37,114.326,104.07
							c170.508,97.002,321.128,161.821,460.454,198.169c27.129,7.075,55.303,5.664,81.465-4.087
							c126.465-47.119,261.143-123.057,411.729-232.153c41.68-30.2,75.762-69.094,98.555-112.476
							c36.46-69.377,38.662-132.532,6.553-187.71c-63.247-108.691-257.559-178.735-519.775-187.368
							C2049.9,1582.089,2005.051,1583.803,1960.119,1588.605z"/>
					</g>
					<g style="opacity:0.6;">
						<g>
							<path style="fill:#FFFFFF;" d="M2806.495,1733.271c-0.043-0.378-0.043-0.719-0.087-1.097c-0.216-2.95-0.476-5.9-0.778-8.812
								c-0.13-1.588-0.346-3.215-0.562-4.803c-0.389-3.025-0.865-6.051-1.384-9.076c0-0.076,0-0.189-0.043-0.265v-0.038
								c-32.131-183.119-299.734-304.971-701.397-319.531c-56.954-2.08-113.995-0.038-170.603,5.635
								c-413.339,41.487-684.012,174.232-718.089,349.976c0,0.038,0,0.038,0,0.076c-1.211,6.24-2.119,12.518-2.768,18.872
								c-0.13,1.588-0.26,3.177-0.389,4.765c-0.13,1.626-0.216,3.214-0.303,4.803c-0.486,10.496-0.14,21.115,1.008,31.854
								c0.623-5.48,1.404-10.918,2.451-16.317c0-0.038,0-0.038,0-0.076c34.077-175.744,304.75-308.489,718.089-349.976
								c56.608-5.673,113.649-7.715,170.603-5.635c401.663,14.56,669.265,136.413,701.397,319.532v0.038
								c0.043,0.075,0.043,0.189,0.043,0.265c0.519,3.026,0.995,6.051,1.384,9.076c0.216,1.588,0.432,3.215,0.562,4.803
								c0.076,0.734,0.125,1.483,0.196,2.221c0.171-1.867,0.341-3.739,0.496-5.581c0-0.34,0-0.681,0.087-1.059
								c0.303-4.425,0.476-8.85,0.476-13.199v-2.193C2806.884,1742.763,2806.798,1737.998,2806.495,1733.271z"/>
						</g>
					</g>
					<g>
						<path style="fill:#000072;" d="M2051.809,2492.035c-18.623,0-37.324-2.715-55.737-8.169
							c-182.588-54.048-379.541-149.468-602.104-291.704c-65.684-41.982-121.206-98.574-160.566-163.657
							c-66.494-109.951-76.387-219.524-28.604-316.875c86.108-175.44,349.512-300.63,722.666-343.472l0,0
							c59.595-6.841,119.126-9.082,176.958-6.685c341.592,14.194,593.765,114.878,691.865,276.233
							c57.954,95.327,59.268,208.53,3.789,327.375c-31.729,67.969-79.248,128.735-137.427,175.742
							c-195.601,158.057-371.153,268.081-536.68,336.367C2102.014,2487.07,2076.985,2492.035,2051.809,2492.035z M1931.496,1403.251
							c-178.301,20.471-336.118,61.384-456.392,118.315c-117.324,55.54-199.829,126.643-238.599,205.627
							c-42.822,87.244-33.696,182.468,27.119,283.03c36.572,60.474,88.223,113.096,149.365,152.173
							c219.731,140.425,413.74,234.502,593.11,287.603c35.474,10.503,72.261,8.613,106.401-5.464
							c162.334-66.968,335.029-175.303,527.949-331.191c54.019-43.643,98.144-100.078,127.612-163.203
							c50.962-109.172,50.303-208.118-1.963-294.084c-91.855-151.084-333.564-245.591-663.144-259.29
							C2046.936,1394.44,1989.255,1396.62,1931.496,1403.251L1931.496,1403.251z"/>
					</g>
					<g style="opacity:0.3;">
						<g>
							<path style="fill:#000072;" d="M2806.884,1837.731v6.27c0,5.034-0.177,10.156-0.486,15.234
								c-0.088,0.441-0.088,0.839-0.088,1.236c-0.221,3.003-0.441,6.005-0.706,9.008c-0.486,5.652-1.192,11.348-2.076,17.089
								c-0.486,3.4-1.015,6.844-1.634,10.289c-0.221,1.236-0.441,2.428-0.662,3.621c-0.927,5.166-2.031,10.377-3.224,15.631
								c-0.397,1.59-0.75,3.223-1.192,4.813c-1.148,4.857-2.429,9.759-3.886,14.704c-0.618,2.12-1.237,4.283-1.943,6.403
								c-2.164,5.166-4.504,10.377-6.933,15.587c-6.491,13.865-13.556,27.289-21.195,40.226c-1.59,2.738-3.223,5.475-4.901,8.169
								c-0.751,1.325-1.546,2.561-2.429,3.842c-1.501,2.517-3.091,4.99-4.769,7.462c-0.795,1.325-1.678,2.605-2.561,3.886
								c-1.501,2.296-3.047,4.592-4.68,6.888c-2.119,3.047-4.283,6.094-6.447,9.052c-2.384,3.268-4.813,6.535-7.286,9.714
								c-0.265,0.398-0.53,0.795-0.883,1.148c-1.811,2.385-3.665,4.725-5.564,7.065c-1.325,1.722-2.694,3.4-4.151,5.078
								c-1.148,1.457-2.34,2.87-3.577,4.283c-1.324,1.634-2.693,3.268-4.151,4.857c-2.119,2.428-4.239,4.813-6.403,7.198
								c-0.309,0.353-0.618,0.706-0.971,1.06c-2.473,2.738-4.99,5.431-7.551,8.081c-0.618,0.662-1.236,1.325-1.854,1.943
								c-1.943,2.031-3.93,4.018-5.917,6.005c-1.501,1.59-3.003,3.047-4.548,4.46c-1.987,1.943-3.974,3.886-6.005,5.74
								c-0.265,0.309-0.574,0.574-0.883,0.839c-2.738,2.605-5.52,5.122-8.346,7.639c-0.618,0.53-1.192,1.06-1.81,1.59
								c-2.429,2.164-4.901,4.283-7.374,6.359c-0.221,0.221-0.486,0.397-0.706,0.618c-2.517,2.164-5.034,4.239-7.551,6.27
								c-121.606,98.248-242.594,183.602-362.743,250.94c-0.044,0-0.044,0.044-0.089,0.044c-3.532,1.987-7.065,3.974-10.642,5.917
								c-9.361,5.166-18.767,10.244-28.128,15.19c-4.548,2.428-9.052,4.813-13.6,7.109c-10.818,5.607-21.681,11.083-32.543,16.382
								c-3.179,1.546-6.358,3.091-9.582,4.637c-11.746,5.696-23.491,11.127-35.237,16.382c-2.694,1.236-5.387,2.428-8.081,3.621
								c-10.553,4.68-21.106,9.185-31.66,13.556c-37.753,15.587-79.04,17.663-118.162,6.049c-4.548-1.324-9.096-2.738-13.644-4.151
								c-3.798-1.148-7.551-2.34-11.348-3.532c-0.751-0.221-1.546-0.486-2.296-0.707c-96.879-30.644-195.215-72.151-294.787-122.578
								c-0.795-0.397-1.589-0.795-2.384-1.236c-4.901-2.473-9.803-4.946-14.66-7.507c-5.696-2.914-11.392-5.873-17.089-8.875
								c-6.314-3.312-12.585-6.623-18.899-10.023c-10.818-5.784-21.636-11.657-32.499-17.618c-0.044-0.044-0.088-0.088-0.177-0.088
								c-11.348-6.314-22.741-12.673-34.177-19.164c-5.741-3.268-11.481-6.579-17.221-9.891c-5.74-3.312-11.48-6.667-17.221-10.023
								c-5.74-3.356-11.525-6.756-17.265-10.156c-5.166-3.047-10.377-6.182-15.543-9.273c-18.369-11.039-36.782-22.343-55.24-33.824
								c-5.255-3.312-10.509-6.623-15.764-9.935c-5.829-3.665-11.613-7.33-17.397-11.039
								c-61.422-39.255-115.336-92.375-154.944-157.947c-9.008-14.837-16.868-29.585-23.624-44.156
								c-3.665-11.348-6.623-22.608-8.92-33.78c-4.901-23.712-6.8-46.894-5.873-69.59c0.088-1.854,0.177-3.665,0.309-5.563
								c0.133-1.855,0.265-3.665,0.397-5.52c0.618-7.33,1.545-14.616,2.738-21.813c6.977,43.052,23.668,87.783,51.177,133.705
								c3.842,6.447,7.86,12.761,11.966,18.987c12.055,18.148,40.226,10.421,40.933-11.48
								c1.148-35.458,12.364-71.622,31.218-101.339c13.468-21.239,29.894-39.961,48.13-56.961
								c-19.605,44.774-19.782,93.611,2.076,145.009c5.475,29.231,18.325,59.523,38.99,90.564
								c30.026,45.084,71.003,81.601,117.765,108.448c155.033,89.24,307.283,159.051,455.162,198.085
								c29.761,7.86,61.289,6.27,90.167-4.592c134.235-50.603,270.236-131.762,407.297-232.174
								c41.639-30.556,77.097-70.12,101.736-117.456c13.468-25.92,22.299-50.956,26.803-74.978
								c22.255-57.05,21.372-109.375,0.309-155.607c40.58,24.639,71.224,67.073,84.029,113.702
								c1.281,4.725,2.385,9.494,3.356,14.263c4.46,21.813,34.177,25.301,43.538,5.166c0.133-0.265,0.221-0.53,0.353-0.795
								c18.281-39.608,29.806-77.759,35.06-114.321c0.044,0.088,0.044,0.221,0.044,0.309c0.53,3.488,1.016,6.977,1.413,10.509
								c0.177,1.81,0.397,3.709,0.53,5.52c0.309,3.4,0.574,6.8,0.795,10.2v0.044
								C2806.84,1828.37,2806.884,1833.05,2806.884,1837.731z"/>
						</g>
					</g>
					<g style="opacity:0.3;">
						<g>
							<path style="fill:#000072;" d="M2643.999,1165.849c-0.79,59.611-6.156,123.196-14.308,189.166
								c0,0.265-0.042,0.574-0.125,0.839c-1.872-0.486-3.702-1.016-5.532-1.545c-72.286-20.671-143.498-50.867-206.248-93.663
								c-36.28-24.743-34.043-80.907,2.886-104.543c1.767-1.131,3.505-2.299,5.21-3.5c34.065-24.021,59.52-59.302,89.26-89.107
								c17.053-17.089,35.979-32.94,47.292-54.754c13.726-26.406,14.433-58.728,7.528-87.96
								c-6.863-29.231-20.672-56.078-34.98-82.086h5.116c3.452-1.236,6.905-2.296,10.398-3.091c0.027,0.008,0.05,0.015,0.077,0.023
								c39.665,40.712,64.519,94.399,78.535,157.57C2640.63,1044.994,2644.872,1103.192,2643.999,1165.849z"/>
						</g>
					</g>
				</g>
			</g>
		</g>
		<g>
			<g>
				<path style="fill:#F70200;" d="M2929.499,1405.843c-21.35-34.931-31.877-76.864-27.373-120.732
					c10.933-106.477,106.112-183.932,212.589-172.999c106.477,10.932,183.932,106.112,172.999,212.589
					c-10.933,106.477-106.112,183.932-212.589,172.999c-29.617-3.041-56.976-12.617-80.824-27.124l-89.689,20.114L2929.499,1405.843
					z"/>
			</g>
			<g style="opacity:0.5;">
				<g>
					<path style="fill:#FFFFFF;" d="M3110.908,1149.191c-99.465-10.212-189.048,56.712-209.332,152.365
						c-0.024-6.832,0.27-13.726,0.984-20.676c10.933-106.477,106.111-183.932,212.589-172.999
						c106.477,10.932,183.932,106.112,172.999,212.589c-0.717,6.98-1.816,13.827-3.236,20.541
						C3284.538,1243.19,3210.405,1159.407,3110.908,1149.191z"/>
				</g>
			</g>
			<g>
				<path style="fill:#FFFFFF;" d="M3096.653,1211.028c-44.519,0-80.598,36.119-80.598,80.638c0,29.399,15.799,55.039,39.318,69.118
					v24.759c0,3.24,2.601,5.84,5.841,5.84h4.879c3.24,0,5.841-2.6,5.841-5.84v-17.16c1.76,0.52,3.52,1,5.319,1.44v15.72
					c0,3.24,2.6,5.84,5.84,5.84h4.881c3.24,0,5.84-2.6,5.84-5.84v-13.44c0.96,0.04,1.88,0.16,2.84,0.16c0.96,0,1.92-0.12,2.88-0.16
					v13.44c0,3.24,2.601,5.84,5.84,5.84h4.88c3.2,0,5.84-2.6,5.84-5.84v-15.72c1.761-0.44,3.561-0.92,5.28-1.44v17.16
					c0,3.24,2.601,5.84,5.841,5.84h4.879c3.24,0,5.841-2.6,5.841-5.84v-24.759c23.559-14.08,39.358-39.719,39.358-69.118
					C3177.291,1247.147,3141.171,1211.028,3096.653,1211.028z M3063.174,1325.945c-13.679,0-24.719-11.08-24.719-24.719
					c0-13.68,11.04-24.719,24.719-24.719c13.64,0,24.68,11.04,24.68,24.719C3087.854,1314.865,3076.814,1325.945,3063.174,1325.945z
					 M3130.172,1325.945c-13.639,0-24.719-11.08-24.719-24.719c0-13.68,11.08-24.719,24.719-24.719
					c13.64,0,24.72,11.04,24.72,24.719C3154.892,1314.865,3143.812,1325.945,3130.172,1325.945z"/>
			</g>
			<g style="opacity:0.3;">
				<path style="fill:#000072;" d="M2955.65,1408.971c47.592,44.337,113.569,63.265,179.454,44.498
					c73.068-20.812,127.359-82.66,147.398-157.228c0.365,9.854,0.06,19.879-0.981,30.016
					c-10.933,106.477-97.808,184.784-194.042,174.903c-26.767-2.748-51.428-12.047-72.865-26.306l-81.347,20.971l23.347-85.006
					C2956.283,1410.211,2955.977,1409.584,2955.65,1408.971z"/>
			</g>
			<g>
				<path style="fill:#000072;" d="M3095.075,1511.608c-7.036,0-14.121-0.359-21.264-1.094
					c-29.092-2.988-56.543-11.814-81.675-26.25l-84.707,18.997c-4.438,1.001-9.092-0.432-12.217-3.76
					c-3.12-3.33-4.248-8.059-2.964-12.437l23.31-79.475c-21.64-37.673-30.713-80.347-26.25-123.794
					c5.64-54.922,32.329-104.358,75.152-139.207c42.822-34.849,96.67-50.935,151.567-45.293
					c113.374,11.641,196.143,113.347,184.502,226.721C3289.621,1432.243,3199.631,1511.598,3095.075,1511.608z M2994.299,1457.692
					c2.344,0,4.663,0.64,6.694,1.877c23.052,14.024,48.438,22.539,75.449,25.315c99.224,10.195,188.262-62.263,198.452-161.499
					c10.19-99.241-62.256-188.269-161.494-198.459c-48.061-4.929-95.195,9.148-132.676,39.648
					c-37.485,30.503-60.845,73.779-65.781,121.853c-4.082,39.709,4.751,78.679,25.547,112.695c1.895,3.101,2.393,6.858,1.372,10.344
					l-18.735,63.867l68.354-15.33C2992.414,1457.795,2993.357,1457.692,2994.299,1457.692z"/>
			</g>
		</g>
		<defs>
			
				<filter id="Adobe_OpacityMaskFilter" filterUnits="userSpaceOnUse" x="1189.735" y="1339.244" width="2047.257" height="1974.454">
				<feFlood  style="flood-color:white;flood-opacity:1" result="back"/>
				<feBlend  in="SourceGraphic" in2="back" mode="normal"/>
			</filter>
		</defs>
		<!-- <mask maskUnits="userSpaceOnUse" x="1189.735" y="1339.244" width="2047.257" height="1974.454" id="SVGID_1_">
			<g style="filter:url(#Adobe_OpacityMaskFilter);">
				<defs>
					
						<filter id="Adobe_OpacityMaskFilter_00000094618951511772911100000016070396224202706086_" filterUnits="userSpaceOnUse" x="1189.735" y="1339.244" width="2047.257" height="1974.454">
						<feFlood  style="flood-color:white;flood-opacity:1" result="back"/>
						<feBlend  in="SourceGraphic" in2="back" mode="normal"/>
					</filter>
				</defs>
				<mask maskUnits="userSpaceOnUse" x="1189.735" y="1339.244" width="2047.257" height="1974.454" id="SVGID_1_">
					<g style="filter:url(#Adobe_OpacityMaskFilter_00000094618951511772911100000016070396224202706086_);">
					</g>
				</mask>
				
					<linearGradient id="SVGID_00000178923633245881534170000006111611841130069398_" gradientUnits="userSpaceOnUse" x1="2068.0432" y1="1603.0414" x2="2708.824" y2="3395.9456">
					<stop  offset="0" style="stop-color:#000000"/>
					<stop  offset="1" style="stop-color:#FFFFFF"/>
				</linearGradient>
				<path style="mask:url(#SVGID_1_);fill:url(#SVGID_00000178923633245881534170000006111611841130069398_);" d="
					M2149.677,3299.406c-319.981-206.452-639.962-412.904-959.943-619.355c13.751-129.56,45.472-240.581,85.518-335.248
					c381.782-902.51,1807.301-997.246,1961.739-1005.56c-19.616,457.357-39.233,914.713-58.849,1372.07l-239.19,602.384
					L2149.677,3299.406z"/>
			</g>
		</mask> -->
		
			<!-- <linearGradient id="SVGID_00000142147343680460698070000005978538396336169132_" gradientUnits="userSpaceOnUse" x1="2068.0432" y1="1603.0414" x2="2708.824" y2="3395.9456">
			<stop  offset="0" style="stop-color:#FFFFFF"/>
			<stop  offset="1" style="stop-color:#CDEEFF"/>
		</linearGradient> -->
		<path style="fill:url(#SVGID_00000142147343680460698070000005978538396336169132_);" d="M2149.677,3299.406
			c-319.981-206.452-639.962-412.904-959.943-619.355c13.751-129.56,45.472-240.581,85.518-335.248
			c381.782-902.51,1807.301-997.246,1961.739-1005.56c-19.616,457.357-39.233,914.713-58.849,1372.07l-239.19,602.384
			L2149.677,3299.406z"/>
		<g>
			<g>
				<path style="fill:#C0BECC;" d="M1590.476,3350.127h1375.059c20.056,0,36.466-16.41,36.466-36.466v-4.999
					c0-20.056-16.41-36.466-36.466-36.466H1590.476c-20.056,0-36.466,16.409-36.466,36.466v4.999
					C1554.01,3333.717,1570.42,3350.127,1590.476,3350.127z"/>
			</g>
			<g style="opacity:0.7;">
				<path style="fill:#FFFFFF;" d="M2965.535,3272.197H1590.476c-20.056,0-36.466,16.409-36.466,36.466v4.999
					c0,4.563,0.886,8.92,2.435,12.955c5.257-13.701,18.538-23.51,34.031-23.51h1375.059c15.493,0,28.773,9.809,34.031,23.51
					c1.549-4.035,2.435-8.392,2.435-12.955v-4.999C3002.001,3288.606,2985.592,3272.197,2965.535,3272.197z"/>
			</g>
			<g style="opacity:0.3;">
				<path style="fill:#000072;" d="M2965.535,3313.698H1590.476c-12.627,0-23.8-6.511-30.351-16.335
					c-3.854,5.78-6.115,12.702-6.115,20.131v4.998c0,20.056,16.41,36.466,36.466,36.466h1375.059
					c20.056,0,36.466-16.41,36.466-36.466v-4.998c0-7.429-2.261-14.352-6.115-20.131
					C2989.335,3307.187,2978.163,3313.698,2965.535,3313.698z"/>
			</g>
			<g>
				<path style="fill:#C0BECC;" d="M2160.046,3272.197l706.613,0c23.757,0,46.089-11.071,59.722-29.84
					c0.275-0.378,0.55-0.76,0.827-1.147c7.956-11.11,14.435-23.139,19.581-35.697l194.644-475.071
					c4.284-10.456,7.56-21.311,9.106-32.454c5.207-37.547-7.466-65.784-32.907-87.372c-13.626-11.563-31.275-17.768-49.423-17.768
					h-705.688c-12.371,0-24.734,2.431-35.694,7.967c-14.735,7.444-26.17,19.107-35.038,34.053c-2.872,4.84-5.218,9.952-7.333,15.142
					l-197.632,484.879c-3.199,7.847-5.891,15.9-7.588,24.172c-6.395,31.182-1.082,60.039,20.367,85.692
					C2114.28,3262.305,2136.67,3272.197,2160.046,3272.197z"/>
			</g>
			<g style="opacity:0.3;">
				<path style="fill:#000072;" d="M2160.046,3272.197l706.613,0c23.757,0,46.089-11.071,59.722-29.84
					c0.275-0.378,0.55-0.76,0.827-1.147c7.956-11.11,14.435-23.139,19.581-35.697l194.644-475.071
					c4.284-10.456,7.56-21.311,9.106-32.454c5.207-37.547-7.466-65.784-32.907-87.372c-13.626-11.563-31.275-17.768-49.423-17.768
					h-705.688c-12.371,0-24.734,2.431-35.694,7.967c-14.735,7.444-26.17,19.107-35.038,34.053c-2.872,4.84-5.218,9.952-7.333,15.142
					l-197.632,484.879c-3.199,7.847-5.891,15.9-7.588,24.172c-6.395,31.182-1.082,60.039,20.367,85.692
					C2114.28,3262.305,2136.67,3272.197,2160.046,3272.197z"/>
			</g>
			<g>
				<path style="fill:#000072;" d="M2965.534,3367.787H1590.476c-29.844,0-54.126-24.282-54.126-54.126v-5
					c0-29.844,24.282-54.126,54.126-54.126h1375.058c29.844,0,54.126,24.282,54.126,54.126v5
					C3019.66,3343.505,2995.378,3367.787,2965.534,3367.787z M1590.476,3289.858c-10.366,0-18.804,8.438-18.804,18.804v5
					c0,10.366,8.438,18.804,18.804,18.804h1375.058c10.366,0,18.804-8.438,18.804-18.804v-5c0-10.366-8.438-18.804-18.804-18.804
					H1590.476z"/>
			</g>
			<g>
				<path style="fill:#000072;" d="M2175.31,3364.252L2154.099,3336c5.542-4.16,9.336-12.319,9.902-21.299
					c0.415-6.533-0.542-19.097-11.602-29.834l24.609-25.342c15.498,15.049,23.608,35.972,22.251,57.412
					C2198.034,3336.22,2189.084,3353.91,2175.31,3364.252z"/>
			</g>
			<g>
				<path style="fill:none;stroke:#000072;stroke-width:35.325;stroke-miterlimit:10;" d="M2991.768,3285.434"/>
			</g>
			<g>
				<path style="fill:#000072;" d="M2866.657,3289.858h-706.612c-29.072,0-56.045-12.31-73.994-33.779
					c-23.843-28.516-31.958-62.349-24.116-100.566c1.758-8.589,4.546-17.52,8.53-27.29l197.632-484.878
					c2.802-6.88,5.508-12.441,8.501-17.49c10.938-18.438,25.161-32.168,42.266-40.806c12.773-6.45,27.866-9.863,43.657-9.863
					h705.689c22.549,0,44.16,7.798,60.85,21.963c31.64,26.846,44.751,61.592,38.974,103.267c-1.65,11.89-5.005,23.901-10.254,36.724
					l-194.648,475.068c-5.83,14.229-13.086,27.446-21.563,39.287l-0.928,1.284
					C2923.786,3275.981,2896.12,3289.858,2866.657,3289.858z M2362.521,2610.507c-10.283,0-19.868,2.1-27.724,6.069
					c-11.167,5.64-20.264,14.57-27.818,27.305c-2.08,3.506-4.038,7.568-6.167,12.793l-197.632,484.878
					c-3.154,7.734-5.323,14.619-6.641,21.05c-5.649,27.534-0.215,50.693,16.611,70.82c11.055,13.218,28.584,21.113,46.894,21.113
					h706.612c18.188,0,35.171-8.433,45.43-22.559l0.61-0.84c7.036-9.824,12.954-20.63,17.749-32.324l194.644-475.063
					c4.111-10.049,6.714-19.272,7.954-28.193c4.121-29.727-4.404-52.441-26.836-71.475c-10.317-8.75-23.813-13.574-37.998-13.574
					H2362.521z"/>
			</g>
			<g>
				<path style="fill:#C0BECC;" d="M3222.262,2697.983c-1.545,11.127-4.857,21.99-9.185,32.455l-195.7,475.077
					c-5.167,12.54-11.702,24.595-19.694,35.678c-0.309,0.398-0.574,0.795-0.839,1.148c-13.732,18.767-36.164,29.85-60.052,29.85
					h-710.563c-23.491,0-46.011-9.891-60.759-27.421c-6.182-7.374-11.039-14.969-14.66-22.829
					c-9.008-19.561-10.421-40.624-5.829-62.878c1.678-8.257,4.416-16.338,7.639-24.153l47.115-114.983l6.712-16.338l144.877-353.559
					c2.164-5.211,4.504-10.333,7.374-15.146c8.92-14.969,20.444-26.626,35.237-34.089c11.039-5.52,23.447-7.948,35.899-7.948
					h709.635c10.818,0,21.46,2.208,31.174,6.403c0.044,0,0.133,0,0.177,0.044c6.624,2.87,12.805,6.668,18.325,11.304
					c16.117,13.6,27.156,29.805,31.748,49.367C3223.675,2671.445,3224.205,2684.074,3222.262,2697.983z"/>
			</g>
			<g style="opacity:0.7;">
				<path style="fill:#FFFFFF;" d="M2178.719,3256.162c-9.008-19.561-10.421-40.624-5.829-62.879
					c1.678-8.257,4.416-16.338,7.639-24.153l47.115-114.983l6.712-16.338l144.877-353.559c2.164-5.21,4.504-10.333,7.374-15.146
					c8.92-14.969,20.445-26.626,35.237-34.088c11.039-5.52,23.447-7.948,35.899-7.948h709.635c10.818,0,21.46,2.208,31.174,6.403
					c0.044,0,0.133,0,0.177,0.044c5.8,2.513,11.231,5.777,16.206,9.654c-5.836-12.284-14.542-23.079-25.79-32.571
					c-5.52-4.636-11.701-8.434-18.325-11.304c-0.044-0.044-0.133-0.044-0.177-0.044c-9.714-4.195-20.356-6.403-31.174-6.403
					h-709.635c-12.452,0-24.86,2.428-35.899,7.948c-14.793,7.462-26.317,19.12-35.237,34.089c-2.87,4.813-5.21,9.935-7.374,15.146
					l-144.877,353.559l-6.712,16.338l-47.115,114.983c-3.223,7.815-5.961,15.896-7.639,24.153
					c-4.592,22.255-3.179,43.317,5.829,62.878c3.621,7.86,8.478,15.455,14.66,22.829c4.07,4.837,8.776,9.029,13.886,12.656
					C2179.154,3257.003,2178.915,3256.587,2178.719,3256.162z"/>
			</g>
			<g>
				<path style="fill:#000072;" d="M2936.789,3289.858h-710.552c-29.189,0-56.269-12.295-74.302-33.74
					c-23.984-28.525-32.144-62.378-24.258-100.625c1.777-8.613,4.585-17.549,8.584-27.305l198.735-484.878
					c2.807-6.865,5.527-12.427,8.545-17.49c11.001-18.433,25.288-32.158,42.481-40.791c12.817-6.44,27.973-9.844,43.818-9.844
					h709.619c22.632,0,44.326,7.788,61.089,21.929c31.826,26.855,45.01,61.616,39.194,103.315
					c-1.66,11.885-5.034,23.906-10.318,36.738l-195.727,475.073c-5.874,14.243-13.169,27.461-21.695,39.292l-0.898,1.245
					C2994.143,3275.995,2966.36,3289.858,2936.789,3289.858z M2429.841,2610.507c-10.366,0-20.034,2.104-27.964,6.089
					c-11.24,5.645-20.396,14.58-27.993,27.319c-2.1,3.516-4.067,7.578-6.196,12.783l-198.74,484.888
					c-3.159,7.705-5.342,14.59-6.67,21.035c-5.674,27.51-0.21,50.654,16.699,70.762c11.133,13.242,28.804,21.152,47.26,21.152
					h710.552c18.34,0,35.454-8.447,45.791-22.598l0.581-0.801c7.1-9.854,13.052-20.654,17.876-32.354l195.723-475.068
					c4.14-10.049,6.753-19.263,7.993-28.164c4.146-29.707-4.429-52.407-26.983-71.44c-10.4-8.77-24.004-13.604-38.31-13.604
					H2429.841z"/>
			</g>
			<g style="opacity:0.3;">
				<g>
					<g>
						<path style="fill:#000072;" d="M2861.293,2859.041c10.106,17.274,20.239,44.044,6.876,72.441
							c-4.656,9.838-13.411,17.133-24.027,19.927c-3.032,0.816-6.153,1.222-9.277,1.258c-7.892,0.091-15.689-2.287-22.321-6.938
							c-10.61-7.484-20.205-16.007-28.7-25.447c-1.765,7.379-6.871,13.81-14.399,16.98c-3.028,1.268-6.186,1.921-9.269,1.956
							c-9.125,0.105-17.816-4.893-22.23-13.352c-2.49,5.167-6.839,9.493-12.566,11.902c-3.028,1.268-6.145,1.92-9.228,1.956
							c-9.742,0.112-19.058-5.619-23.073-15.151l-13.483-32.117l-0.632,20.152c-0.368,10.898-5.306,21.233-13.653,28.277
							c-6.881,5.793-15.519,8.976-24.357,9.078c-1.891,0.022-3.742-0.081-5.595-0.347c-38.252-5.192-68.094-26.227-84.094-59.138
							c-10.611-21.873-9.388-47.828,3.271-69.515c17.74-30.379,43.66-50.041,77.07-58.359c12.421-3.103,25.321-0.25,35.363,7.856
							c10,8.066,15.735,20.539,15.348,33.37l-0.658,21.385l26.659-37.635c7.889-11.108,23.275-13.752,34.384-5.863
							c3.606,2.549,6.317,5.93,8.045,9.651l2.141-3.313c7.309-11.472,22.563-14.854,34.035-7.544
							c3.852,2.464,6.768,5.801,8.703,9.602c5.33-4.83,10.789-9.127,16.46-12.933c9.056-6.106,20.258-8.003,30.773-5.205
							c10.433,2.758,19.106,9.812,23.862,19.418C2874.635,2807.293,2879.059,2831.005,2861.293,2859.041z"/>
					</g>
				</g>
				<g>
					<path style="fill:#000072;" d="M2656.833,2803.158l-3.359,108.796c-0.252,8.167-7.51,14.445-15.607,13.341
						c-30.067-4.101-52.897-20.097-65.228-45.488c-7.163-14.749-5.893-32.139,2.375-46.298
						c14.478-24.796,35.177-40.232,61.731-46.858C2647.182,2784.045,2657.165,2792.405,2656.833,2803.158z"/>
				</g>
				<g>
					<line style="fill:#000072;" x1="2655.213" y1="2855.622" x2="2773.497" y2="2858.968"/>
				</g>
				<g>
					<path style="fill:#000072;" d="M2773.494,2858.667c14.497-26.721,31.545-47.394,51.599-60.943
						c6.394-4.32,15.299-2.188,18.726,4.726c8.226,16.594,5.04,34.999-13.665,55.867c15.937,21.351,24.452,42.408,14.866,62.751
						c-3.379,7.172-12.614,9.151-19.098,4.588C2802.33,2909.057,2784.743,2886.831,2773.494,2858.667z"/>
				</g>
				<g>
					<polyline style="fill:#000072;" points="2759.063,2914.634 2735.817,2859.401 2772.836,2801.42 					"/>
				</g>
				<g>
					<polyline style="fill:#000072;" points="2715.02,2915.14 2689.862,2855.224 2727.62,2801.94 					"/>
				</g>
				<g>
					<circle style="fill:#000072;" cx="2617.444" cy="2843.804" r="14.605"/>
				</g>
			</g>
			<g>
				<g>
					<g>
						<path style="fill:#FFFFFF;" d="M2861.293,2845.794c10.106,17.274,20.239,44.044,6.876,72.441
							c-4.656,9.838-13.411,17.133-24.027,19.927c-3.032,0.816-6.153,1.222-9.277,1.258c-7.892,0.091-15.689-2.287-22.321-6.938
							c-10.61-7.484-20.205-16.007-28.7-25.447c-1.765,7.379-6.871,13.81-14.399,16.98c-3.028,1.268-6.186,1.921-9.269,1.956
							c-9.125,0.105-17.816-4.893-22.23-13.352c-2.49,5.167-6.839,9.493-12.566,11.902c-3.028,1.268-6.145,1.92-9.228,1.956
							c-9.742,0.112-19.058-5.619-23.073-15.151l-13.483-32.117l-0.632,20.152c-0.368,10.898-5.306,21.233-13.653,28.277
							c-6.881,5.794-15.519,8.976-24.357,9.078c-1.891,0.022-3.742-0.08-5.595-0.347c-38.252-5.193-68.094-26.227-84.094-59.138
							c-10.611-21.873-9.388-47.828,3.271-69.515c17.74-30.38,43.66-50.041,77.07-58.359c12.421-3.103,25.321-0.25,35.363,7.857
							c10,8.066,15.735,20.539,15.348,33.37l-0.658,21.385l26.659-37.635c7.889-11.108,23.275-13.752,34.384-5.863
							c3.606,2.549,6.317,5.93,8.045,9.651l2.141-3.313c7.309-11.472,22.563-14.854,34.035-7.544
							c3.852,2.463,6.768,5.801,8.703,9.602c5.33-4.83,10.789-9.127,16.46-12.933c9.056-6.106,20.258-8.003,30.773-5.205
							c10.433,2.758,19.106,9.811,23.862,19.418C2874.635,2794.046,2879.059,2817.758,2861.293,2845.794z"/>
					</g>
				</g>
				<g>
					<path style="fill:#FF8D06;" d="M2639.69,2923.207c-1.104,0-2.212-0.073-3.32-0.225c-33.565-4.575-59.727-22.9-73.662-51.606
						c-8.623-17.749-7.588-38.94,2.773-56.68c15.815-27.095,38.896-44.595,68.594-52.007c8.257-2.046,16.841-0.156,23.521,5.234
						c6.797,5.483,10.542,13.618,10.273,22.329l-11.035-0.342l11.035,0.342l-3.36,108.794c-0.219,7.065-3.447,13.735-8.847,18.306
						C2651.164,2921.152,2645.486,2923.207,2639.69,2923.207z M2640.608,2783.964c-0.376,0-0.771,0.044-1.191,0.151
						c-24.038,5.996-41.987,19.644-54.873,41.714c-6.636,11.367-7.373,24.79-1.973,35.903
						c10.757,22.163,30.396,35.776,56.787,39.375c0.933,0.103,1.631-0.264,2.046-0.615c0.376-0.317,1.001-1.011,1.035-2.129
						l3.359-108.794c0.078-2.461-1.416-3.936-2.061-4.458C2643.156,2784.643,2642.063,2783.964,2640.608,2783.964z"/>
				</g>
				<g>
					<path style="fill:#FF8D06;" d="M2773.503,2856.762c-0.103,0-0.21,0-0.317-0.005l-118.286-3.345
						c-6.094-0.171-10.894-5.254-10.723-11.348c0.171-5.986,5.078-10.728,11.03-10.728c0.103,0,0.21,0,0.317,0.005l118.286,3.345
						c6.094,0.171,10.893,5.254,10.722,11.348C2784.362,2852.021,2779.455,2856.762,2773.503,2856.762z"/>
				</g>
				<g>
					<path style="fill:#FF8D06;" d="M2833.62,2925.903c-4.976,0-9.878-1.528-14.053-4.463
						c-25.473-17.925-44.424-42.124-56.323-71.924c-1.221-3.047-1.021-6.479,0.547-9.36c15.674-28.892,34.224-50.703,55.122-64.824
						c5.762-3.896,12.94-5.103,19.658-3.33c6.612,1.743,12.129,6.226,15.142,12.3c9.746,19.668,6.504,40.239-9.619,61.255
						c9.551,14.082,23.501,40.259,10.913,66.973c-2.925,6.206-8.447,10.786-15.151,12.563
						C2837.795,2925.634,2835.7,2925.903,2833.62,2925.903z M2785.744,2846.098c10.351,23.574,25.986,42.827,46.528,57.285
						c0.84,0.591,1.685,0.42,1.934,0.366c0.61-0.161,0.762-0.493,0.83-0.63c6.601-14.014,2.368-29.883-13.73-51.45
						c-3.145-4.209-2.881-10.059,0.63-13.97c19.394-21.636,16.133-35.239,11.992-43.594c-0.186-0.376-0.518-0.635-0.991-0.757
						c-0.274-0.068-0.977-0.186-1.66,0.273C2814.421,2805.009,2799.123,2822.651,2785.744,2846.098z"/>
				</g>
				<g>
					<path style="fill:#FF8D06;" d="M2759.07,2912.426c-4.312,0-8.403-2.534-10.181-6.758l-23.247-55.229
						c-1.406-3.345-1.079-7.163,0.869-10.225l37.017-57.983c3.286-5.132,10.107-6.641,15.249-3.364
						c5.136,3.281,6.64,10.107,3.364,15.249l-33.901,53.096l21.001,49.893c2.363,5.62-0.274,12.09-5.894,14.458
						C2761.95,2912.148,2760.495,2912.426,2759.07,2912.426z"/>
				</g>
				<g>
					<path style="fill:#FF8D06;" d="M2715.027,2912.934c-4.312,0-8.408-2.539-10.181-6.768l-25.161-59.917
						c-1.48-3.516-1.035-7.544,1.167-10.654l37.759-53.281c3.53-4.976,10.415-6.147,15.391-2.627
						c4.976,3.525,6.152,10.415,2.627,15.391l-34.214,48.281l22.783,54.263c2.363,5.62-0.278,12.09-5.903,14.448
						C2717.898,2912.66,2716.452,2912.934,2715.027,2912.934z"/>
				</g>
				<g>
					<circle style="fill:#FF8D06;" cx="2617.444" cy="2830.557" r="14.605"/>
				</g>
			</g>
			<g style="opacity:0.3;">
				<path style="fill:#000072;" d="M3168.421,2652.458c-65.808,140.991-182.859,280.553-339.98,390.569
					c-231.593,162.161-490.858,218.596-682.398,167.342c1.208,4.31,2.686,8.565,4.572,12.739c3.472,7.677,8.13,15.096,14.059,22.299
					c14.144,17.123,35.74,26.784,58.268,26.784h681.433c22.909,0,44.421-10.826,57.591-29.157c0.254-0.345,0.508-0.733,0.804-1.121
					c7.665-10.826,13.932-22.601,18.886-34.85l187.678-464.048c4.15-10.222,7.326-20.833,8.808-31.701
					c1.863-13.586,1.355-25.922-1.313-37.136C3175.038,2666.403,3172.173,2659.197,3168.421,2652.458z"/>
			</g>
		</g>
	</g>
</g>
</svg>
