<svg xmlns="http://www.w3.org/2000/svg" version="1.1" xmlns:xlink="http://www.w3.org/1999/xlink" xmlns:svgjs="http://svgjs.dev/svgjs" width="2000" height="323" viewBox="0 0 2000 323"><g transform="matrix(1,0,0,1,-1.2121212121212466,-0.4245811943937099)"><svg viewBox="0 0 396 64" data-background-color="#080c0b" preserveAspectRatio="xMidYMid meet" height="323" width="2000" xmlns="http://www.w3.org/2000/svg" xmlns:xlink="http://www.w3.org/1999/xlink"><g id="tight-bounds" transform="matrix(1,0,0,1,0.2400000000000091,0.08412754316159976)"><svg viewBox="0 0 395.52 63.83174491367679" height="63.83174491367679" width="395.52"><g><svg viewBox="0 0 541.9853926338855 87.46933993109107" height="63.83174491367679" width="395.52"><g transform="matrix(1,0,0,1,146.46539263388556,2.095293427399511)"><svg viewBox="0 0 395.5199999999999 83.27875307629205" height="83.27875307629205" width="395.5199999999999"><g id="textblocktransform"><svg viewBox="0 0 395.5199999999999 83.27875307629205" height="83.27875307629205" width="395.5199999999999" id="textblock"><g><svg viewBox="0 0 395.5199999999999 83.27875307629205" height="83.27875307629205" width="395.5199999999999"><g transform="matrix(1,0,0,1,0,0)"><svg width="395.5199999999999" viewBox="3.85 -38.05 182.84 38.5" height="83.27875307629205" data-palette-color="#f3f7f6"><path d="M14.7-34.85Q20.4-34.85 24.58-32.73 28.75-30.6 30.98-26.65 33.2-22.7 33.2-17.35L33.2-17.35Q33.2-12 30.98-8.08 28.75-4.15 24.58-2.08 20.4 0 14.7 0L14.7 0 3.85 0 3.85-34.85 14.7-34.85ZM14.7-3.75Q21.45-3.75 25-7.33 28.55-10.9 28.55-17.35L28.55-17.35Q28.55-23.85 24.98-27.5 21.4-31.15 14.7-31.15L14.7-31.15 8.4-31.15 8.4-3.75 14.7-3.75ZM64.2-14.75Q64.2-13.45 64.05-12L64.05-12 42.15-12Q42.4-7.95 44.92-5.68 47.45-3.4 51.05-3.4L51.05-3.4Q54-3.4 55.97-4.78 57.95-6.15 58.75-8.45L58.75-8.45 63.65-8.45Q62.55-4.5 59.25-2.02 55.95 0.45 51.05 0.45L51.05 0.45Q47.15 0.45 44.07-1.3 41-3.05 39.25-6.28 37.5-9.5 37.5-13.75L37.5-13.75Q37.5-18 39.2-21.2 40.9-24.4 43.97-26.13 47.05-27.85 51.05-27.85L51.05-27.85Q54.95-27.85 57.95-26.15 60.95-24.45 62.57-21.48 64.2-18.5 64.2-14.75L64.2-14.75ZM59.5-15.7Q59.5-18.3 58.35-20.18 57.2-22.05 55.22-23.03 53.25-24 50.85-24L50.85-24Q47.4-24 44.97-21.8 42.55-19.6 42.2-15.7L42.2-15.7 59.5-15.7ZM71.84-27.4L80.39-4.2 88.89-27.4 93.75-27.4 83 0 77.69 0 66.94-27.4 71.84-27.4ZM121.54-24.65Q121.54-20.3 118.57-17.43 115.59-14.55 109.49-14.55L109.49-14.55 102.79-14.55 102.79 0 98.24 0 98.24-34.85 109.49-34.85Q115.39-34.85 118.47-32 121.54-29.15 121.54-24.65L121.54-24.65ZM109.49-18.3Q113.29-18.3 115.09-19.95 116.89-21.6 116.89-24.65L116.89-24.65Q116.89-31.1 109.49-31.1L109.49-31.1 102.79-31.1 102.79-18.3 109.49-18.3ZM125.49-13.8Q125.49-18 127.19-21.18 128.89-24.35 131.87-26.1 134.84-27.85 138.49-27.85L138.49-27.85Q142.09-27.85 144.74-26.3 147.39-24.75 148.69-22.4L148.69-22.4 148.69-27.4 153.29-27.4 153.29 0 148.69 0 148.69-5.1Q147.34-2.7 144.67-1.13 141.99 0.45 138.44 0.45L138.44 0.45Q134.79 0.45 131.84-1.35 128.89-3.15 127.19-6.4 125.49-9.65 125.49-13.8L125.49-13.8ZM148.69-13.75Q148.69-16.85 147.44-19.15 146.19-21.45 144.06-22.68 141.94-23.9 139.39-23.9L139.39-23.9Q136.84-23.9 134.74-22.7 132.64-21.5 131.39-19.2 130.14-16.9 130.14-13.8L130.14-13.8Q130.14-10.65 131.39-8.33 132.64-6 134.74-4.78 136.84-3.55 139.39-3.55L139.39-3.55Q141.94-3.55 144.06-4.78 146.19-6 147.44-8.33 148.69-10.65 148.69-13.75L148.69-13.75ZM163.34-31.85Q162.04-31.85 161.14-32.75 160.24-33.65 160.24-34.95L160.24-34.95Q160.24-36.25 161.14-37.15 162.04-38.05 163.34-38.05L163.34-38.05Q164.59-38.05 165.46-37.15 166.34-36.25 166.34-34.95L166.34-34.95Q166.34-33.65 165.46-32.75 164.59-31.85 163.34-31.85L163.34-31.85ZM160.99-27.4L165.54-27.4 165.54 0 160.99 0 160.99-27.4ZM177.84-22.95Q179.04-25.3 181.26-26.6 183.49-27.9 186.69-27.9L186.69-27.9 186.69-23.2 185.49-23.2Q177.84-23.2 177.84-14.9L177.84-14.9 177.84 0 173.29 0 173.29-27.4 177.84-27.4 177.84-22.95Z" opacity="1" transform="matrix(1,0,0,1,0,0)" fill="#f3f7f6" class="wordmark-text-0" data-fill-palette-color="primary" id="text-0"></path></svg></g></svg></g></svg></g></svg></g><g><svg viewBox="0 0 126.80527772264684 87.46933993109107" height="87.46933993109107" width="126.80527772264684"><g><svg xmlns="http://www.w3.org/2000/svg" xmlns:xlink="http://www.w3.org/1999/xlink" version="1.1" x="0" y="0" viewBox="35.319 39.874 29.361000000000004 20.252999999999993" enable-background="new 0 0 100 100" xml:space="preserve" height="87.46933993109107" width="126.80527772264684" class="icon-icon-0" data-fill-palette-color="accent" id="icon-0"><g fill="#20cc09" data-fill-palette-color="accent"><polygon points="37.876,59.597 35.319,57.04 42.625,49.734 35.319,42.431 37.876,39.874 47.738,49.734  " fill="#20cc09" data-fill-palette-color="accent"></polygon></g><g fill="#20cc09" data-fill-palette-color="accent"><rect x="48.182" y="56.51" width="16.498" height="3.617" fill="#20cc09" data-fill-palette-color="accent"></rect></g></svg></g></svg></g></svg></g><defs></defs></svg><rect width="395.52" height="63.83174491367679" fill="none" stroke="none" visibility="hidden"></rect></g></svg></g></svg>