<svg xmlns="http://www.w3.org/2000/svg" version="1.1" xmlns:xlink="http://www.w3.org/1999/xlink" xmlns:svgjs="http://svgjs.dev/svgjs" width="2000" height="318" viewBox="0 0 2000 318"><g transform="matrix(1,0,0,1,-1.2121212121212466,0.8366506663620612)"><svg viewBox="0 0 396 63" data-background-color="#080c0b" preserveAspectRatio="xMidYMid meet" height="318" width="2000" xmlns="http://www.w3.org/2000/svg" xmlns:xlink="http://www.w3.org/1999/xlink"><g id="tight-bounds" transform="matrix(1,0,0,1,0.2400000000000091,-0.1657515471094655)"><svg viewBox="0 0 395.52 63.331503094218924" height="63.331503094218924" width="395.52"><g><svg viewBox="0 0 540.4170574040509 86.53272791048072" height="63.331503094218924" width="395.52"><g transform="matrix(1,0,0,1,144.89705740405088,2.072857257052803)"><svg viewBox="0 0 395.52 82.38701339637511" height="82.38701339637511" width="395.52"><g id="textblocktransform"><svg viewBox="0 0 395.52 82.38701339637511" height="82.38701339637511" width="395.52" id="textblock"><g><svg viewBox="0 0 395.52 82.38701339637511" height="82.38701339637511" width="395.52"><g transform="matrix(1,0,0,1,0,0)"><svg width="395.52" viewBox="3.45 -39.2 190.34 39.650000000000006" height="82.38701339637511" data-palette-color="#f3f7f6"><path d="M15.65-34.9Q21.15-34.9 25.33-32.75 29.5-30.6 31.78-26.63 34.05-22.65 34.05-17.4L34.05-17.4Q34.05-12.15 31.78-8.22 29.5-4.3 25.33-2.15 21.15 0 15.65 0L15.65 0 3.45 0 3.45-34.9 15.65-34.9ZM15.4-5.95Q20.9-5.95 23.9-8.95 26.9-11.95 26.9-17.4L26.9-17.4Q26.9-22.85 23.9-25.93 20.9-29 15.4-29L15.4-29 10.45-29 10.45-5.95 15.4-5.95ZM65.05-14.45Q65.05-12.95 64.85-11.75L64.85-11.75 44.6-11.75Q44.85-8.75 46.7-7.05 48.55-5.35 51.25-5.35L51.25-5.35Q55.15-5.35 56.8-8.7L56.8-8.7 64.35-8.7Q63.15-4.7 59.75-2.13 56.35 0.45 51.4 0.45L51.4 0.45Q47.4 0.45 44.22-1.33 41.05-3.1 39.27-6.35 37.5-9.6 37.5-13.85L37.5-13.85Q37.5-18.15 39.25-21.4 41-24.65 44.15-26.4 47.3-28.15 51.4-28.15L51.4-28.15Q55.35-28.15 58.47-26.45 61.6-24.75 63.32-21.63 65.05-18.5 65.05-14.45L65.05-14.45ZM44.65-16.45L57.8-16.45Q57.75-19.15 55.85-20.78 53.95-22.4 51.2-22.4L51.2-22.4Q48.6-22.4 46.82-20.83 45.05-19.25 44.65-16.45L44.65-16.45ZM74.7-27.7L81.7-6.45 88.7-27.7 96.15-27.7 85.9 0 77.4 0 67.2-27.7 74.7-27.7ZM125.54-24.1Q125.54-21.3 124.22-18.85 122.89-16.4 120.07-14.9 117.24-13.4 112.94-13.4L112.94-13.4 107.09-13.4 107.09 0 100.09 0 100.09-34.9 112.94-34.9Q116.99-34.9 119.84-33.5 122.69-32.1 124.12-29.65 125.54-27.2 125.54-24.1L125.54-24.1ZM112.64-19.05Q115.54-19.05 116.94-20.38 118.34-21.7 118.34-24.1L118.34-24.1Q118.34-29.2 112.64-29.2L112.64-29.2 107.09-29.2 107.09-19.05 112.64-19.05ZM128.69-13.95Q128.69-18.15 130.37-21.4 132.04-24.65 134.92-26.4 137.79-28.15 141.34-28.15L141.34-28.15Q144.44-28.15 146.77-26.9 149.09-25.65 150.49-23.75L150.49-23.75 150.49-27.7 157.54-27.7 157.54 0 150.49 0 150.49-4.05Q149.14-2.1 146.77-0.83 144.39 0.45 141.29 0.45L141.29 0.45Q137.79 0.45 134.92-1.35 132.04-3.15 130.37-6.43 128.69-9.7 128.69-13.95L128.69-13.95ZM150.49-13.85Q150.49-16.4 149.49-18.23 148.49-20.05 146.79-21.03 145.09-22 143.14-22L143.14-22Q141.19-22 139.54-21.05 137.89-20.1 136.87-18.28 135.84-16.45 135.84-13.95L135.84-13.95Q135.84-11.45 136.87-9.58 137.89-7.7 139.57-6.7 141.24-5.7 143.14-5.7L143.14-5.7Q145.09-5.7 146.79-6.68 148.49-7.65 149.49-9.47 150.49-11.3 150.49-13.85L150.49-13.85ZM167.94-31Q166.09-31 164.86-32.18 163.64-33.35 163.64-35.1L163.64-35.1Q163.64-36.85 164.86-38.02 166.09-39.2 167.94-39.2L167.94-39.2Q169.79-39.2 171.01-38.02 172.24-36.85 172.24-35.1L172.24-35.1Q172.24-33.35 171.01-32.18 169.79-31 167.94-31L167.94-31ZM164.39-27.7L171.39-27.7 171.39 0 164.39 0 164.39-27.7ZM185.29-23.4Q186.64-25.6 188.81-26.85 190.99-28.1 193.79-28.1L193.79-28.1 193.79-20.75 191.94-20.75Q188.64-20.75 186.96-19.2 185.29-17.65 185.29-13.8L185.29-13.8 185.29 0 178.29 0 178.29-27.7 185.29-27.7 185.29-23.4Z" opacity="1" transform="matrix(1,0,0,1,0,0)" fill="#f3f7f6" class="wordmark-text-0" data-fill-palette-color="primary" id="text-0"></path></svg></g></svg></g></svg></g></svg></g><g><svg viewBox="0 0 125.44746082948824 86.53272791048072" height="86.53272791048072" width="125.44746082948824"><g><svg xmlns="http://www.w3.org/2000/svg" xmlns:xlink="http://www.w3.org/1999/xlink" version="1.1" x="0" y="0" viewBox="35.319 39.874 29.361000000000004 20.252999999999993" enable-background="new 0 0 100 100" xml:space="preserve" height="86.53272791048072" width="125.44746082948824" class="icon-icon-0" data-fill-palette-color="accent" id="icon-0"><g fill="#20cc09" data-fill-palette-color="accent"><polygon points="37.876,59.597 35.319,57.04 42.625,49.734 35.319,42.431 37.876,39.874 47.738,49.734  " fill="#20cc09" data-fill-palette-color="accent"></polygon></g><g fill="#20cc09" data-fill-palette-color="accent"><rect x="48.182" y="56.51" width="16.498" height="3.617" fill="#20cc09" data-fill-palette-color="accent"></rect></g></svg></g></svg></g></svg></g><defs></defs></svg><rect width="395.52" height="63.331503094218924" fill="none" stroke="none" visibility="hidden"></rect></g></svg></g></svg>