<svg xmlns="http://www.w3.org/2000/svg" version="1.1" xmlns:xlink="http://www.w3.org/1999/xlink" xmlns:svgjs="http://svgjs.dev/svgjs" width="1500" height="1500" viewBox="0 0 1500 1500"><rect width="1500" height="1500" fill="#1b1b1e"></rect><g transform="matrix(0.6666666666666666,0,0,0.6666666666666666,249.39393939393932,595.5313892200425)"><svg viewBox="0 0 396 122" data-background-color="#1b1b1e" preserveAspectRatio="xMidYMid meet" height="462" width="1500" xmlns="http://www.w3.org/2000/svg" xmlns:xlink="http://www.w3.org/1999/xlink"><g id="tight-bounds" transform="matrix(1,0,0,1,0.24000000000003752,0.18561855569748786)"><svg viewBox="0 0 395.5199999999999 121.628762888605" height="121.628762888605" width="395.5199999999999"><g><svg viewBox="0 0 624.9800635609814 192.19142384952443" height="121.628762888605" width="395.5199999999999"><g transform="matrix(1,0,0,1,229.46006356098147,56.62893034652359)"><svg viewBox="0 0 395.52 78.93356315647725" height="78.93356315647725" width="395.52"><g id="textblocktransform"><svg viewBox="0 0 395.52 78.93356315647725" height="78.93356315647725" width="395.52" id="textblock"><g><svg viewBox="0 0 395.52 78.93356315647725" height="78.93356315647725" width="395.52"><g transform="matrix(1,0,0,1,0,0)"><svg width="395.52" viewBox="1.05 -36.55 185.64 37.05" height="78.93356315647725" data-palette-color="#3cebca"><path d="M35.7-18.1L35.7-18.1Q35.7-7.8 29.9-3.75L29.9-3.75Q24.55 0 15.2 0L15.2 0 1.05 0 1.05-0.95 4.35-0.95 4.35-34.05 1.05-34.05 1.05-35 16.5-35Q26.1-35 30.9-31.08 35.7-27.15 35.7-18.1ZM14.1-34.05L14.1-0.95 16-0.95Q21.05-0.95 23.23-4.53 25.4-8.1 25.4-16.5L25.4-16.5 25.4-19.4Q25.4-30.65 21.1-32.95L21.1-32.95Q19.05-34.05 15.3-34.05L15.3-34.05 14.1-34.05ZM51.4 0.5Q44.95 0.5 41.72-2.83 38.5-6.15 38.5-12.08 38.5-18 42.12-21.15 45.75-24.3 51.35-24.3L51.35-24.3Q62.7-24.3 62.25-12.9L62.25-12.9 48.15-12.9 48.15-10.95Q48.15-6.05 49.4-3.55 50.65-1.05 53.75-1.05L53.75-1.05Q59.55-1.05 61.35-7.25L61.35-7.25 62.25-7.1Q61.3-3.5 58.82-1.5 56.35 0.5 51.4 0.5L51.4 0.5ZM48.2-16.35L48.2-13.9 53.35-13.9 53.35-16.35Q53.35-20.4 52.87-21.88 52.4-23.35 50.97-23.35 49.55-23.35 48.87-21.78 48.2-20.2 48.2-16.35L48.2-16.35ZM64.34-22.9L62.3-22.9 62.3-23.8 77.25-23.8 77.25-22.9 74.09-22.9 80.09-6.3 85.5-22.9 82.15-22.9 82.15-23.8 88.9-23.8 88.9-22.9 86.7-22.9 79.3 0 73.59 0 64.34-22.9ZM89.64-34.05L89.64-35 104.34-35Q111.89-35 115.59-32.83 119.29-30.65 119.29-25.05L119.29-25.05Q119.29-18.85 114.79-16.5L114.79-16.5Q110.59-14.35 103.04-14.35L103.04-14.35 102.64-14.35 102.64-0.95 108.89-0.95 108.89 0 89.64 0 89.64-0.95 92.89-0.95 92.89-34.05 89.64-34.05ZM103.99-34.05L102.64-34.05 102.64-15.3 103.69-15.3Q106.69-15.3 107.84-17.35 108.99-19.4 108.99-24L108.99-24 108.99-26.4Q108.99-30.65 107.92-32.35 106.84-34.05 103.99-34.05L103.99-34.05ZM131.34-11.75L131.34-11.75 132.79-11.75 132.79-15.6Q132.79-20.35 132.27-21.98 131.74-23.6 130.24-23.6L130.24-23.6Q129.34-23.6 128.62-23.13 127.89-22.65 127.89-21.83 127.89-21 128.19-20.15L128.19-20.15 129.44-20.15Q129.84-19.1 129.84-17.63 129.84-16.15 128.59-15.08 127.34-14 125.44-14L125.44-14Q121.14-14 121.14-18.15L121.14-18.15Q121.14-24.3 131.59-24.3L131.59-24.3Q137.54-24.3 139.82-22.28 142.09-20.25 142.09-14.85L142.09-14.85 142.09-4.7Q142.09-2.1 143.54-2.1L143.54-2.1Q145.24-2.1 145.54-7.25L145.54-7.25 146.29-7.2Q146.09-2.8 144.64-1.15 143.19 0.5 139.89 0.5L139.89 0.5Q133.89 0.5 132.99-3.2L132.99-3.2Q132.34-1.3 131.04-0.4 129.74 0.5 127.24 0.5L127.24 0.5Q119.84 0.5 119.84-5.55L119.84-5.55Q119.84-9.1 122.67-10.43 125.49-11.75 131.34-11.75ZM129.34-5.6Q129.34-3 129.62-2.25 129.89-1.5 130.67-1.5 131.44-1.5 132.12-2.78 132.79-4.05 132.79-6.3L132.79-6.3 132.79-10.95 132.44-10.95Q129.34-10.95 129.34-6.4L129.34-6.4 129.34-5.6ZM154.14-27.25Q151.49-27.25 150.36-28.6 149.24-29.95 149.24-31.95 149.24-33.95 150.46-35.25 151.69-36.55 154.19-36.55 156.69-36.55 157.99-35.38 159.29-34.2 159.29-32.02 159.29-29.85 158.04-28.55 156.79-27.25 154.14-27.25ZM146.59-22.9L146.59-23.8 158.84-23.8 158.84-0.9 161.64-0.9 161.64 0 146.79 0 146.79-0.9 149.54-0.9 149.54-22.9 146.59-22.9ZM179.34-22.4L179.34-22.4Q177.49-22.4 176.09-20 174.69-17.6 174.69-14.3L174.69-14.3 174.69-0.9 178.24-0.9 178.24 0 162.64 0 162.64-0.9 165.39-0.9 165.39-22.9 162.64-22.9 162.64-23.8 174.69-23.8 174.69-19Q175.34-21.55 177.19-22.93 179.04-24.3 181.39-24.3 183.74-24.3 185.21-22.98 186.69-21.65 186.69-19.23 186.69-16.8 185.59-15.5 184.49-14.2 182.21-14.2 179.94-14.2 178.86-15.7 177.79-17.2 178.59-19.85L178.59-19.85 180.39-19.85Q181.64-22.4 179.34-22.4Z" opacity="1" transform="matrix(1,0,0,1,0,0)" fill="#3cebca" class="wordmark-text-0" data-fill-palette-color="primary" id="text-0"></path></svg></g></svg></g></svg></g></svg></g><g><svg viewBox="0 0 192.19142384952443 192.19142384952443" height="192.19142384952443" width="192.19142384952443"><g><svg></svg></g><g id="icon-0"><svg viewBox="0 0 192.19142384952443 192.19142384952443" height="192.19142384952443" width="192.19142384952443"><g><path d="M0 96.096c0-53.072 43.024-96.096 96.096-96.096 53.072 0 96.096 43.024 96.095 96.096 0 53.072-43.024 96.096-96.095 96.095-53.072 0-96.096-43.024-96.096-96.095zM96.096 185.073c49.141 0 88.977-39.837 88.977-88.977 0-49.141-39.837-88.977-88.977-88.978-49.141 0-88.977 39.837-88.978 88.978 0 49.141 39.837 88.977 88.978 88.977z" data-fill-palette-color="accent" fill="#3cebca" stroke="transparent"></path></g><g transform="matrix(1,0,0,1,40.48530030438273,59.92169874791952)"><svg viewBox="0 0 111.22082324075896 72.34802635368538" height="72.34802635368538" width="111.22082324075896"><g><svg xmlns="http://www.w3.org/2000/svg" xmlns:xlink="http://www.w3.org/1999/xlink" version="1.1" x="0" y="0" viewBox="5.9 129.5 89.62475304077105 58.30000000000001" enable-background="new 0 107.3 100 100" xml:space="preserve" height="72.34802635368538" width="111.22082324075896" class="icon-cg-0" data-fill-palette-color="accent" id="cg-0"><path d="M71.8 174.8c0-3-2.3-4.4-5.2-4.4H49.9L43.2 152l0 0c-1-3.2-4-5.6-7.6-5.6-1.3 0-2.5 0.3-3.6 0.9l0 0C17.5 154.5 9.1 168 5.9 187.7l19 0c0.5-8.3 2-18 8.8-23.8l7.8 11.7 0 0c0.9 1.7 2.7 3 4.7 3h20.3C69.6 178.5 71.8 177.7 71.8 174.8z" fill="#3cebca" data-fill-palette-color="accent"></path><path d="M84.7 187.8H67.5c-1.9 0-3.5-1.6-3.5-3.5s1.6-3.5 3.5-3.5h14.7l6.5-18.5c0.6-1.8 2.6-2.8 4.5-2.1 1.8 0.6 2.8 2.6 2.1 4.5L88 185.5C87.5 186.9 86.2 187.8 84.7 187.8z" fill="#3cebca" data-fill-palette-color="accent"></path><path fill="#3cebca" d="M51.7 129.5c-2.5 0-4.8 0.9-6.5 2.4-0.9-1.5-2.5-2.4-4.4-2.4-2.9 0-5.2 2.3-5.2 5.2s2.3 5.2 5.2 5.2c0.3 0 0.6 0 0.9-0.1 0.2 5.4 4.6 9.6 10 9.6 5.5 0 10-4.5 10-10S57.2 129.5 51.7 129.5z" data-fill-palette-color="accent"></path></svg></g></svg></g></svg></g></svg></g></svg></g><defs></defs></svg><rect width="395.5199999999999" height="121.628762888605" fill="none" stroke="none" visibility="hidden"></rect></g></svg></g></svg>