<svg xmlns="http://www.w3.org/2000/svg" width="60" height="60" fill="#20cc09">
  <path d="M32 6a26 26 0 0 0-7.8 50.8v-5.95s-.97.33-2.27.33c-3.64 0-5.15-3.25-5.53-4.88-.23-1-.83-1.93-1.47-2.5-.77-.7-1.13-.7-1.13-.93-.01-.49.66-.47.97-.47 1.63 0 2.86 1.73 3.43 2.62 1.42 2.21 2.94 2.58 3.72 2.58.98 0 1.82-.15 2.4-.43a7.7 7.7 0 0 1 2.48-4.77c-6.1-1.22-10.4-4.72-10.4-10.4a11.6 11.6 0 0 1 3.13-7.8c-.2-.56-.53-1.7-.53-3.58 0-1.23.09-2.75.65-4.22 0 0 3.7.03 7.2 3.34a18.38 18.38 0 0 1 10.3 0c3.5-3.31 7.2-3.34 7.2-3.34.57 1.47.65 2.99.65 4.22 0 2.02-.27 3.2-.43 3.7 1.9 2.16 3.03 4.8 3.03 7.68 0 5.68-4.3 9.18-10.4 10.4a7.7 7.7 0 0 1 2.6 5.85v8.56A26 26 0 0 0 32 6zm1.81 51.93zm3.98-.58zM32 58zm-2.21-.1z"/>
</svg>